<svg width="790" height="1007" viewBox="0 0 790 1007" fill="none" xmlns="http://www.w3.org/2000/svg">
<path d="M26.3268 418.8C28.7908 418.8 29.7668 420.352 29.7668 421.696C29.7668 423.232 28.6948 424.16 27.2868 424.496C28.1668 424.96 28.6308 425.776 28.6308 426.752C28.6308 428.56 27.2388 430 24.7908 430H20.5828V418.8H26.3268ZM26.0228 423.6C27.7508 423.6 28.4548 422.784 28.4548 421.712C28.4548 420.688 27.7028 420 26.3428 420H21.8628V423.6H26.0228ZM24.8708 428.8C26.5348 428.8 27.3028 427.776 27.3028 426.704C27.3028 425.472 26.4548 424.768 24.9988 424.768H21.8628V428.8H24.8708ZM34.6924 422.4C36.7244 422.4 37.6364 424.112 36.7884 426.352H35.3964C36.1324 424.688 35.7644 423.552 34.4524 423.552C33.3484 423.552 32.5644 424.608 32.5644 427.024V430H31.2844V422.56H32.5644V423.792C32.9964 422.992 33.6844 422.4 34.6924 422.4ZM41.9391 430.16C39.7791 430.16 38.2431 428.48 38.2431 426.272C38.2431 424.016 39.7311 422.4 41.9391 422.4C44.1471 422.4 45.6351 424.016 45.6351 426.272C45.6351 428.48 44.0991 430.16 41.9391 430.16ZM41.9391 429.04C43.2671 429.04 44.3071 427.888 44.3071 426.224C44.3071 424.592 43.2671 423.52 41.9391 423.52C40.6111 423.52 39.5711 424.592 39.5711 426.224C39.5711 427.888 40.6111 429.04 41.9391 429.04ZM57.4154 422.56L55.4794 430H53.8634L51.9754 424.528L50.0714 430H48.4394L46.5034 422.56H47.8794L49.3034 428.672L51.2074 423.12H52.7114L54.6154 428.672L56.0554 422.56H57.4154ZM63.0587 425.136C63.2187 424.048 62.3387 423.488 61.2667 423.488C60.2427 423.488 59.6667 423.968 59.6667 424.48C59.6667 424.896 59.9707 425.136 60.4507 425.296C61.2827 425.584 61.7947 425.664 62.5147 425.92C63.3467 426.208 64.0347 426.752 64.0347 427.84C64.0347 428.992 63.0747 430.16 61.2027 430.16C59.4427 430.16 58.2427 429.184 58.1947 427.536L59.4907 427.232C59.3627 428.304 60.0347 429.04 61.1707 429.04C62.2427 429.04 62.7227 428.464 62.7227 427.856C62.7227 427.36 62.3867 427.12 61.8107 426.944C61.2187 426.768 60.5947 426.64 59.9067 426.368C58.9147 425.984 58.3707 425.392 58.3707 424.464C58.3707 423.312 59.7147 422.4 61.2667 422.4C62.7067 422.4 64.2267 423.008 64.3547 424.88L63.0587 425.136ZM69.2821 422.4C71.2981 422.4 72.6741 423.664 72.5621 425.776L72.5301 426.32H66.9461C66.9461 427.952 67.8421 429.04 69.1701 429.04C70.2261 429.04 70.9621 428.448 71.0581 427.184L72.3381 427.632C71.9221 429.392 70.8181 430.16 69.1541 430.16C66.9781 430.16 65.6501 428.512 65.6501 426.368C65.6501 423.744 67.2021 422.4 69.2821 422.4ZM69.3141 423.488C68.2741 423.488 67.4101 424.032 67.0901 425.232H71.2981C71.1541 423.84 70.1941 423.488 69.3141 423.488ZM77.7706 422.4C79.8026 422.4 80.7146 424.112 79.8666 426.352H78.4746C79.2106 424.688 78.8426 423.552 77.5306 423.552C76.4266 423.552 75.6426 424.608 75.6426 427.024V430H74.3626V422.56H75.6426V423.792C76.0746 422.992 76.7626 422.4 77.7706 422.4Z" fill="white"/>
<path d="M215.707 346.707C216.098 346.317 216.098 345.683 215.707 345.293L209.343 338.929C208.953 338.538 208.319 338.538 207.929 338.929C207.538 339.319 207.538 339.953 207.929 340.343L213.586 346L207.929 351.657C207.538 352.047 207.538 352.681 207.929 353.071C208.319 353.462 208.953 353.462 209.343 353.071L215.707 346.707ZM115 347H215V345H115V347Z" fill="white"/>
<path d="M445.707 346.707C446.098 346.317 446.098 345.683 445.707 345.293L439.343 338.929C438.953 338.538 438.319 338.538 437.929 338.929C437.538 339.319 437.538 339.953 437.929 340.343L443.586 346L437.929 351.657C437.538 352.047 437.538 352.681 437.929 353.071C438.319 353.462 438.953 353.462 439.343 353.071L445.707 346.707ZM345 347H445V345H345V347Z" fill="white"/>
<path d="M445.707 626.707C446.098 626.317 446.098 625.683 445.707 625.293L439.343 618.929C438.953 618.538 438.319 618.538 437.929 618.929C437.538 619.319 437.538 619.953 437.929 620.343L443.586 626L437.929 631.657C437.538 632.047 437.538 632.681 437.929 633.071C438.319 633.462 438.953 633.462 439.343 633.071L445.707 626.707ZM345 627H445V625H345V627Z" fill="white"/>
<path d="M509.293 269.707C509.683 270.098 510.317 270.098 510.707 269.707L517.071 263.343C517.462 262.953 517.462 262.319 517.071 261.929C516.681 261.538 516.047 261.538 515.657 261.929L510 267.586L504.343 261.929C503.953 261.538 503.319 261.538 502.929 261.929C502.538 262.319 502.538 262.953 502.929 263.343L509.293 269.707ZM509 169L509 269L511 269L511 169L509 169Z" fill="white"/>
<path d="M510.707 460.293C510.317 459.902 509.683 459.902 509.293 460.293L502.929 466.657C502.538 467.047 502.538 467.681 502.929 468.071C503.319 468.462 503.953 468.462 504.343 468.071L510 462.414L515.657 468.071C516.047 468.462 516.681 468.462 517.071 468.071C517.462 467.681 517.462 467.047 517.071 466.657L510.707 460.293ZM511 561L511 461L509 461L509 561L511 561Z" fill="white"/>
<g clip-path="url(#clip0_34_116)">
<path d="M100 401H85.417V396.833H97.917V305.167H2.08366V396.833H85.417V401H0.00032521C-0.552209 401 -1.08211 400.781 -1.47281 400.39C-1.86351 399.999 -2.08301 399.469 -2.08301 398.917V303.083C-2.08301 302.531 -1.86351 302.001 -1.47281 301.61C-1.08211 301.219 -0.552209 301 0.00032521 301H100C100.553 301 101.083 301.219 101.473 301.61C101.864 302.001 102.084 302.531 102.084 303.083V398.917C102.084 399.469 101.864 399.999 101.473 400.39C101.083 400.781 100.553 401 100 401Z" fill="white"/>
<path d="M100 317.667H0.000488281V321.833H100V317.667Z" fill="white"/>
<path d="M10.4172 309.333H6.25049V313.5H10.4172V309.333Z" fill="white"/>
<path d="M18.7502 309.333H14.5835V313.5H18.7502V309.333Z" fill="white"/>
<path d="M27.0837 309.333H22.917V313.5H27.0837V309.333Z" fill="white"/>
</g>
<path d="M320.96 658.82H238.96C237.369 658.82 235.843 658.188 234.717 657.063C233.592 655.937 232.96 654.411 232.96 652.82V599C232.96 597.409 233.592 595.883 234.717 594.757C235.843 593.632 237.369 593 238.96 593H320.96C322.551 593 324.077 593.632 325.203 594.757C326.328 595.883 326.96 597.409 326.96 599V652.78C326.965 653.571 326.814 654.356 326.515 655.088C326.216 655.821 325.774 656.487 325.217 657.049C324.659 657.61 323.996 658.055 323.265 658.359C322.535 658.664 321.751 658.82 320.96 658.82V658.82ZM239.04 597C238.51 597 238.001 597.211 237.626 597.586C237.251 597.961 237.04 598.47 237.04 599V652.78C237.04 653.31 237.251 653.819 237.626 654.194C238.001 654.569 238.51 654.78 239.04 654.78H321.04C321.57 654.78 322.079 654.569 322.454 654.194C322.829 653.819 323.04 653.31 323.04 652.78V599C323.04 598.47 322.829 597.961 322.454 597.586C322.079 597.211 321.57 597 321.04 597H239.04Z" fill="white"/>
<path d="M320 685H240C238.152 684.984 236.383 684.245 235.075 682.94C233.766 681.634 233.021 679.868 233 678.02V669.36C233.005 667.501 233.743 665.72 235.054 664.402C236.364 663.084 238.141 662.336 240 662.32H320C321.866 662.325 323.653 663.069 324.972 664.388C326.291 665.707 327.035 667.495 327.04 669.36V678.02C327.019 679.875 326.269 681.647 324.951 682.954C323.634 684.26 321.855 684.995 320 685V685ZM240 666.32C239.201 666.331 238.438 666.655 237.876 667.224C237.315 667.793 237 668.561 237 669.36V678.02C237.016 678.809 237.337 679.561 237.897 680.117C238.457 680.673 239.211 680.99 240 681H320C320.806 681 321.58 680.68 322.15 680.11C322.72 679.54 323.04 678.766 323.04 677.96V669.36C323.04 668.961 322.961 668.565 322.809 668.197C322.656 667.828 322.432 667.493 322.15 667.21C321.867 666.928 321.532 666.704 321.163 666.551C320.795 666.399 320.399 666.32 320 666.32H240Z" fill="white"/>
<path d="M317.5 669.82H295C293.895 669.82 293 670.715 293 671.82V675.58C293 676.685 293.895 677.58 295 677.58H317.5C318.605 677.58 319.5 676.685 319.5 675.58V671.82C319.5 670.715 318.605 669.82 317.5 669.82Z" fill="white"/>
<path d="M317.5 651.32H242.5C241.97 651.32 241.461 651.109 241.086 650.734C240.711 650.359 240.5 649.85 240.5 649.32V602.44C240.5 601.91 240.711 601.401 241.086 601.026C241.461 600.651 241.97 600.44 242.5 600.44H317.5C318.03 600.44 318.539 600.651 318.914 601.026C319.289 601.401 319.5 601.91 319.5 602.44V649.32C319.5 649.85 319.289 650.359 318.914 650.734C318.539 651.109 318.03 651.32 317.5 651.32ZM244.5 647.32H315.5V604.44H244.5V647.32Z" fill="white"/>
<path d="M272.763 630.837L267.403 625.637C267.265 625.502 267.158 625.34 267.089 625.16C267.02 624.981 266.99 624.788 267.003 624.597C267.016 624.406 267.071 624.22 267.163 624.052C267.255 623.884 267.382 623.738 267.536 623.623L273.523 619.143L275.123 621.277L270.389 624.823L274.616 628.943L272.763 630.837Z" fill="white"/>
<path d="M285.816 631.69L284.216 629.557L288.949 626.01L284.722 621.89L286.576 619.97L291.909 625.183C292.048 625.318 292.155 625.481 292.225 625.661C292.294 625.841 292.323 626.035 292.311 626.227C292.298 626.42 292.244 626.608 292.151 626.777C292.059 626.947 291.931 627.095 291.776 627.21L285.816 631.69Z" fill="white"/>
<path d="M282.202 617L274.575 634.358L277.017 635.431L284.644 618.073L282.202 617Z" fill="white"/>
<path d="M256.144 697.8V709H254.864V699.784L251.36 708.088H249.984L246.48 699.752V709H245.2V697.8H246.944L250.688 706.52L254.416 697.8H256.144ZM261.744 709.16C259.584 709.16 258.048 707.48 258.048 705.272C258.048 703.016 259.536 701.4 261.744 701.4C263.952 701.4 265.44 703.016 265.44 705.272C265.44 707.48 263.904 709.16 261.744 709.16ZM261.744 708.04C263.072 708.04 264.112 706.888 264.112 705.224C264.112 703.592 263.072 702.52 261.744 702.52C260.416 702.52 259.376 703.592 259.376 705.224C259.376 706.888 260.416 708.04 261.744 708.04ZM271.069 701.4C272.285 701.4 273.789 702.12 273.789 704.104V709H272.509V704.344C272.509 703.096 271.885 702.536 270.893 702.536C270.061 702.536 269.325 703 268.909 703.832C268.637 704.376 268.557 704.92 268.557 705.848V709H267.277V701.56H268.541V702.984C269.005 702.072 269.773 701.4 271.069 701.4ZM279.213 709.16C277.053 709.16 275.517 707.48 275.517 705.272C275.517 703.016 277.005 701.4 279.213 701.4C281.421 701.4 282.909 703.016 282.909 705.272C282.909 707.48 281.373 709.16 279.213 709.16ZM279.213 708.04C280.541 708.04 281.581 706.888 281.581 705.224C281.581 703.592 280.541 702.52 279.213 702.52C277.885 702.52 276.845 703.592 276.845 705.224C276.845 706.888 277.885 708.04 279.213 708.04ZM288.153 701.4C290.185 701.4 291.097 703.112 290.249 705.352H288.857C289.593 703.688 289.225 702.552 287.913 702.552C286.809 702.552 286.025 703.608 286.025 706.024V709H284.745V701.56H286.025V702.792C286.457 701.992 287.145 701.4 288.153 701.4ZM295.368 701.4C297.384 701.4 298.76 702.664 298.648 704.776L298.616 705.32H293.032C293.032 706.952 293.928 708.04 295.256 708.04C296.312 708.04 297.048 707.448 297.144 706.184L298.424 706.632C298.008 708.392 296.904 709.16 295.24 709.16C293.064 709.16 291.736 707.512 291.736 705.368C291.736 702.744 293.288 701.4 295.368 701.4ZM295.4 702.488C294.36 702.488 293.496 703.032 293.176 704.232H297.384C297.24 702.84 296.28 702.488 295.4 702.488ZM304.097 701.4C306.097 701.4 307.536 703.112 307.536 705.272C307.536 707.528 306.033 709.16 304.081 709.16C303.041 709.16 302.225 708.488 301.697 707.656V712.2H300.417V701.56H301.681V702.856C302.209 702.04 303.009 701.4 304.097 701.4ZM304.001 708.072C305.297 708.072 306.209 706.904 306.209 705.272C306.209 703.64 305.265 702.504 304.016 702.504C302.561 702.504 301.585 703.72 301.585 705.288C301.585 706.808 302.641 708.072 304.001 708.072ZM312.603 709.16C310.443 709.16 308.907 707.48 308.907 705.272C308.907 703.016 310.395 701.4 312.603 701.4C314.811 701.4 316.299 703.016 316.299 705.272C316.299 707.48 314.763 709.16 312.603 709.16ZM312.603 708.04C313.931 708.04 314.971 706.888 314.971 705.224C314.971 703.592 313.931 702.52 312.603 702.52C311.275 702.52 310.235 703.592 310.235 705.224C310.235 706.888 311.275 708.04 312.603 708.04Z" fill="white"/>
<path fill-rule="evenodd" clip-rule="evenodd" d="M510.041 576C482.37 576 460 598.535 460 626.413C460 648.698 474.333 667.562 494.217 674.238C496.703 674.74 497.613 673.153 497.613 671.819C497.613 670.65 497.532 666.644 497.532 662.47C483.611 665.475 480.712 656.46 480.712 656.46C478.475 650.618 475.161 649.116 475.161 649.116C470.605 646.028 475.493 646.028 475.493 646.028C480.547 646.362 483.198 651.202 483.198 651.202C487.672 658.881 494.88 656.711 497.779 655.375C498.193 652.12 499.52 649.867 500.928 648.615C489.826 647.446 478.145 643.106 478.145 623.742C478.145 618.233 480.132 613.726 483.28 610.221C482.784 608.969 481.043 603.793 483.778 596.866C483.778 596.866 488.003 595.53 497.531 602.041C501.609 600.937 505.816 600.376 510.041 600.371C514.267 600.371 518.574 600.956 522.551 602.041C532.079 595.53 536.305 596.866 536.305 596.866C539.039 603.793 537.298 608.969 536.801 610.221C540.033 613.726 541.938 618.233 541.938 623.742C541.938 643.106 530.257 647.362 519.072 648.615C520.895 650.201 522.468 653.205 522.468 657.963C522.468 664.723 522.386 670.149 522.386 671.818C522.386 673.153 523.298 674.74 525.783 674.239C545.667 667.561 560 648.698 560 626.413C560.082 598.535 537.63 576 510.041 576Z" fill="white"/>
<path d="M494.796 696.84V703H493.772L493.628 700.856C492.732 702.424 491.58 703.16 489.772 703.16C486.844 703.16 484.636 700.696 484.636 697.416C484.636 694.104 486.78 691.64 489.884 691.64C491.644 691.64 493.932 692.344 494.46 695.144L493.148 695.592C492.844 693.32 491.196 692.84 489.884 692.84C487.564 692.84 485.98 694.792 485.98 697.368C485.98 700.008 487.66 701.96 489.868 701.96C492.716 701.96 493.58 699.56 493.596 698.024H488.492V696.84H494.796ZM497.488 693.144C496.96 693.144 496.56 692.744 496.56 692.216C496.56 691.72 496.96 691.32 497.488 691.32C498 691.32 498.4 691.72 498.4 692.216C498.4 692.744 498 693.144 497.488 693.144ZM496.832 695.56H498.128V703H496.832V695.56ZM506.217 700.312C506.121 702.92 504.729 703.16 503.785 703.16C502.505 703.16 501.545 702.296 501.545 700.84V696.696H499.753V695.56H501.545V692.904L502.825 691.32V695.56H505.849V696.696H502.825V700.824C502.825 701.656 503.225 702.008 503.913 702.008C504.649 702.008 505.033 701.368 504.905 700.168L506.217 700.312ZM517.494 691.8V703H516.214V697.432H509.238V703H507.958V691.8H509.238V696.232H516.214V691.8H517.494ZM526.151 695.56V703H524.903V701.56C524.439 702.472 523.671 703.16 522.375 703.16C521.143 703.16 519.655 702.44 519.655 700.456V695.56H520.935V700.216C520.935 701.464 521.575 702.024 522.535 702.024C523.383 702.024 524.119 701.56 524.535 700.728C524.807 700.184 524.871 699.64 524.871 698.712V695.56H526.151ZM532.073 695.4C534.073 695.4 535.513 697.112 535.513 699.272C535.513 701.528 534.009 703.16 532.057 703.16C531.001 703.16 530.185 702.488 529.657 701.64V703H528.393V691.48H529.673V696.824C530.201 696.024 531.001 695.4 532.073 695.4ZM531.977 702.072C533.273 702.072 534.185 700.904 534.185 699.272C534.185 697.64 533.241 696.504 531.993 696.504C530.537 696.504 529.561 697.72 529.561 699.288C529.561 700.808 530.617 702.072 531.977 702.072ZM490.197 714.92H485.845L484.325 719H482.933L487.301 707.8H488.741L493.109 719H491.717L490.197 714.92ZM489.749 713.72L488.021 709.08L486.293 713.72H489.749ZM500.944 716.216C500.608 718.632 498.928 719.16 497.664 719.16C495.792 719.16 494.08 717.736 494.08 715.288C494.08 712.696 495.984 711.4 497.792 711.4C499.152 711.4 500.8 711.88 501.216 714.088L499.936 714.488C499.808 712.952 498.736 712.552 497.808 712.552C496.512 712.552 495.408 713.576 495.408 715.272C495.408 716.968 496.464 718.008 497.728 718.008C498.64 718.008 499.616 717.4 499.664 715.832L500.944 716.216ZM508.585 716.312C508.489 718.92 507.097 719.16 506.153 719.16C504.873 719.16 503.913 718.296 503.913 716.84V712.696H502.121V711.56H503.913V708.904L505.193 707.32V711.56H508.217V712.696H505.193V716.824C505.193 717.656 505.593 718.008 506.281 718.008C507.017 718.008 507.401 717.368 507.273 716.168L508.585 716.312ZM510.933 709.144C510.405 709.144 510.005 708.744 510.005 708.216C510.005 707.72 510.405 707.32 510.933 707.32C511.445 707.32 511.845 707.72 511.845 708.216C511.845 708.744 511.445 709.144 510.933 709.144ZM510.277 711.56H511.573V719H510.277V711.56ZM517.119 719.16C514.959 719.16 513.423 717.48 513.423 715.272C513.423 713.016 514.911 711.4 517.119 711.4C519.327 711.4 520.815 713.016 520.815 715.272C520.815 717.48 519.279 719.16 517.119 719.16ZM517.119 718.04C518.447 718.04 519.487 716.888 519.487 715.224C519.487 713.592 518.447 712.52 517.119 712.52C515.791 712.52 514.751 713.592 514.751 715.224C514.751 716.888 515.791 718.04 517.119 718.04ZM526.444 711.4C527.66 711.4 529.164 712.12 529.164 714.104V719H527.884V714.344C527.884 713.096 527.26 712.536 526.268 712.536C525.436 712.536 524.7 713 524.284 713.832C524.012 714.376 523.932 714.92 523.932 715.848V719H522.652V711.56H523.916V712.984C524.38 712.072 525.148 711.4 526.444 711.4ZM535.692 714.136C535.852 713.048 534.972 712.488 533.9 712.488C532.876 712.488 532.299 712.968 532.299 713.48C532.299 713.896 532.604 714.136 533.084 714.296C533.916 714.584 534.428 714.664 535.148 714.92C535.98 715.208 536.668 715.752 536.668 716.84C536.668 717.992 535.708 719.16 533.836 719.16C532.076 719.16 530.876 718.184 530.828 716.536L532.124 716.232C531.996 717.304 532.668 718.04 533.804 718.04C534.876 718.04 535.356 717.464 535.356 716.856C535.356 716.36 535.02 716.12 534.444 715.944C533.852 715.768 533.228 715.64 532.539 715.368C531.548 714.984 531.004 714.392 531.004 713.464C531.004 712.312 532.348 711.4 533.9 711.4C535.34 711.4 536.86 712.008 536.988 713.88L535.692 714.136Z" fill="white"/>
<path d="M445.707 901.707C446.098 901.317 446.098 900.683 445.707 900.293L439.343 893.929C438.953 893.538 438.319 893.538 437.929 893.929C437.538 894.319 437.538 894.953 437.929 895.343L443.586 901L437.929 906.657C437.538 907.047 437.538 907.681 437.929 908.071C438.319 908.462 438.953 908.462 439.343 908.071L445.707 901.707ZM345 902H445V900H345V902Z" fill="white"/>
<path d="M574.293 907.293C573.902 907.683 573.902 908.317 574.293 908.707L580.657 915.071C581.047 915.462 581.681 915.462 582.071 915.071C582.462 914.681 582.462 914.047 582.071 913.657L576.414 908L582.071 902.343C582.462 901.953 582.462 901.319 582.071 900.929C581.681 900.538 581.047 900.538 580.657 900.929L574.293 907.293ZM675 907L575 907L575 909L675 909L675 907Z" fill="white"/>
<path d="M481.496 977V980.296H487.48V981.496H481.496V985.8H487.64V987H480.216V975.8H487.88V977H481.496ZM489.712 975.48H490.992V987H489.712V975.48ZM496.399 979.4C498.415 979.4 499.791 980.664 499.679 982.776L499.647 983.32H494.063C494.063 984.952 494.959 986.04 496.287 986.04C497.343 986.04 498.079 985.448 498.175 984.184L499.455 984.632C499.039 986.392 497.935 987.16 496.271 987.16C494.095 987.16 492.767 985.512 492.767 983.368C492.767 980.744 494.319 979.4 496.399 979.4ZM496.431 980.488C495.391 980.488 494.527 981.032 494.207 982.232H498.415C498.271 980.84 497.311 980.488 496.431 980.488ZM507.944 984.216C507.608 986.632 505.928 987.16 504.664 987.16C502.792 987.16 501.08 985.736 501.08 983.288C501.08 980.696 502.984 979.4 504.792 979.4C506.152 979.4 507.8 979.88 508.216 982.088L506.936 982.488C506.808 980.952 505.736 980.552 504.808 980.552C503.512 980.552 502.408 981.576 502.408 983.272C502.408 984.968 503.464 986.008 504.728 986.008C505.64 986.008 506.616 985.4 506.664 983.832L507.944 984.216ZM515.585 984.312C515.489 986.92 514.097 987.16 513.153 987.16C511.873 987.16 510.913 986.296 510.913 984.84V980.696H509.121V979.56H510.913V976.904L512.193 975.32V979.56H515.217V980.696H512.193V984.824C512.193 985.656 512.593 986.008 513.281 986.008C514.017 986.008 514.401 985.368 514.273 984.168L515.585 984.312ZM520.669 979.4C522.701 979.4 523.613 981.112 522.765 983.352H521.373C522.109 981.688 521.741 980.552 520.429 980.552C519.325 980.552 518.541 981.608 518.541 984.024V987H517.261V979.56H518.541V980.792C518.973 979.992 519.661 979.4 520.669 979.4ZM527.916 987.16C525.756 987.16 524.22 985.48 524.22 983.272C524.22 981.016 525.708 979.4 527.916 979.4C530.124 979.4 531.612 981.016 531.612 983.272C531.612 985.48 530.076 987.16 527.916 987.16ZM527.916 986.04C529.244 986.04 530.284 984.888 530.284 983.224C530.284 981.592 529.244 980.52 527.916 980.52C526.588 980.52 525.548 981.592 525.548 983.224C525.548 984.888 526.588 986.04 527.916 986.04ZM537.241 979.4C538.457 979.4 539.961 980.12 539.961 982.104V987H538.681V982.344C538.681 981.096 538.057 980.536 537.065 980.536C536.233 980.536 535.497 981 535.081 981.832C534.809 982.376 534.729 982.92 534.729 983.848V987H533.449V979.56H534.713V980.984C535.177 980.072 535.945 979.4 537.241 979.4ZM477.447 998.92H473.095L471.575 1003H470.183L474.551 991.8H475.991L480.359 1003H478.967L477.447 998.92ZM476.999 997.72L475.271 993.08L473.543 997.72H476.999ZM485.628 995.4C487.628 995.4 489.068 997.112 489.068 999.272C489.068 1001.53 487.564 1003.16 485.612 1003.16C484.572 1003.16 483.756 1002.49 483.228 1001.66V1006.2H481.948V995.56H483.212V996.856C483.74 996.04 484.54 995.4 485.628 995.4ZM485.532 1002.07C486.828 1002.07 487.74 1000.9 487.74 999.272C487.74 997.64 486.796 996.504 485.548 996.504C484.092 996.504 483.116 997.72 483.116 999.288C483.116 1000.81 484.172 1002.07 485.532 1002.07ZM494.518 995.4C496.518 995.4 497.958 997.112 497.958 999.272C497.958 1001.53 496.454 1003.16 494.502 1003.16C493.462 1003.16 492.646 1002.49 492.118 1001.66V1006.2H490.838V995.56H492.102V996.856C492.63 996.04 493.43 995.4 494.518 995.4ZM494.422 1002.07C495.718 1002.07 496.63 1000.9 496.63 999.272C496.63 997.64 495.686 996.504 494.438 996.504C492.982 996.504 492.006 997.72 492.006 999.288C492.006 1000.81 493.062 1002.07 494.422 1002.07ZM499.665 991.48H500.945V1003H499.665V991.48ZM503.792 993.144C503.264 993.144 502.864 992.744 502.864 992.216C502.864 991.72 503.264 991.32 503.792 991.32C504.304 991.32 504.704 991.72 504.704 992.216C504.704 992.744 504.304 993.144 503.792 993.144ZM503.136 995.56H504.432V1003H503.136V995.56ZM513.178 1000.22C512.842 1002.63 511.162 1003.16 509.898 1003.16C508.026 1003.16 506.314 1001.74 506.314 999.288C506.314 996.696 508.218 995.4 510.026 995.4C511.386 995.4 513.034 995.88 513.45 998.088L512.17 998.488C512.042 996.952 510.97 996.552 510.042 996.552C508.746 996.552 507.642 997.576 507.642 999.272C507.642 1000.97 508.698 1002.01 509.962 1002.01C510.874 1002.01 511.85 1001.4 511.898 999.832L513.178 1000.22ZM520.479 1003C520.143 1002.55 519.887 1002.06 519.775 1001.38C519.343 1002.39 518.575 1003.16 517.231 1003.16C515.823 1003.16 514.975 1002.01 514.975 1000.84C514.975 999.48 515.855 998.84 517.823 998.632C518.495 998.568 519.119 998.456 519.567 998.168V997.832C519.567 996.648 518.687 996.504 517.887 996.504C516.927 996.504 515.935 997.032 516.319 998.232L514.975 997.864C514.767 996.024 516.559 995.4 517.935 995.4C519.391 995.4 520.831 995.864 520.831 997.768V1000.2C520.831 1001.7 521.615 1002.57 521.935 1003H520.479ZM517.471 1002.04C518.447 1002.04 519.423 1001.16 519.615 999.208C519.215 999.448 518.687 999.608 518.015 999.704C516.895 999.864 516.287 1000.04 516.287 1000.87C516.287 1001.48 516.719 1002.04 517.471 1002.04ZM528.694 1000.31C528.598 1002.92 527.206 1003.16 526.262 1003.16C524.982 1003.16 524.022 1002.3 524.022 1000.84V996.696H522.23V995.56H524.022V992.904L525.302 991.32V995.56H528.326V996.696H525.302V1000.82C525.302 1001.66 525.702 1002.01 526.39 1002.01C527.126 1002.01 527.51 1001.37 527.382 1000.17L528.694 1000.31ZM531.042 993.144C530.514 993.144 530.114 992.744 530.114 992.216C530.114 991.72 530.514 991.32 531.042 991.32C531.554 991.32 531.954 991.72 531.954 992.216C531.954 992.744 531.554 993.144 531.042 993.144ZM530.386 995.56H531.682V1003H530.386V995.56ZM537.228 1003.16C535.068 1003.16 533.532 1001.48 533.532 999.272C533.532 997.016 535.02 995.4 537.228 995.4C539.436 995.4 540.924 997.016 540.924 999.272C540.924 1001.48 539.388 1003.16 537.228 1003.16ZM537.228 1002.04C538.556 1002.04 539.596 1000.89 539.596 999.224C539.596 997.592 538.556 996.52 537.228 996.52C535.9 996.52 534.86 997.592 534.86 999.224C534.86 1000.89 535.9 1002.04 537.228 1002.04ZM546.553 995.4C547.769 995.4 549.273 996.12 549.273 998.104V1003H547.993V998.344C547.993 997.096 547.369 996.536 546.377 996.536C545.545 996.536 544.809 997 544.393 997.832C544.121 998.376 544.041 998.92 544.041 999.848V1003H542.761V995.56H544.025V996.984C544.489 996.072 545.257 995.4 546.553 995.4Z" fill="white"/>
<g clip-path="url(#clip1_34_116)">
<path d="M560 958H545.417V953.833H557.917V862.167H462.084V953.833H545.417V958H460C459.448 958 458.918 957.781 458.527 957.39C458.136 956.999 457.917 956.469 457.917 955.917V860.083C457.917 859.531 458.136 859.001 458.527 858.61C458.918 858.219 459.448 858 460 858H560C560.553 858 561.083 858.219 561.473 858.61C561.864 859.001 562.084 859.531 562.084 860.083V955.917C562.084 956.469 561.864 956.999 561.473 957.39C561.083 957.781 560.553 958 560 958Z" fill="white"/>
<path d="M560 874.667H460V878.833H560V874.667Z" fill="white"/>
<path d="M470.417 866.333H466.25V870.5H470.417V866.333Z" fill="white"/>
<path d="M478.75 866.333H474.583V870.5H478.75V866.333Z" fill="white"/>
<path d="M487.084 866.333H482.917V870.5H487.084V866.333Z" fill="white"/>
</g>
<path d="M479.422 414.8L475.054 426H473.614L469.246 414.8H470.638L474.334 424.72L478.03 414.8H479.422ZM482.837 418.4C484.853 418.4 486.229 419.664 486.117 421.776L486.085 422.32H480.501C480.501 423.952 481.397 425.04 482.725 425.04C483.781 425.04 484.517 424.448 484.613 423.184L485.893 423.632C485.477 425.392 484.373 426.16 482.709 426.16C480.533 426.16 479.205 424.512 479.205 422.368C479.205 419.744 480.757 418.4 482.837 418.4ZM482.869 419.488C481.829 419.488 480.965 420.032 480.645 421.232H484.853C484.709 419.84 483.749 419.488 482.869 419.488ZM491.325 418.4C493.357 418.4 494.269 420.112 493.421 422.352H492.029C492.765 420.688 492.397 419.552 491.085 419.552C489.981 419.552 489.197 420.608 489.197 423.024V426H487.917V418.56H489.197V419.792C489.629 418.992 490.317 418.4 491.325 418.4ZM501.772 423.216C501.436 425.632 499.756 426.16 498.492 426.16C496.62 426.16 494.908 424.736 494.908 422.288C494.908 419.696 496.812 418.4 498.62 418.4C499.98 418.4 501.628 418.88 502.044 421.088L500.764 421.488C500.636 419.952 499.564 419.552 498.636 419.552C497.34 419.552 496.236 420.576 496.236 422.272C496.236 423.968 497.292 425.008 498.556 425.008C499.468 425.008 500.444 424.4 500.492 422.832L501.772 423.216ZM507.009 418.4C509.025 418.4 510.401 419.664 510.289 421.776L510.257 422.32H504.673C504.673 423.952 505.569 425.04 506.897 425.04C507.953 425.04 508.689 424.448 508.785 423.184L510.065 423.632C509.649 425.392 508.545 426.16 506.881 426.16C504.705 426.16 503.377 424.512 503.377 422.368C503.377 419.744 504.929 418.4 507.009 418.4ZM507.041 419.488C506.001 419.488 505.137 420.032 504.817 421.232H509.025C508.881 419.84 507.921 419.488 507.041 419.488ZM511.993 414.48H513.273V426H511.993V414.48ZM522.909 418.4C524.909 418.4 526.349 420.112 526.349 422.272C526.349 424.528 524.845 426.16 522.893 426.16C521.837 426.16 521.021 425.488 520.493 424.64V426H519.229V414.48H520.509V419.824C521.037 419.024 521.837 418.4 522.909 418.4ZM522.813 425.072C524.109 425.072 525.021 423.904 525.021 422.272C525.021 420.64 524.077 419.504 522.829 419.504C521.373 419.504 520.397 420.72 520.397 422.288C520.397 423.808 521.453 425.072 522.813 425.072ZM534.269 418.56V426H533.021V424.56C532.557 425.472 531.789 426.16 530.493 426.16C529.261 426.16 527.773 425.44 527.773 423.456V418.56H529.053V423.216C529.053 424.464 529.693 425.024 530.653 425.024C531.501 425.024 532.237 424.56 532.653 423.728C532.925 423.184 532.989 422.64 532.989 421.712V418.56H534.269ZM537.214 416.144C536.686 416.144 536.286 415.744 536.286 415.216C536.286 414.72 536.686 414.32 537.214 414.32C537.726 414.32 538.126 414.72 538.126 415.216C538.126 415.744 537.726 416.144 537.214 416.144ZM536.558 418.56H537.854V426H536.558V418.56ZM540.04 414.48H541.32V426H540.04V414.48ZM550.151 414.48V426H548.887V424.64C548.359 425.488 547.543 426.16 546.487 426.16C544.535 426.16 543.031 424.528 543.031 422.272C543.031 420.112 544.471 418.4 546.471 418.4C547.543 418.4 548.343 419.024 548.871 419.824V414.48H550.151ZM546.567 425.072C547.959 425.072 548.983 423.76 548.983 422.288C548.983 420.688 547.975 419.504 546.551 419.504C545.303 419.504 544.359 420.64 544.359 422.272C544.359 423.904 545.271 425.072 546.567 425.072ZM478.815 442C478.479 441.552 478.223 441.056 478.111 440.384C477.679 441.392 476.911 442.16 475.567 442.16C474.159 442.16 473.311 441.008 473.311 439.84C473.311 438.48 474.191 437.84 476.159 437.632C476.831 437.568 477.455 437.456 477.903 437.168V436.832C477.903 435.648 477.023 435.504 476.223 435.504C475.263 435.504 474.271 436.032 474.655 437.232L473.311 436.864C473.103 435.024 474.895 434.4 476.271 434.4C477.727 434.4 479.167 434.864 479.167 436.768V439.2C479.167 440.704 479.951 441.568 480.271 442H478.815ZM475.807 441.04C476.783 441.04 477.759 440.16 477.951 438.208C477.551 438.448 477.023 438.608 476.351 438.704C475.231 438.864 474.623 439.04 474.623 439.872C474.623 440.48 475.055 441.04 475.807 441.04ZM485.326 434.4C486.542 434.4 488.046 435.12 488.046 437.104V442H486.766V437.344C486.766 436.096 486.142 435.536 485.15 435.536C484.318 435.536 483.582 436 483.166 436.832C482.894 437.376 482.814 437.92 482.814 438.848V442H481.534V434.56H482.798V435.984C483.262 435.072 484.03 434.4 485.326 434.4ZM496.862 430.48V442H495.598V440.64C495.07 441.488 494.254 442.16 493.198 442.16C491.246 442.16 489.742 440.528 489.742 438.272C489.742 436.112 491.182 434.4 493.182 434.4C494.254 434.4 495.054 435.024 495.582 435.824V430.48H496.862ZM493.278 441.072C494.67 441.072 495.694 439.76 495.694 438.288C495.694 436.688 494.686 435.504 493.262 435.504C492.014 435.504 491.07 436.64 491.07 438.272C491.07 439.904 491.982 441.072 493.278 441.072ZM509.55 430.48V442H508.286V440.64C507.758 441.488 506.942 442.16 505.886 442.16C503.934 442.16 502.43 440.528 502.43 438.272C502.43 436.112 503.87 434.4 505.87 434.4C506.942 434.4 507.742 435.024 508.27 435.824V430.48H509.55ZM505.966 441.072C507.358 441.072 508.382 439.76 508.382 438.288C508.382 436.688 507.374 435.504 505.95 435.504C504.702 435.504 503.758 436.64 503.758 438.272C503.758 439.904 504.67 441.072 505.966 441.072ZM515.001 434.4C517.017 434.4 518.393 435.664 518.281 437.776L518.249 438.32H512.665C512.665 439.952 513.561 441.04 514.889 441.04C515.945 441.04 516.681 440.448 516.777 439.184L518.057 439.632C517.641 441.392 516.537 442.16 514.873 442.16C512.697 442.16 511.369 440.512 511.369 438.368C511.369 435.744 512.921 434.4 515.001 434.4ZM515.033 435.488C513.993 435.488 513.129 436.032 512.809 437.232H517.017C516.873 435.84 515.913 435.488 515.033 435.488ZM523.729 434.4C525.729 434.4 527.169 436.112 527.169 438.272C527.169 440.528 525.665 442.16 523.713 442.16C522.673 442.16 521.857 441.488 521.329 440.656V445.2H520.049V434.56H521.313V435.856C521.841 435.04 522.641 434.4 523.729 434.4ZM523.633 441.072C524.929 441.072 525.841 439.904 525.841 438.272C525.841 436.64 524.897 435.504 523.649 435.504C522.193 435.504 521.217 436.72 521.217 438.288C521.217 439.808 522.273 441.072 523.633 441.072ZM528.876 430.48H530.156V442H528.876V430.48ZM535.595 442.16C533.435 442.16 531.899 440.48 531.899 438.272C531.899 436.016 533.387 434.4 535.595 434.4C537.803 434.4 539.291 436.016 539.291 438.272C539.291 440.48 537.755 442.16 535.595 442.16ZM535.595 441.04C536.923 441.04 537.963 439.888 537.963 438.224C537.963 436.592 536.923 435.52 535.595 435.52C534.267 435.52 533.227 436.592 533.227 438.224C533.227 439.888 534.267 441.04 535.595 441.04ZM547.205 434.56L544.213 442C543.685 443.312 543.109 444.976 540.805 445.36L540.261 444.288C542.245 443.904 542.357 443.168 542.917 442L539.909 434.56H541.349L543.557 440.56L545.749 434.56H547.205Z" fill="white"/>
<path d="M510 284L560 370.604H460L510 284Z" fill="white"/>
<path d="M574.293 345.293C573.902 345.683 573.902 346.317 574.293 346.707L580.657 353.071C581.047 353.462 581.681 353.462 582.071 353.071C582.462 352.681 582.462 352.047 582.071 351.657L576.414 346L582.071 340.343C582.462 339.953 582.462 339.319 582.071 338.929C581.681 338.538 581.047 338.538 580.657 338.929L574.293 345.293ZM677 345L575 345L575 347L677 347L677 345Z" fill="white"/>
<path d="M710.541 425.92H706.189L704.669 430H703.277L707.645 418.8H709.085L713.453 430H712.061L710.541 425.92ZM710.093 424.72L708.365 420.08L706.637 424.72H710.093ZM714.978 418.48H716.258V430H714.978V418.48ZM724.241 427.312C724.145 429.92 722.753 430.16 721.809 430.16C720.529 430.16 719.569 429.296 719.569 427.84V423.696H717.777V422.56H719.569V419.904L720.849 418.32V422.56H723.873V423.696H720.849V427.824C720.849 428.656 721.249 429.008 721.937 429.008C722.673 429.008 723.057 428.368 722.929 427.168L724.241 427.312ZM731.213 430C730.877 429.552 730.621 429.056 730.509 428.384C730.077 429.392 729.309 430.16 727.965 430.16C726.557 430.16 725.709 429.008 725.709 427.84C725.709 426.48 726.589 425.84 728.557 425.632C729.229 425.568 729.853 425.456 730.301 425.168V424.832C730.301 423.648 729.421 423.504 728.621 423.504C727.661 423.504 726.669 424.032 727.053 425.232L725.709 424.864C725.501 423.024 727.293 422.4 728.669 422.4C730.125 422.4 731.565 422.864 731.565 424.768V427.2C731.565 428.704 732.349 429.568 732.669 430H731.213ZM728.205 429.04C729.181 429.04 730.157 428.16 730.349 426.208C729.949 426.448 729.421 426.608 728.749 426.704C727.629 426.864 727.021 427.04 727.021 427.872C727.021 428.48 727.453 429.04 728.205 429.04ZM747.585 423.84V430H746.561L746.417 427.856C745.521 429.424 744.369 430.16 742.561 430.16C739.633 430.16 737.425 427.696 737.425 424.416C737.425 421.104 739.569 418.64 742.673 418.64C744.433 418.64 746.721 419.344 747.249 422.144L745.937 422.592C745.633 420.32 743.985 419.84 742.673 419.84C740.353 419.84 738.769 421.792 738.769 424.368C738.769 427.008 740.449 428.96 742.657 428.96C745.505 428.96 746.369 426.56 746.385 425.024H741.281V423.84H747.585ZM754.901 430C754.565 429.552 754.309 429.056 754.197 428.384C753.765 429.392 752.997 430.16 751.653 430.16C750.245 430.16 749.397 429.008 749.397 427.84C749.397 426.48 750.277 425.84 752.245 425.632C752.917 425.568 753.541 425.456 753.989 425.168V424.832C753.989 423.648 753.109 423.504 752.309 423.504C751.349 423.504 750.357 424.032 750.741 425.232L749.397 424.864C749.189 423.024 750.981 422.4 752.357 422.4C753.813 422.4 755.253 422.864 755.253 424.768V427.2C755.253 428.704 756.037 429.568 756.357 430H754.901ZM751.893 429.04C752.869 429.04 753.845 428.16 754.037 426.208C753.637 426.448 753.109 426.608 752.437 426.704C751.317 426.864 750.709 427.04 750.709 427.872C750.709 428.48 751.141 429.04 751.893 429.04ZM765.556 422.416C766.628 422.416 767.86 423.088 767.86 424.992V430.016H766.564V425.232C766.564 424.064 766.1 423.552 765.284 423.552C764.484 423.552 763.892 424.016 763.556 425.088C763.412 425.552 763.38 426.128 763.38 426.832V430H762.1V425.152C762.1 424.032 761.636 423.536 760.82 423.536C760.036 423.536 759.476 423.984 759.108 425.024C758.932 425.52 758.9 426.176 758.9 426.976V430H757.62V422.56H758.9V423.888C759.284 423.04 759.94 422.4 761.092 422.4C761.908 422.4 762.804 422.768 763.188 423.808C763.604 423.008 764.324 422.416 765.556 422.416ZM773.259 422.4C775.275 422.4 776.651 423.664 776.539 425.776L776.507 426.32H770.923C770.923 427.952 771.819 429.04 773.147 429.04C774.203 429.04 774.939 428.448 775.035 427.184L776.315 427.632C775.899 429.392 774.795 430.16 773.131 430.16C770.955 430.16 769.627 428.512 769.627 426.368C769.627 423.744 771.179 422.4 773.259 422.4ZM773.291 423.488C772.251 423.488 771.387 424.032 771.067 425.232H775.275C775.131 423.84 774.171 423.488 773.291 423.488ZM735.361 441.92H731.009L729.489 446H728.097L732.465 434.8H733.905L738.273 446H736.881L735.361 441.92ZM734.913 440.72L733.185 436.08L731.457 440.72H734.913ZM744.525 434.8C746.557 434.8 748.077 435.936 748.077 437.824C748.077 439.728 746.557 440.912 744.525 440.912H740.925V446H739.645V434.8H744.525ZM744.381 439.712C746.285 439.712 746.733 438.704 746.733 437.824C746.733 436.944 746.285 436 744.381 436H740.925V439.712H744.381ZM749.789 434.8H751.069V446H749.789V434.8Z" fill="white"/>
<g clip-path="url(#clip2_34_116)">
<path d="M785.426 401H742.447C741.234 401 740.07 400.518 739.212 399.66C738.355 398.802 737.873 397.639 737.873 396.426V353.574C737.873 352.327 738.368 351.131 739.25 350.25C740.132 349.368 741.328 348.872 742.575 348.872H785.298C786.545 348.872 787.741 349.368 788.623 350.25C789.505 351.131 790 352.327 790 353.574V396.426C790 397.639 789.518 398.802 788.66 399.66C787.803 400.518 786.639 401 785.426 401V401ZM742.575 353.128C742.458 353.133 742.347 353.182 742.265 353.264C742.182 353.347 742.133 353.458 742.128 353.574V396.426C742.128 396.51 742.162 396.591 742.221 396.651C742.281 396.711 742.362 396.745 742.447 396.745H785.426C785.51 396.745 785.592 396.711 785.651 396.651C785.711 396.591 785.745 396.51 785.745 396.426V353.574C785.74 353.458 785.691 353.347 785.608 353.264C785.526 353.182 785.415 353.133 785.298 353.128H742.575Z" fill="white"/>
<path d="M733.872 377.064H716.596C715.975 377.055 715.363 376.925 714.793 376.68C714.223 376.435 713.707 376.08 713.274 375.635C712.841 375.191 712.501 374.665 712.271 374.089C712.041 373.513 711.928 372.897 711.936 372.277V329.723C711.928 329.103 712.041 328.487 712.271 327.911C712.501 327.335 712.841 326.809 713.274 326.365C713.707 325.92 714.223 325.565 714.793 325.32C715.363 325.075 715.975 324.944 716.596 324.936H759.362C759.986 324.936 760.605 325.06 761.181 325.302C761.757 325.544 762.279 325.898 762.717 326.343C763.155 326.789 763.499 327.317 763.73 327.898C763.962 328.478 764.075 329.099 764.064 329.723V345.106H759.808V329.723C759.808 329.605 759.761 329.491 759.677 329.407C759.594 329.324 759.48 329.277 759.362 329.277H716.596C716.475 329.276 716.359 329.323 716.272 329.406C716.185 329.489 716.133 329.603 716.127 329.723V372.277C716.133 372.397 716.185 372.511 716.272 372.594C716.359 372.677 716.475 372.724 716.596 372.723H733.808L733.872 377.064Z" fill="white"/>
<path d="M708.085 353.128H694.702C694.085 353.128 693.473 353.006 692.903 352.77C692.332 352.533 691.814 352.187 691.377 351.75C690.941 351.314 690.594 350.795 690.358 350.225C690.122 349.654 690 349.043 690 348.426V305.702C690 304.455 690.495 303.259 691.377 302.377C692.259 301.495 693.455 301 694.702 301H737.426C738.043 301 738.654 301.122 739.225 301.358C739.795 301.594 740.314 301.941 740.75 302.377C741.187 302.814 741.533 303.332 741.77 303.903C742.006 304.473 742.128 305.085 742.128 305.702V321.085H737.872V305.702C737.867 305.585 737.818 305.475 737.736 305.392C737.653 305.309 737.542 305.261 737.426 305.255H694.702C694.585 305.261 694.475 305.309 694.392 305.392C694.309 305.475 694.261 305.585 694.255 305.702V348.426C694.261 348.542 694.309 348.653 694.392 348.736C694.475 348.818 694.585 348.867 694.702 348.872H708.085V353.128Z" fill="white"/>
</g>
<line x1="676" y1="347" x2="676" y2="909" stroke="white" stroke-width="2"/>
<path d="M495.445 122.952L499.045 129H497.493L494.469 123.72L491.429 129H489.877L493.477 122.952L489.765 117.8H491.333L494.469 122.152L497.589 117.8H499.157L495.445 122.952ZM505.637 124.136C505.797 123.048 504.917 122.488 503.845 122.488C502.821 122.488 502.245 122.968 502.245 123.48C502.245 123.896 502.549 124.136 503.029 124.296C503.861 124.584 504.373 124.664 505.093 124.92C505.925 125.208 506.613 125.752 506.613 126.84C506.613 127.992 505.653 129.16 503.781 129.16C502.021 129.16 500.821 128.184 500.773 126.536L502.069 126.232C501.941 127.304 502.613 128.04 503.749 128.04C504.821 128.04 505.301 127.464 505.301 126.856C505.301 126.36 504.965 126.12 504.389 125.944C503.797 125.768 503.173 125.64 502.485 125.368C501.493 124.984 500.949 124.392 500.949 123.464C500.949 122.312 502.293 121.4 503.845 121.4C505.285 121.4 506.805 122.008 506.933 123.88L505.637 124.136ZM511.892 129.16C509.732 129.16 508.196 127.48 508.196 125.272C508.196 123.016 509.684 121.4 511.892 121.4C514.1 121.4 515.588 123.016 515.588 125.272C515.588 127.48 514.052 129.16 511.892 129.16ZM511.892 128.04C513.22 128.04 514.26 126.888 514.26 125.224C514.26 123.592 513.22 122.52 511.892 122.52C510.564 122.52 509.524 123.592 509.524 125.224C509.524 126.888 510.564 128.04 511.892 128.04ZM517.329 117.48H518.609V129H517.329V117.48ZM520.876 117.48H522.156V129H520.876V117.48ZM529.627 129C529.291 128.552 529.035 128.056 528.923 127.384C528.491 128.392 527.723 129.16 526.379 129.16C524.971 129.16 524.123 128.008 524.123 126.84C524.123 125.48 525.003 124.84 526.971 124.632C527.643 124.568 528.267 124.456 528.715 124.168V123.832C528.715 122.648 527.835 122.504 527.035 122.504C526.075 122.504 525.083 123.032 525.467 124.232L524.123 123.864C523.915 122.024 525.707 121.4 527.083 121.4C528.539 121.4 529.979 121.864 529.979 123.768V126.2C529.979 127.704 530.763 128.568 531.083 129H529.627ZM526.619 128.04C527.595 128.04 528.571 127.16 528.763 125.208C528.363 125.448 527.835 125.608 527.163 125.704C526.043 125.864 525.435 126.04 525.435 126.872C525.435 127.48 525.867 128.04 526.619 128.04ZM505.361 140.92H501.009L499.489 145H498.097L502.465 133.8H503.905L508.273 145H506.881L505.361 140.92ZM504.913 139.72L503.185 135.08L501.457 139.72H504.913ZM514.525 133.8C516.557 133.8 518.077 134.936 518.077 136.824C518.077 138.728 516.557 139.912 514.525 139.912H510.925V145H509.645V133.8H514.525ZM514.381 138.712C516.285 138.712 516.733 137.704 516.733 136.824C516.733 135.944 516.285 135 514.381 135H510.925V138.712H514.381ZM519.789 133.8H521.069V145H519.789V133.8Z" fill="white"/>
<g clip-path="url(#clip3_34_116)">
<path d="M555.426 100H512.447C511.234 100 510.07 99.518 509.212 98.6601C508.355 97.8023 507.873 96.6387 507.873 95.4255V52.5744C507.873 51.3274 508.368 50.1314 509.25 49.2495C510.132 48.3677 511.328 47.8723 512.575 47.8723H555.298C556.545 47.8723 557.741 48.3677 558.623 49.2495C559.505 50.1314 560 51.3274 560 52.5744V95.4255C560 96.6387 559.518 97.8023 558.66 98.6601C557.803 99.518 556.639 100 555.426 100V100ZM512.575 52.1276C512.458 52.1328 512.347 52.1816 512.265 52.2643C512.182 52.347 512.133 52.4576 512.128 52.5744V95.4255C512.128 95.5101 512.162 95.5913 512.221 95.6512C512.281 95.711 512.362 95.7447 512.447 95.7447H555.426C555.51 95.7447 555.592 95.711 555.651 95.6512C555.711 95.5913 555.745 95.5101 555.745 95.4255V52.5744C555.74 52.4576 555.691 52.347 555.608 52.2643C555.526 52.1816 555.415 52.1328 555.298 52.1276H512.575Z" fill="white"/>
<path d="M503.872 76.0638H486.596C485.975 76.0555 485.363 75.9251 484.793 75.68C484.223 75.4349 483.707 75.0799 483.274 74.6354C482.841 74.1908 482.501 73.6654 482.271 73.0891C482.041 72.5128 481.928 71.8969 481.936 71.2766V28.7234C481.928 28.1031 482.041 27.4872 482.271 26.9109C482.501 26.3346 482.841 25.8092 483.274 25.3646C483.707 24.9201 484.223 24.5651 484.793 24.32C485.363 24.0749 485.975 23.9445 486.596 23.9362H529.362C529.986 23.9361 530.605 24.0604 531.181 24.302C531.757 24.5437 532.279 24.8976 532.717 25.3433C533.155 25.789 533.499 26.3175 533.73 26.8978C533.962 27.4782 534.075 28.0988 534.064 28.7234V44.1064H529.808V28.7234C529.808 28.6049 529.761 28.4912 529.677 28.4074C529.594 28.3237 529.48 28.2766 529.362 28.2766H486.596C486.475 28.2765 486.359 28.3228 486.272 28.4061C486.185 28.4893 486.133 28.603 486.127 28.7234V71.2766C486.133 71.397 486.185 71.5107 486.272 71.5939C486.359 71.6771 486.475 71.7235 486.596 71.7234H503.808L503.872 76.0638Z" fill="white"/>
<path d="M478.085 52.1277H464.702C464.085 52.1277 463.473 52.006 462.903 51.7697C462.332 51.5334 461.814 51.1871 461.377 50.7504C460.941 50.3138 460.594 49.7954 460.358 49.225C460.122 48.6545 460 48.043 460 47.4255V4.70213C460 3.45505 460.495 2.25904 461.377 1.37722C462.259 0.495401 463.455 0 464.702 0H507.426C508.043 0 508.654 0.121624 509.225 0.357928C509.795 0.594232 510.314 0.940588 510.75 1.37722C511.187 1.81385 511.533 2.33221 511.77 2.9027C512.006 3.47319 512.128 4.08464 512.128 4.70213V20.0851H507.872V4.70213C507.867 4.5853 507.818 4.47465 507.736 4.39196C507.653 4.30926 507.542 4.26052 507.426 4.25532H464.702C464.585 4.26052 464.475 4.30926 464.392 4.39196C464.309 4.47465 464.261 4.5853 464.255 4.70213V47.4255C464.261 47.5424 464.309 47.653 464.392 47.7357C464.475 47.8184 464.585 47.8671 464.702 47.8723H478.085V52.1277Z" fill="white"/>
</g>
<path d="M254.258 423.728C253.73 427.056 251.554 428.16 249.41 428.16C246.434 428.16 244.034 425.872 244.034 422.4C244.034 418.928 246.45 416.64 249.474 416.64C252.002 416.64 254.082 417.888 254.642 420.832L253.314 421.232C252.946 418.736 251.33 417.84 249.506 417.84C247.202 417.84 245.378 419.648 245.378 422.384C245.378 425.232 247.282 426.96 249.426 426.96C250.866 426.96 252.658 426.112 252.946 423.328L254.258 423.728ZM256.196 416.48H257.476V428H256.196V416.48ZM262.916 428.16C260.756 428.16 259.22 426.48 259.22 424.272C259.22 422.016 260.708 420.4 262.916 420.4C265.124 420.4 266.612 422.016 266.612 424.272C266.612 426.48 265.076 428.16 262.916 428.16ZM262.916 427.04C264.244 427.04 265.284 425.888 265.284 424.224C265.284 422.592 264.244 421.52 262.916 421.52C261.588 421.52 260.548 422.592 260.548 424.224C260.548 425.888 261.588 427.04 262.916 427.04ZM274.565 420.56V428H273.317V426.56C272.853 427.472 272.085 428.16 270.789 428.16C269.557 428.16 268.069 427.44 268.069 425.456V420.56H269.349V425.216C269.349 426.464 269.989 427.024 270.949 427.024C271.797 427.024 272.533 426.56 272.949 425.728C273.221 425.184 273.285 424.64 273.285 423.712V420.56H274.565ZM283.495 416.48V428H282.231V426.64C281.703 427.488 280.887 428.16 279.831 428.16C277.879 428.16 276.375 426.528 276.375 424.272C276.375 422.112 277.815 420.4 279.815 420.4C280.887 420.4 281.687 421.024 282.215 421.824V416.48H283.495ZM279.911 427.072C281.303 427.072 282.327 425.76 282.327 424.288C282.327 422.688 281.319 421.504 279.895 421.504C278.647 421.504 277.703 422.64 277.703 424.272C277.703 425.904 278.615 427.072 279.911 427.072ZM287.922 420.56H290.002V421.712H287.922V428H286.642V421.712H285.138V420.56H286.642V419.024C286.642 417.632 287.346 416.32 289.41 416.32C289.714 416.32 289.986 416.368 290.066 416.4L289.97 417.584C289.778 417.52 289.458 417.504 289.154 417.536C288.066 417.648 287.922 418.352 287.922 419.168V420.56ZM291.712 416.48H292.992V428H291.712V416.48ZM300.463 428C300.127 427.552 299.871 427.056 299.759 426.384C299.327 427.392 298.559 428.16 297.215 428.16C295.807 428.16 294.959 427.008 294.959 425.84C294.959 424.48 295.839 423.84 297.807 423.632C298.479 423.568 299.103 423.456 299.551 423.168V422.832C299.551 421.648 298.671 421.504 297.871 421.504C296.911 421.504 295.919 422.032 296.303 423.232L294.959 422.864C294.751 421.024 296.543 420.4 297.919 420.4C299.375 420.4 300.815 420.864 300.815 422.768V425.2C300.815 426.704 301.599 427.568 301.919 428H300.463ZM297.455 427.04C298.431 427.04 299.407 426.16 299.599 424.208C299.199 424.448 298.671 424.608 297.999 424.704C296.879 424.864 296.271 425.04 296.271 425.872C296.271 426.48 296.703 427.04 297.455 427.04ZM306.591 420.4C308.623 420.4 309.535 422.112 308.687 424.352H307.295C308.031 422.688 307.663 421.552 306.351 421.552C305.247 421.552 304.463 422.608 304.463 425.024V428H303.183V420.56H304.463V421.792C304.895 420.992 305.583 420.4 306.591 420.4ZM313.806 420.4C315.822 420.4 317.198 421.664 317.086 423.776L317.054 424.32H311.47C311.47 425.952 312.366 427.04 313.694 427.04C314.75 427.04 315.486 426.448 315.582 425.184L316.862 425.632C316.446 427.392 315.342 428.16 313.678 428.16C311.502 428.16 310.174 426.512 310.174 424.368C310.174 421.744 311.726 420.4 313.806 420.4ZM313.838 421.488C312.798 421.488 311.934 422.032 311.614 423.232H315.822C315.678 421.84 314.718 421.488 313.838 421.488ZM269.235 432.8C272.851 432.8 274.691 435.152 274.691 438.288C274.691 441.52 272.515 444 269.187 444H265.395V432.8H269.235ZM269.219 442.8C271.843 442.8 273.347 440.688 273.347 438.256C273.347 435.872 272.067 434 269.427 434H266.675V442.8H269.219ZM285.464 432.8V444H283.72L277.832 434.528V444H276.552V432.8H278.264L284.184 442.48V432.8H285.464ZM294.68 437.12C294.984 434.192 293.048 433.808 291.8 433.808C290.472 433.808 289.288 434.4 289.288 435.616C289.288 436.432 289.88 436.832 291.032 437.248C292.088 437.632 292.744 437.824 293.544 438.096C295 438.592 295.88 439.36 295.88 440.8C295.88 442.384 294.536 444.16 291.944 444.16C289.848 444.16 287.384 442.912 287.512 439.088L288.84 438.864C288.568 441.664 290.152 442.992 292.008 442.992C293.432 442.992 294.552 442.064 294.552 440.864C294.552 439.904 293.992 439.552 292.968 439.2L290.392 438.336C288.936 437.856 287.992 436.944 287.992 435.616C287.992 433.856 289.8 432.64 291.832 432.64C293.992 432.64 296.232 433.856 295.976 436.864L294.68 437.12Z" fill="white"/>
<path d="M313.163 373.844H250.698C245.744 373.909 240.953 372.084 237.297 368.741C233.642 365.398 231.398 360.787 231.022 355.848C231.022 355.328 231.022 354.808 231.022 354.288C230.82 350.199 232.001 346.161 234.373 342.824C236.745 339.488 240.171 337.046 244.099 335.893C244.099 335.333 244.099 334.773 244.099 334.253C244.243 329.207 245.775 324.298 248.526 320.065C251.278 315.832 255.142 312.439 259.695 310.259C264.622 308.066 270.107 307.451 275.397 308.496C280.687 309.541 285.525 312.196 289.248 316.097C291.792 318.689 293.839 321.725 295.287 325.055C296.74 323.851 298.463 323.018 300.309 322.627C302.155 322.237 304.069 322.302 305.884 322.816C308.55 323.753 310.873 325.471 312.549 327.747C314.225 330.022 315.177 332.749 315.282 335.573C319.72 336.334 323.74 338.653 326.621 342.113C329.502 345.573 331.054 349.947 330.999 354.448C330.999 372.164 313.363 373.804 313.163 373.844ZM246.499 339.172C243.097 339.91 240.072 341.838 237.968 344.61C235.863 347.382 234.818 350.814 235.021 354.288C235.021 354.728 235.021 355.168 235.021 355.608C235.357 359.585 237.2 363.283 240.174 365.945C243.148 368.607 247.028 370.031 251.017 369.925H313.363C317.258 369.583 320.883 367.793 323.525 364.91C326.166 362.027 327.631 358.259 327.631 354.348C327.631 350.438 326.166 346.67 323.525 343.787C320.883 340.903 317.258 339.114 313.363 338.772C313.118 338.733 312.884 338.646 312.673 338.517C312.462 338.387 312.279 338.217 312.134 338.016C311.989 337.816 311.886 337.588 311.829 337.347C311.772 337.107 311.763 336.857 311.803 336.613C311.879 334.401 311.271 332.219 310.061 330.365C308.852 328.512 307.1 327.076 305.045 326.255C303.453 325.816 301.765 325.88 300.211 326.438C298.657 326.997 297.314 328.022 296.367 329.374C296.159 329.657 295.877 329.877 295.553 330.011C295.229 330.145 294.874 330.188 294.527 330.134C294.184 330.072 293.864 329.921 293.597 329.696C293.331 329.472 293.127 329.182 293.008 328.854C291.612 325.064 289.385 321.634 286.489 318.817C283.312 315.458 279.169 313.169 274.634 312.266C270.1 311.363 265.397 311.892 261.175 313.778C257.304 315.708 254.026 318.648 251.689 322.287C249.352 325.927 248.042 330.13 247.898 334.453C247.839 335.385 247.839 336.32 247.898 337.252C247.958 337.732 247.835 338.217 247.554 338.61C247.272 339.003 246.852 339.275 246.379 339.372L246.499 339.172Z" fill="white"/>
<line x1="346" y1="625" x2="346" y2="901" stroke="white" stroke-width="2"/>
<defs>
<clipPath id="clip0_34_116">
<rect width="100" height="100" fill="white" transform="translate(0 301)"/>
</clipPath>
<clipPath id="clip1_34_116">
<rect width="100" height="100" fill="white" transform="translate(460 858)"/>
</clipPath>
<clipPath id="clip2_34_116">
<rect width="100" height="100" fill="white" transform="translate(690 301)"/>
</clipPath>
<clipPath id="clip3_34_116">
<rect width="100" height="100" fill="white" transform="translate(460)"/>
</clipPath>
</defs>
</svg>
