<svg width="790" height="721" viewBox="0 0 790 721" fill="none" xmlns="http://www.w3.org/2000/svg">
<path d="M26.3268 418.8C28.7908 418.8 29.7668 420.352 29.7668 421.696C29.7668 423.232 28.6948 424.16 27.2868 424.496C28.1668 424.96 28.6308 425.776 28.6308 426.752C28.6308 428.56 27.2388 430 24.7908 430H20.5828V418.8H26.3268ZM26.0228 423.6C27.7508 423.6 28.4548 422.784 28.4548 421.712C28.4548 420.688 27.7028 420 26.3428 420H21.8628V423.6H26.0228ZM24.8708 428.8C26.5348 428.8 27.3028 427.776 27.3028 426.704C27.3028 425.472 26.4548 424.768 24.9988 424.768H21.8628V428.8H24.8708ZM34.6924 422.4C36.7244 422.4 37.6364 424.112 36.7884 426.352H35.3964C36.1324 424.688 35.7644 423.552 34.4524 423.552C33.3484 423.552 32.5644 424.608 32.5644 427.024V430H31.2844V422.56H32.5644V423.792C32.9964 422.992 33.6844 422.4 34.6924 422.4ZM41.9391 430.16C39.7791 430.16 38.2431 428.48 38.2431 426.272C38.2431 424.016 39.7311 422.4 41.9391 422.4C44.1471 422.4 45.6351 424.016 45.6351 426.272C45.6351 428.48 44.0991 430.16 41.9391 430.16ZM41.9391 429.04C43.2671 429.04 44.3071 427.888 44.3071 426.224C44.3071 424.592 43.2671 423.52 41.9391 423.52C40.6111 423.52 39.5711 424.592 39.5711 426.224C39.5711 427.888 40.6111 429.04 41.9391 429.04ZM57.4154 422.56L55.4794 430H53.8634L51.9754 424.528L50.0714 430H48.4394L46.5034 422.56H47.8794L49.3034 428.672L51.2074 423.12H52.7114L54.6154 428.672L56.0554 422.56H57.4154ZM63.0587 425.136C63.2187 424.048 62.3387 423.488 61.2667 423.488C60.2427 423.488 59.6667 423.968 59.6667 424.48C59.6667 424.896 59.9707 425.136 60.4507 425.296C61.2827 425.584 61.7947 425.664 62.5147 425.92C63.3467 426.208 64.0347 426.752 64.0347 427.84C64.0347 428.992 63.0747 430.16 61.2027 430.16C59.4427 430.16 58.2427 429.184 58.1947 427.536L59.4907 427.232C59.3627 428.304 60.0347 429.04 61.1707 429.04C62.2427 429.04 62.7227 428.464 62.7227 427.856C62.7227 427.36 62.3867 427.12 61.8107 426.944C61.2187 426.768 60.5947 426.64 59.9067 426.368C58.9147 425.984 58.3707 425.392 58.3707 424.464C58.3707 423.312 59.7147 422.4 61.2667 422.4C62.7067 422.4 64.2267 423.008 64.3547 424.88L63.0587 425.136ZM69.2821 422.4C71.2981 422.4 72.6741 423.664 72.5621 425.776L72.5301 426.32H66.9461C66.9461 427.952 67.8421 429.04 69.1701 429.04C70.2261 429.04 70.9621 428.448 71.0581 427.184L72.3381 427.632C71.9221 429.392 70.8181 430.16 69.1541 430.16C66.9781 430.16 65.6501 428.512 65.6501 426.368C65.6501 423.744 67.2021 422.4 69.2821 422.4ZM69.3141 423.488C68.2741 423.488 67.4101 424.032 67.0901 425.232H71.2981C71.1541 423.84 70.1941 423.488 69.3141 423.488ZM77.7706 422.4C79.8026 422.4 80.7146 424.112 79.8666 426.352H78.4746C79.2106 424.688 78.8426 423.552 77.5306 423.552C76.4266 423.552 75.6426 424.608 75.6426 427.024V430H74.3626V422.56H75.6426V423.792C76.0746 422.992 76.7626 422.4 77.7706 422.4Z" fill="white"/>
<path d="M215.707 346.707C216.098 346.317 216.098 345.683 215.707 345.293L209.343 338.929C208.953 338.538 208.319 338.538 207.929 338.929C207.538 339.319 207.538 339.953 207.929 340.343L213.586 346L207.929 351.657C207.538 352.047 207.538 352.681 207.929 353.071C208.319 353.462 208.953 353.462 209.343 353.071L215.707 346.707ZM115 347H215V345H115V347Z" fill="white"/>
<path d="M445.707 346.707C446.098 346.317 446.098 345.683 445.707 345.293L439.343 338.929C438.953 338.538 438.319 338.538 437.929 338.929C437.538 339.319 437.538 339.953 437.929 340.343L443.586 346L437.929 351.657C437.538 352.047 437.538 352.681 437.929 353.071C438.319 353.462 438.953 353.462 439.343 353.071L445.707 346.707ZM345 347H445V345H345V347Z" fill="white"/>
<path d="M445.707 626.707C446.098 626.317 446.098 625.683 445.707 625.293L439.343 618.929C438.953 618.538 438.319 618.538 437.929 618.929C437.538 619.319 437.538 619.953 437.929 620.343L443.586 626L437.929 631.657C437.538 632.047 437.538 632.681 437.929 633.071C438.319 633.462 438.953 633.462 439.343 633.071L445.707 626.707ZM345 627H445V625H345V627Z" fill="white"/>
<path d="M509.293 269.707C509.683 270.098 510.317 270.098 510.707 269.707L517.071 263.343C517.462 262.953 517.462 262.319 517.071 261.929C516.681 261.538 516.047 261.538 515.657 261.929L510 267.586L504.343 261.929C503.953 261.538 503.319 261.538 502.929 261.929C502.538 262.319 502.538 262.953 502.929 263.343L509.293 269.707ZM509 169L509 269L511 269L511 169L509 169Z" fill="white"/>
<path d="M574.293 345.293C573.902 345.683 573.902 346.317 574.293 346.707L580.657 353.071C581.047 353.462 581.681 353.462 582.071 353.071C582.462 352.681 582.462 352.047 582.071 351.657L576.414 346L582.071 340.343C582.462 339.953 582.462 339.319 582.071 338.929C581.681 338.538 581.047 338.538 580.657 338.929L574.293 345.293ZM675 345L575 345L575 347L675 347L675 345Z" fill="white"/>
<path d="M510.707 460.293C510.317 459.902 509.683 459.902 509.293 460.293L502.929 466.657C502.538 467.047 502.538 467.681 502.929 468.071C503.319 468.462 503.953 468.462 504.343 468.071L510 462.414L515.657 468.071C516.047 468.462 516.681 468.462 517.071 468.071C517.462 467.681 517.462 467.047 517.071 466.657L510.707 460.293ZM511 561L511 461L509 461L509 561L511 561Z" fill="white"/>
<g clip-path="url(#clip0_10_587)">
<path d="M100 401H85.4167V396.833H97.9167V305.167H2.08341V396.833H85.4167V401H8.10698e-05C-0.552453 401 -1.08236 400.781 -1.47306 400.39C-1.86376 399.999 -2.08325 399.469 -2.08325 398.917V303.083C-2.08325 302.531 -1.86376 302.001 -1.47306 301.61C-1.08236 301.219 -0.552453 301 8.10698e-05 301H100C100.553 301 101.083 301.219 101.473 301.61C101.864 302.001 102.083 302.531 102.083 303.083V398.917C102.083 399.469 101.864 399.999 101.473 400.39C101.083 400.781 100.553 401 100 401Z" fill="white"/>
<path d="M100 317.667H0V321.833H100V317.667Z" fill="white"/>
<path d="M10.4167 309.333H6.25V313.5H10.4167V309.333Z" fill="white"/>
<path d="M18.7502 309.333H14.5835V313.5H18.7502V309.333Z" fill="white"/>
<path d="M27.0834 309.333H22.9167V313.5H27.0834V309.333Z" fill="white"/>
</g>
<path d="M320.96 658.82H238.96C237.369 658.82 235.843 658.188 234.717 657.063C233.592 655.937 232.96 654.411 232.96 652.82V599C232.96 597.409 233.592 595.883 234.717 594.757C235.843 593.632 237.369 593 238.96 593H320.96C322.551 593 324.077 593.632 325.203 594.757C326.328 595.883 326.96 597.409 326.96 599V652.78C326.965 653.571 326.814 654.356 326.515 655.088C326.216 655.821 325.774 656.487 325.217 657.049C324.659 657.61 323.996 658.055 323.265 658.359C322.535 658.664 321.751 658.82 320.96 658.82V658.82ZM239.04 597C238.51 597 238.001 597.211 237.626 597.586C237.251 597.961 237.04 598.47 237.04 599V652.78C237.04 653.31 237.251 653.819 237.626 654.194C238.001 654.569 238.51 654.78 239.04 654.78H321.04C321.57 654.78 322.079 654.569 322.454 654.194C322.829 653.819 323.04 653.31 323.04 652.78V599C323.04 598.47 322.829 597.961 322.454 597.586C322.079 597.211 321.57 597 321.04 597H239.04Z" fill="white"/>
<path d="M320 685H240C238.152 684.984 236.383 684.245 235.075 682.94C233.766 681.634 233.021 679.868 233 678.02V669.36C233.005 667.501 233.743 665.72 235.054 664.402C236.364 663.084 238.141 662.336 240 662.32H320C321.866 662.325 323.653 663.069 324.972 664.388C326.291 665.707 327.035 667.495 327.04 669.36V678.02C327.019 679.875 326.269 681.647 324.951 682.954C323.634 684.26 321.855 684.995 320 685V685ZM240 666.32C239.201 666.331 238.438 666.655 237.876 667.224C237.315 667.793 237 668.561 237 669.36V678.02C237.016 678.809 237.337 679.561 237.897 680.117C238.457 680.673 239.211 680.99 240 681H320C320.806 681 321.58 680.68 322.15 680.11C322.72 679.54 323.04 678.766 323.04 677.96V669.36C323.04 668.961 322.961 668.565 322.809 668.197C322.656 667.828 322.432 667.493 322.15 667.21C321.867 666.928 321.532 666.704 321.163 666.551C320.795 666.399 320.399 666.32 320 666.32H240Z" fill="white"/>
<path d="M317.5 669.82H295C293.895 669.82 293 670.715 293 671.82V675.58C293 676.685 293.895 677.58 295 677.58H317.5C318.605 677.58 319.5 676.685 319.5 675.58V671.82C319.5 670.715 318.605 669.82 317.5 669.82Z" fill="white"/>
<path d="M317.5 651.32H242.5C241.97 651.32 241.461 651.109 241.086 650.734C240.711 650.359 240.5 649.85 240.5 649.32V602.44C240.5 601.91 240.711 601.401 241.086 601.026C241.461 600.651 241.97 600.44 242.5 600.44H317.5C318.03 600.44 318.539 600.651 318.914 601.026C319.289 601.401 319.5 601.91 319.5 602.44V649.32C319.5 649.85 319.289 650.359 318.914 650.734C318.539 651.109 318.03 651.32 317.5 651.32ZM244.5 647.32H315.5V604.44H244.5V647.32Z" fill="white"/>
<path d="M272.763 630.837L267.403 625.637C267.265 625.502 267.158 625.34 267.089 625.16C267.02 624.981 266.99 624.788 267.003 624.597C267.016 624.406 267.071 624.22 267.163 624.052C267.255 623.884 267.382 623.738 267.536 623.623L273.523 619.143L275.123 621.277L270.389 624.823L274.616 628.943L272.763 630.837Z" fill="white"/>
<path d="M285.816 631.69L284.216 629.557L288.949 626.01L284.723 621.89L286.576 619.97L291.909 625.183C292.048 625.318 292.156 625.481 292.225 625.661C292.294 625.841 292.324 626.035 292.311 626.227C292.298 626.42 292.244 626.608 292.152 626.777C292.059 626.947 291.931 627.095 291.776 627.21L285.816 631.69Z" fill="white"/>
<path d="M282.202 617L274.575 634.358L277.017 635.431L284.644 618.073L282.202 617Z" fill="white"/>
<path d="M268.64 700.808C268.64 702.728 267.12 703.912 265.088 703.912H264.672C265.648 704.392 266.336 705.304 266.88 706.84L267.648 709H266.24L265.52 707.016C264.784 705 263.712 703.912 261.952 703.912H261.488V709H260.208V697.8H265.088C267.12 697.8 268.64 698.936 268.64 700.808ZM264.944 702.712C266.848 702.712 267.296 701.704 267.296 700.808C267.296 699.944 266.848 699 264.944 699H261.488V702.712H264.944ZM273.157 701.4C275.173 701.4 276.549 702.664 276.437 704.776L276.405 705.32H270.821C270.821 706.952 271.717 708.04 273.045 708.04C274.101 708.04 274.837 707.448 274.933 706.184L276.213 706.632C275.797 708.392 274.693 709.16 273.029 709.16C270.853 709.16 269.525 707.512 269.525 705.368C269.525 702.744 271.077 701.4 273.157 701.4ZM273.189 702.488C272.149 702.488 271.285 703.032 270.965 704.232H275.173C275.029 702.84 274.069 702.488 273.189 702.488ZM286.174 701.416C287.246 701.416 288.478 702.088 288.478 703.992V709.016H287.182V704.232C287.182 703.064 286.718 702.552 285.902 702.552C285.102 702.552 284.51 703.016 284.174 704.088C284.03 704.552 283.998 705.128 283.998 705.832V709H282.718V704.152C282.718 703.032 282.254 702.536 281.438 702.536C280.654 702.536 280.094 702.984 279.726 704.024C279.55 704.52 279.518 705.176 279.518 705.976V709H278.238V701.56H279.518V702.888C279.902 702.04 280.558 701.4 281.71 701.4C282.526 701.4 283.422 701.768 283.806 702.808C284.222 702.008 284.942 701.416 286.174 701.416ZM291.316 699.144C290.788 699.144 290.388 698.744 290.388 698.216C290.388 697.72 290.788 697.32 291.316 697.32C291.828 697.32 292.228 697.72 292.228 698.216C292.228 698.744 291.828 699.144 291.316 699.144ZM290.66 701.56H291.956V709H290.66V701.56ZM298.834 709L296.962 705.72L295.09 709H293.554L296.018 704.952L293.698 701.56H295.202L296.962 704.2L298.722 701.56H300.226L297.906 704.952L300.37 709H298.834Z" fill="white"/>
<path fill-rule="evenodd" clip-rule="evenodd" d="M510.041 576C482.37 576 460 598.535 460 626.413C460 648.698 474.333 667.562 494.217 674.238C496.703 674.74 497.613 673.153 497.613 671.819C497.613 670.65 497.532 666.644 497.532 662.47C483.611 665.475 480.712 656.46 480.712 656.46C478.475 650.618 475.161 649.116 475.161 649.116C470.605 646.028 475.493 646.028 475.493 646.028C480.547 646.362 483.198 651.202 483.198 651.202C487.672 658.881 494.88 656.711 497.779 655.375C498.193 652.12 499.52 649.867 500.928 648.615C489.826 647.446 478.145 643.106 478.145 623.742C478.145 618.233 480.132 613.726 483.28 610.221C482.784 608.969 481.043 603.793 483.778 596.866C483.778 596.866 488.003 595.53 497.531 602.041C501.609 600.937 505.816 600.376 510.041 600.371C514.267 600.371 518.574 600.956 522.551 602.041C532.079 595.53 536.305 596.866 536.305 596.866C539.039 603.793 537.298 608.969 536.801 610.221C540.033 613.726 541.938 618.233 541.938 623.742C541.938 643.106 530.257 647.362 519.072 648.615C520.895 650.201 522.468 653.205 522.468 657.963C522.468 664.723 522.386 670.149 522.386 671.818C522.386 673.153 523.298 674.74 525.783 674.239C545.667 667.561 560 648.698 560 626.413C560.082 598.535 537.63 576 510.041 576Z" fill="white"/>
<path d="M494.796 696.84V703H493.772L493.628 700.856C492.732 702.424 491.58 703.16 489.772 703.16C486.844 703.16 484.636 700.696 484.636 697.416C484.636 694.104 486.78 691.64 489.884 691.64C491.644 691.64 493.932 692.344 494.46 695.144L493.148 695.592C492.844 693.32 491.196 692.84 489.884 692.84C487.564 692.84 485.98 694.792 485.98 697.368C485.98 700.008 487.66 701.96 489.868 701.96C492.716 701.96 493.58 699.56 493.596 698.024H488.492V696.84H494.796ZM497.488 693.144C496.96 693.144 496.56 692.744 496.56 692.216C496.56 691.72 496.96 691.32 497.488 691.32C498 691.32 498.4 691.72 498.4 692.216C498.4 692.744 498 693.144 497.488 693.144ZM496.832 695.56H498.128V703H496.832V695.56ZM506.217 700.312C506.121 702.92 504.729 703.16 503.785 703.16C502.505 703.16 501.545 702.296 501.545 700.84V696.696H499.753V695.56H501.545V692.904L502.825 691.32V695.56H505.849V696.696H502.825V700.824C502.825 701.656 503.225 702.008 503.913 702.008C504.649 702.008 505.033 701.368 504.905 700.168L506.217 700.312ZM517.494 691.8V703H516.214V697.432H509.238V703H507.958V691.8H509.238V696.232H516.214V691.8H517.494ZM526.151 695.56V703H524.903V701.56C524.439 702.472 523.671 703.16 522.375 703.16C521.143 703.16 519.655 702.44 519.655 700.456V695.56H520.935V700.216C520.935 701.464 521.575 702.024 522.535 702.024C523.383 702.024 524.119 701.56 524.535 700.728C524.807 700.184 524.871 699.64 524.871 698.712V695.56H526.151ZM532.073 695.4C534.073 695.4 535.513 697.112 535.513 699.272C535.513 701.528 534.009 703.16 532.057 703.16C531.001 703.16 530.185 702.488 529.657 701.64V703H528.393V691.48H529.673V696.824C530.201 696.024 531.001 695.4 532.073 695.4ZM531.977 702.072C533.273 702.072 534.185 700.904 534.185 699.272C534.185 697.64 533.241 696.504 531.993 696.504C530.537 696.504 529.561 697.72 529.561 699.288C529.561 700.808 530.617 702.072 531.977 702.072ZM490.197 714.92H485.845L484.325 719H482.933L487.301 707.8H488.741L493.109 719H491.717L490.197 714.92ZM489.749 713.72L488.021 709.08L486.293 713.72H489.749ZM500.944 716.216C500.608 718.632 498.928 719.16 497.664 719.16C495.792 719.16 494.08 717.736 494.08 715.288C494.08 712.696 495.984 711.4 497.792 711.4C499.152 711.4 500.8 711.88 501.216 714.088L499.936 714.488C499.808 712.952 498.736 712.552 497.808 712.552C496.512 712.552 495.408 713.576 495.408 715.272C495.408 716.968 496.464 718.008 497.728 718.008C498.64 718.008 499.616 717.4 499.664 715.832L500.944 716.216ZM508.585 716.312C508.489 718.92 507.097 719.16 506.153 719.16C504.873 719.16 503.913 718.296 503.913 716.84V712.696H502.121V711.56H503.913V708.904L505.193 707.32V711.56H508.217V712.696H505.193V716.824C505.193 717.656 505.593 718.008 506.281 718.008C507.017 718.008 507.401 717.368 507.273 716.168L508.585 716.312ZM510.933 709.144C510.405 709.144 510.005 708.744 510.005 708.216C510.005 707.72 510.405 707.32 510.933 707.32C511.445 707.32 511.845 707.72 511.845 708.216C511.845 708.744 511.445 709.144 510.933 709.144ZM510.277 711.56H511.573V719H510.277V711.56ZM517.119 719.16C514.959 719.16 513.423 717.48 513.423 715.272C513.423 713.016 514.911 711.4 517.119 711.4C519.327 711.4 520.815 713.016 520.815 715.272C520.815 717.48 519.279 719.16 517.119 719.16ZM517.119 718.04C518.447 718.04 519.487 716.888 519.487 715.224C519.487 713.592 518.447 712.52 517.119 712.52C515.791 712.52 514.751 713.592 514.751 715.224C514.751 716.888 515.791 718.04 517.119 718.04ZM526.444 711.4C527.66 711.4 529.164 712.12 529.164 714.104V719H527.884V714.344C527.884 713.096 527.26 712.536 526.268 712.536C525.436 712.536 524.7 713 524.284 713.832C524.012 714.376 523.932 714.92 523.932 715.848V719H522.652V711.56H523.916V712.984C524.38 712.072 525.148 711.4 526.444 711.4ZM535.692 714.136C535.852 713.048 534.972 712.488 533.9 712.488C532.876 712.488 532.299 712.968 532.299 713.48C532.299 713.896 532.604 714.136 533.084 714.296C533.916 714.584 534.428 714.664 535.148 714.92C535.98 715.208 536.668 715.752 536.668 716.84C536.668 717.992 535.708 719.16 533.836 719.16C532.076 719.16 530.876 718.184 530.828 716.536L532.124 716.232C531.996 717.304 532.668 718.04 533.804 718.04C534.876 718.04 535.356 717.464 535.356 716.856C535.356 716.36 535.02 716.12 534.444 715.944C533.852 715.768 533.228 715.64 532.539 715.368C531.548 714.984 531.004 714.392 531.004 713.464C531.004 712.312 532.348 711.4 533.9 711.4C535.34 711.4 536.86 712.008 536.988 713.88L535.692 714.136Z" fill="white"/>
<path d="M479.422 414.8L475.054 426H473.614L469.246 414.8H470.638L474.334 424.72L478.03 414.8H479.422ZM482.837 418.4C484.853 418.4 486.229 419.664 486.117 421.776L486.085 422.32H480.501C480.501 423.952 481.397 425.04 482.725 425.04C483.781 425.04 484.517 424.448 484.613 423.184L485.893 423.632C485.477 425.392 484.373 426.16 482.709 426.16C480.533 426.16 479.205 424.512 479.205 422.368C479.205 419.744 480.757 418.4 482.837 418.4ZM482.869 419.488C481.829 419.488 480.965 420.032 480.645 421.232H484.853C484.709 419.84 483.749 419.488 482.869 419.488ZM491.325 418.4C493.357 418.4 494.269 420.112 493.421 422.352H492.029C492.765 420.688 492.397 419.552 491.085 419.552C489.981 419.552 489.197 420.608 489.197 423.024V426H487.917V418.56H489.197V419.792C489.629 418.992 490.317 418.4 491.325 418.4ZM501.772 423.216C501.436 425.632 499.756 426.16 498.492 426.16C496.62 426.16 494.908 424.736 494.908 422.288C494.908 419.696 496.812 418.4 498.62 418.4C499.98 418.4 501.628 418.88 502.044 421.088L500.764 421.488C500.636 419.952 499.564 419.552 498.636 419.552C497.34 419.552 496.236 420.576 496.236 422.272C496.236 423.968 497.292 425.008 498.556 425.008C499.468 425.008 500.444 424.4 500.492 422.832L501.772 423.216ZM507.009 418.4C509.025 418.4 510.401 419.664 510.289 421.776L510.257 422.32H504.673C504.673 423.952 505.569 425.04 506.897 425.04C507.953 425.04 508.689 424.448 508.785 423.184L510.065 423.632C509.649 425.392 508.545 426.16 506.881 426.16C504.705 426.16 503.377 424.512 503.377 422.368C503.377 419.744 504.929 418.4 507.009 418.4ZM507.041 419.488C506.001 419.488 505.137 420.032 504.817 421.232H509.025C508.881 419.84 507.921 419.488 507.041 419.488ZM511.993 414.48H513.273V426H511.993V414.48ZM522.909 418.4C524.909 418.4 526.349 420.112 526.349 422.272C526.349 424.528 524.845 426.16 522.893 426.16C521.837 426.16 521.021 425.488 520.493 424.64V426H519.229V414.48H520.509V419.824C521.037 419.024 521.837 418.4 522.909 418.4ZM522.813 425.072C524.109 425.072 525.021 423.904 525.021 422.272C525.021 420.64 524.077 419.504 522.829 419.504C521.373 419.504 520.397 420.72 520.397 422.288C520.397 423.808 521.453 425.072 522.813 425.072ZM534.269 418.56V426H533.021V424.56C532.557 425.472 531.789 426.16 530.493 426.16C529.261 426.16 527.773 425.44 527.773 423.456V418.56H529.053V423.216C529.053 424.464 529.693 425.024 530.653 425.024C531.501 425.024 532.237 424.56 532.653 423.728C532.925 423.184 532.989 422.64 532.989 421.712V418.56H534.269ZM537.214 416.144C536.686 416.144 536.286 415.744 536.286 415.216C536.286 414.72 536.686 414.32 537.214 414.32C537.726 414.32 538.126 414.72 538.126 415.216C538.126 415.744 537.726 416.144 537.214 416.144ZM536.558 418.56H537.854V426H536.558V418.56ZM540.04 414.48H541.32V426H540.04V414.48ZM550.151 414.48V426H548.887V424.64C548.359 425.488 547.543 426.16 546.487 426.16C544.535 426.16 543.031 424.528 543.031 422.272C543.031 420.112 544.471 418.4 546.471 418.4C547.543 418.4 548.343 419.024 548.871 419.824V414.48H550.151ZM546.567 425.072C547.959 425.072 548.983 423.76 548.983 422.288C548.983 420.688 547.975 419.504 546.551 419.504C545.303 419.504 544.359 420.64 544.359 422.272C544.359 423.904 545.271 425.072 546.567 425.072ZM478.815 442C478.479 441.552 478.223 441.056 478.111 440.384C477.679 441.392 476.911 442.16 475.567 442.16C474.159 442.16 473.311 441.008 473.311 439.84C473.311 438.48 474.191 437.84 476.159 437.632C476.831 437.568 477.455 437.456 477.903 437.168V436.832C477.903 435.648 477.023 435.504 476.223 435.504C475.263 435.504 474.271 436.032 474.655 437.232L473.311 436.864C473.103 435.024 474.895 434.4 476.271 434.4C477.727 434.4 479.167 434.864 479.167 436.768V439.2C479.167 440.704 479.951 441.568 480.271 442H478.815ZM475.807 441.04C476.783 441.04 477.759 440.16 477.951 438.208C477.551 438.448 477.023 438.608 476.351 438.704C475.231 438.864 474.623 439.04 474.623 439.872C474.623 440.48 475.055 441.04 475.807 441.04ZM485.326 434.4C486.542 434.4 488.046 435.12 488.046 437.104V442H486.766V437.344C486.766 436.096 486.142 435.536 485.15 435.536C484.318 435.536 483.582 436 483.166 436.832C482.894 437.376 482.814 437.92 482.814 438.848V442H481.534V434.56H482.798V435.984C483.262 435.072 484.03 434.4 485.326 434.4ZM496.862 430.48V442H495.598V440.64C495.07 441.488 494.254 442.16 493.198 442.16C491.246 442.16 489.742 440.528 489.742 438.272C489.742 436.112 491.182 434.4 493.182 434.4C494.254 434.4 495.054 435.024 495.582 435.824V430.48H496.862ZM493.278 441.072C494.67 441.072 495.694 439.76 495.694 438.288C495.694 436.688 494.686 435.504 493.262 435.504C492.014 435.504 491.07 436.64 491.07 438.272C491.07 439.904 491.982 441.072 493.278 441.072ZM509.55 430.48V442H508.286V440.64C507.758 441.488 506.942 442.16 505.886 442.16C503.934 442.16 502.43 440.528 502.43 438.272C502.43 436.112 503.87 434.4 505.87 434.4C506.942 434.4 507.742 435.024 508.27 435.824V430.48H509.55ZM505.966 441.072C507.358 441.072 508.382 439.76 508.382 438.288C508.382 436.688 507.374 435.504 505.95 435.504C504.702 435.504 503.758 436.64 503.758 438.272C503.758 439.904 504.67 441.072 505.966 441.072ZM515.001 434.4C517.017 434.4 518.393 435.664 518.281 437.776L518.249 438.32H512.665C512.665 439.952 513.561 441.04 514.889 441.04C515.945 441.04 516.681 440.448 516.777 439.184L518.057 439.632C517.641 441.392 516.537 442.16 514.873 442.16C512.697 442.16 511.369 440.512 511.369 438.368C511.369 435.744 512.921 434.4 515.001 434.4ZM515.033 435.488C513.993 435.488 513.129 436.032 512.809 437.232H517.017C516.873 435.84 515.913 435.488 515.033 435.488ZM523.729 434.4C525.729 434.4 527.169 436.112 527.169 438.272C527.169 440.528 525.665 442.16 523.713 442.16C522.673 442.16 521.857 441.488 521.329 440.656V445.2H520.049V434.56H521.313V435.856C521.841 435.04 522.641 434.4 523.729 434.4ZM523.633 441.072C524.929 441.072 525.841 439.904 525.841 438.272C525.841 436.64 524.897 435.504 523.649 435.504C522.193 435.504 521.217 436.72 521.217 438.288C521.217 439.808 522.273 441.072 523.633 441.072ZM528.876 430.48H530.156V442H528.876V430.48ZM535.595 442.16C533.435 442.16 531.899 440.48 531.899 438.272C531.899 436.016 533.387 434.4 535.595 434.4C537.803 434.4 539.291 436.016 539.291 438.272C539.291 440.48 537.755 442.16 535.595 442.16ZM535.595 441.04C536.923 441.04 537.963 439.888 537.963 438.224C537.963 436.592 536.923 435.52 535.595 435.52C534.267 435.52 533.227 436.592 533.227 438.224C533.227 439.888 534.267 441.04 535.595 441.04ZM547.205 434.56L544.213 442C543.685 443.312 543.109 444.976 540.805 445.36L540.261 444.288C542.245 443.904 542.357 443.168 542.917 442L539.909 434.56H541.349L543.557 440.56L545.749 434.56H547.205Z" fill="white"/>
<path d="M510 284L560 370.604H460L510 284Z" fill="white"/>
<path d="M475.657 122.12C475.961 119.192 474.025 118.808 472.777 118.808C471.449 118.808 470.265 119.4 470.265 120.616C470.265 121.432 470.857 121.832 472.009 122.248C473.065 122.632 473.721 122.824 474.521 123.096C475.977 123.592 476.857 124.36 476.857 125.8C476.857 127.384 475.513 129.16 472.921 129.16C470.825 129.16 468.361 127.912 468.489 124.088L469.817 123.864C469.545 126.664 471.129 127.992 472.985 127.992C474.409 127.992 475.529 127.064 475.529 125.864C475.529 124.904 474.969 124.552 473.945 124.2L471.369 123.336C469.913 122.856 468.969 121.944 468.969 120.616C468.969 118.856 470.777 117.64 472.809 117.64C474.969 117.64 477.209 118.856 476.953 121.864L475.657 122.12ZM484.725 126.312C484.629 128.92 483.237 129.16 482.293 129.16C481.013 129.16 480.053 128.296 480.053 126.84V122.696H478.261V121.56H480.053V118.904L481.333 117.32V121.56H484.357V122.696H481.333V126.824C481.333 127.656 481.733 128.008 482.421 128.008C483.157 128.008 483.541 127.368 483.413 126.168L484.725 126.312ZM489.81 121.4C491.842 121.4 492.754 123.112 491.906 125.352H490.514C491.25 123.688 490.882 122.552 489.57 122.552C488.466 122.552 487.682 123.608 487.682 126.024V129H486.402V121.56H487.682V122.792C488.114 121.992 488.802 121.4 489.81 121.4ZM499.088 129C498.752 128.552 498.496 128.056 498.384 127.384C497.952 128.392 497.184 129.16 495.84 129.16C494.432 129.16 493.584 128.008 493.584 126.84C493.584 125.48 494.464 124.84 496.432 124.632C497.104 124.568 497.728 124.456 498.176 124.168V123.832C498.176 122.648 497.296 122.504 496.496 122.504C495.536 122.504 494.544 123.032 494.928 124.232L493.584 123.864C493.376 122.024 495.168 121.4 496.544 121.4C498 121.4 499.44 121.864 499.44 123.768V126.2C499.44 127.704 500.224 128.568 500.544 129H499.088ZM496.08 128.04C497.056 128.04 498.032 127.16 498.224 125.208C497.824 125.448 497.296 125.608 496.624 125.704C495.504 125.864 494.896 126.04 494.896 126.872C494.896 127.48 495.328 128.04 496.08 128.04ZM505.456 121.4C507.456 121.4 508.896 123.112 508.896 125.272C508.896 127.528 507.392 129.16 505.44 129.16C504.4 129.16 503.584 128.488 503.056 127.656V132.2H501.776V121.56H503.04V122.856C503.568 122.04 504.368 121.4 505.456 121.4ZM505.36 128.072C506.656 128.072 507.568 126.904 507.568 125.272C507.568 123.64 506.624 122.504 505.376 122.504C503.92 122.504 502.944 123.72 502.944 125.288C502.944 126.808 504 128.072 505.36 128.072ZM511.371 119.144C510.843 119.144 510.443 118.744 510.443 118.216C510.443 117.72 510.843 117.32 511.371 117.32C511.883 117.32 512.283 117.72 512.283 118.216C512.283 118.744 511.883 119.144 511.371 119.144ZM510.715 121.56H512.011V129H510.715V121.56ZM527.977 124.728C527.449 128.056 525.273 129.16 523.129 129.16C520.153 129.16 517.753 126.872 517.753 123.4C517.753 119.928 520.169 117.64 523.193 117.64C525.721 117.64 527.801 118.888 528.361 121.832L527.033 122.232C526.665 119.736 525.049 118.84 523.225 118.84C520.921 118.84 519.097 120.648 519.097 123.384C519.097 126.232 521.001 127.96 523.145 127.96C524.585 127.96 526.377 127.112 526.665 124.328L527.977 124.728ZM541.019 117.8V129H539.739V119.784L536.235 128.088H534.859L531.355 119.752V129H530.075V117.8H531.819L535.563 126.52L539.291 117.8H541.019ZM550.235 122.12C550.539 119.192 548.603 118.808 547.355 118.808C546.027 118.808 544.843 119.4 544.843 120.616C544.843 121.432 545.435 121.832 546.587 122.248C547.643 122.632 548.299 122.824 549.099 123.096C550.555 123.592 551.435 124.36 551.435 125.8C551.435 127.384 550.091 129.16 547.499 129.16C545.403 129.16 542.939 127.912 543.067 124.088L544.395 123.864C544.123 126.664 545.707 127.992 547.563 127.992C548.987 127.992 550.107 127.064 550.107 125.864C550.107 124.904 549.547 124.552 548.523 124.2L545.947 123.336C544.491 122.856 543.547 121.944 543.547 120.616C543.547 118.856 545.355 117.64 547.387 117.64C549.547 117.64 551.787 118.856 551.531 121.864L550.235 122.12ZM505.361 140.92H501.009L499.489 145H498.097L502.465 133.8H503.905L508.273 145H506.881L505.361 140.92ZM504.913 139.72L503.185 135.08L501.457 139.72H504.913ZM514.525 133.8C516.557 133.8 518.077 134.936 518.077 136.824C518.077 138.728 516.557 139.912 514.525 139.912H510.925V145H509.645V133.8H514.525ZM514.381 138.712C516.285 138.712 516.733 137.704 516.733 136.824C516.733 135.944 516.285 135 514.381 135H510.925V138.712H514.381ZM519.789 133.8H521.069V145H519.789V133.8Z" fill="white"/>
<g clip-path="url(#clip1_10_587)">
<path d="M555.426 100H512.447C511.234 100 510.07 99.5181 509.212 98.6602C508.354 97.8023 507.872 96.6388 507.872 95.4255V52.5745C507.872 51.3274 508.368 50.1314 509.25 49.2496C510.131 48.3677 511.327 47.8723 512.574 47.8723H555.298C556.545 47.8723 557.741 48.3677 558.623 49.2496C559.505 50.1314 560 51.3274 560 52.5745V95.4255C560 96.6388 559.518 97.8023 558.66 98.6602C557.802 99.5181 556.639 100 555.426 100V100ZM512.574 52.1277C512.458 52.1329 512.347 52.1816 512.264 52.2643C512.182 52.347 512.133 52.4576 512.128 52.5745V95.4255C512.128 95.5102 512.161 95.5914 512.221 95.6512C512.281 95.7111 512.362 95.7447 512.447 95.7447H555.426C555.51 95.7447 555.591 95.7111 555.651 95.6512C555.711 95.5914 555.745 95.5102 555.745 95.4255V52.5745C555.739 52.4576 555.691 52.347 555.608 52.2643C555.525 52.1816 555.415 52.1329 555.298 52.1277H512.574Z" fill="white"/>
<path d="M503.872 76.0638H486.596C485.975 76.0555 485.363 75.9251 484.793 75.68C484.223 75.4349 483.707 75.0799 483.274 74.6354C482.842 74.1908 482.501 73.6654 482.271 73.0891C482.042 72.5128 481.928 71.8969 481.936 71.2766V28.7234C481.928 28.1031 482.042 27.4872 482.271 26.9109C482.501 26.3346 482.842 25.8092 483.274 25.3646C483.707 24.9201 484.223 24.5651 484.793 24.32C485.363 24.0749 485.975 23.9445 486.596 23.9362H529.362C529.986 23.9361 530.605 24.0604 531.181 24.302C531.757 24.5437 532.279 24.8976 532.717 25.3433C533.155 25.789 533.499 26.3175 533.731 26.8978C533.962 27.4782 534.075 28.0988 534.064 28.7234V44.1064H529.809V28.7234C529.809 28.6049 529.761 28.4912 529.678 28.4074C529.594 28.3237 529.48 28.2766 529.362 28.2766H486.596C486.475 28.2765 486.359 28.3228 486.272 28.4061C486.185 28.4893 486.133 28.603 486.128 28.7234V71.2766C486.133 71.397 486.185 71.5107 486.272 71.5939C486.359 71.6771 486.475 71.7235 486.596 71.7234H503.809L503.872 76.0638Z" fill="white"/>
<path d="M478.085 52.1277H464.702C464.085 52.1277 463.473 52.006 462.903 51.7697C462.332 51.5334 461.814 51.1871 461.377 50.7504C460.941 50.3138 460.594 49.7954 460.358 49.225C460.122 48.6545 460 48.043 460 47.4255V4.70213C460 3.45505 460.495 2.25904 461.377 1.37722C462.259 0.495401 463.455 0 464.702 0H507.426C508.043 0 508.654 0.121624 509.225 0.357928C509.795 0.594232 510.314 0.940588 510.75 1.37722C511.187 1.81385 511.533 2.33221 511.77 2.9027C512.006 3.47319 512.128 4.08464 512.128 4.70213V20.0851H507.872V4.70213C507.867 4.5853 507.818 4.47465 507.736 4.39196C507.653 4.30926 507.542 4.26052 507.426 4.25532H464.702C464.585 4.26052 464.475 4.30926 464.392 4.39196C464.309 4.47465 464.261 4.5853 464.255 4.70213V47.4255C464.261 47.5424 464.309 47.653 464.392 47.7357C464.475 47.8184 464.585 47.8671 464.702 47.8723H478.085V52.1277Z" fill="white"/>
</g>
<path d="M254.258 423.728C253.73 427.056 251.554 428.16 249.41 428.16C246.434 428.16 244.034 425.872 244.034 422.4C244.034 418.928 246.45 416.64 249.474 416.64C252.002 416.64 254.082 417.888 254.642 420.832L253.314 421.232C252.946 418.736 251.33 417.84 249.506 417.84C247.202 417.84 245.378 419.648 245.378 422.384C245.378 425.232 247.282 426.96 249.426 426.96C250.866 426.96 252.658 426.112 252.946 423.328L254.258 423.728ZM256.196 416.48H257.476V428H256.196V416.48ZM262.916 428.16C260.756 428.16 259.22 426.48 259.22 424.272C259.22 422.016 260.708 420.4 262.916 420.4C265.124 420.4 266.612 422.016 266.612 424.272C266.612 426.48 265.076 428.16 262.916 428.16ZM262.916 427.04C264.244 427.04 265.284 425.888 265.284 424.224C265.284 422.592 264.244 421.52 262.916 421.52C261.588 421.52 260.548 422.592 260.548 424.224C260.548 425.888 261.588 427.04 262.916 427.04ZM274.565 420.56V428H273.317V426.56C272.853 427.472 272.085 428.16 270.789 428.16C269.557 428.16 268.069 427.44 268.069 425.456V420.56H269.349V425.216C269.349 426.464 269.989 427.024 270.949 427.024C271.797 427.024 272.533 426.56 272.949 425.728C273.221 425.184 273.285 424.64 273.285 423.712V420.56H274.565ZM283.495 416.48V428H282.231V426.64C281.703 427.488 280.887 428.16 279.831 428.16C277.879 428.16 276.375 426.528 276.375 424.272C276.375 422.112 277.815 420.4 279.815 420.4C280.887 420.4 281.687 421.024 282.215 421.824V416.48H283.495ZM279.911 427.072C281.303 427.072 282.327 425.76 282.327 424.288C282.327 422.688 281.319 421.504 279.895 421.504C278.647 421.504 277.703 422.64 277.703 424.272C277.703 425.904 278.615 427.072 279.911 427.072ZM287.922 420.56H290.002V421.712H287.922V428H286.642V421.712H285.138V420.56H286.642V419.024C286.642 417.632 287.346 416.32 289.41 416.32C289.714 416.32 289.986 416.368 290.066 416.4L289.97 417.584C289.778 417.52 289.458 417.504 289.154 417.536C288.066 417.648 287.922 418.352 287.922 419.168V420.56ZM291.712 416.48H292.992V428H291.712V416.48ZM300.463 428C300.127 427.552 299.871 427.056 299.759 426.384C299.327 427.392 298.559 428.16 297.215 428.16C295.807 428.16 294.959 427.008 294.959 425.84C294.959 424.48 295.839 423.84 297.807 423.632C298.479 423.568 299.103 423.456 299.551 423.168V422.832C299.551 421.648 298.671 421.504 297.871 421.504C296.911 421.504 295.919 422.032 296.303 423.232L294.959 422.864C294.751 421.024 296.543 420.4 297.919 420.4C299.375 420.4 300.815 420.864 300.815 422.768V425.2C300.815 426.704 301.599 427.568 301.919 428H300.463ZM297.455 427.04C298.431 427.04 299.407 426.16 299.599 424.208C299.199 424.448 298.671 424.608 297.999 424.704C296.879 424.864 296.271 425.04 296.271 425.872C296.271 426.48 296.703 427.04 297.455 427.04ZM306.591 420.4C308.623 420.4 309.535 422.112 308.687 424.352H307.295C308.031 422.688 307.663 421.552 306.351 421.552C305.247 421.552 304.463 422.608 304.463 425.024V428H303.183V420.56H304.463V421.792C304.895 420.992 305.583 420.4 306.591 420.4ZM313.806 420.4C315.822 420.4 317.198 421.664 317.086 423.776L317.054 424.32H311.47C311.47 425.952 312.366 427.04 313.694 427.04C314.75 427.04 315.486 426.448 315.582 425.184L316.862 425.632C316.446 427.392 315.342 428.16 313.678 428.16C311.502 428.16 310.174 426.512 310.174 424.368C310.174 421.744 311.726 420.4 313.806 420.4ZM313.838 421.488C312.798 421.488 311.934 422.032 311.614 423.232H315.822C315.678 421.84 314.718 421.488 313.838 421.488ZM269.235 432.8C272.851 432.8 274.691 435.152 274.691 438.288C274.691 441.52 272.515 444 269.187 444H265.395V432.8H269.235ZM269.219 442.8C271.843 442.8 273.347 440.688 273.347 438.256C273.347 435.872 272.067 434 269.427 434H266.675V442.8H269.219ZM285.464 432.8V444H283.72L277.832 434.528V444H276.552V432.8H278.264L284.184 442.48V432.8H285.464ZM294.68 437.12C294.984 434.192 293.048 433.808 291.8 433.808C290.472 433.808 289.288 434.4 289.288 435.616C289.288 436.432 289.88 436.832 291.032 437.248C292.088 437.632 292.744 437.824 293.544 438.096C295 438.592 295.88 439.36 295.88 440.8C295.88 442.384 294.536 444.16 291.944 444.16C289.848 444.16 287.384 442.912 287.512 439.088L288.84 438.864C288.568 441.664 290.152 442.992 292.008 442.992C293.432 442.992 294.552 442.064 294.552 440.864C294.552 439.904 293.992 439.552 292.968 439.2L290.392 438.336C288.936 437.856 287.992 436.944 287.992 435.616C287.992 433.856 289.8 432.64 291.832 432.64C293.992 432.64 296.232 433.856 295.976 436.864L294.68 437.12Z" fill="white"/>
<path d="M313.163 373.844H250.698C245.744 373.909 240.953 372.084 237.297 368.741C233.642 365.398 231.398 360.787 231.022 355.848C231.022 355.328 231.022 354.808 231.022 354.288C230.82 350.199 232.001 346.161 234.373 342.824C236.745 339.488 240.171 337.046 244.099 335.893C244.099 335.333 244.099 334.773 244.099 334.253C244.243 329.207 245.775 324.298 248.526 320.065C251.278 315.832 255.142 312.439 259.695 310.259C264.622 308.066 270.107 307.451 275.397 308.496C280.687 309.541 285.525 312.196 289.248 316.097C291.792 318.689 293.839 321.725 295.287 325.055C296.74 323.851 298.463 323.018 300.309 322.627C302.155 322.237 304.069 322.302 305.884 322.816C308.55 323.753 310.873 325.471 312.549 327.747C314.225 330.022 315.177 332.749 315.282 335.573C319.72 336.334 323.74 338.653 326.621 342.113C329.502 345.573 331.054 349.947 330.999 354.448C330.999 372.164 313.363 373.804 313.163 373.844ZM246.499 339.172C243.097 339.91 240.072 341.838 237.968 344.61C235.863 347.382 234.818 350.814 235.021 354.288C235.021 354.728 235.021 355.168 235.021 355.608C235.357 359.585 237.2 363.283 240.174 365.945C243.148 368.607 247.028 370.031 251.017 369.925H313.363C317.258 369.583 320.883 367.793 323.525 364.91C326.166 362.027 327.631 358.259 327.631 354.348C327.631 350.438 326.166 346.67 323.525 343.787C320.883 340.903 317.258 339.114 313.363 338.772C313.118 338.733 312.884 338.646 312.673 338.517C312.462 338.387 312.279 338.217 312.134 338.016C311.989 337.816 311.886 337.588 311.829 337.347C311.772 337.107 311.763 336.857 311.803 336.613C311.879 334.401 311.271 332.219 310.061 330.365C308.852 328.512 307.1 327.076 305.045 326.255C303.453 325.816 301.765 325.88 300.211 326.438C298.657 326.997 297.314 328.022 296.367 329.374C296.159 329.657 295.877 329.877 295.553 330.011C295.229 330.145 294.874 330.188 294.527 330.134C294.184 330.072 293.864 329.921 293.597 329.696C293.331 329.472 293.127 329.182 293.008 328.854C291.612 325.064 289.385 321.634 286.489 318.817C283.312 315.458 279.169 313.169 274.634 312.266C270.1 311.363 265.397 311.892 261.175 313.778C257.304 315.708 254.026 318.648 251.689 322.287C249.352 325.927 248.042 330.13 247.898 334.453C247.839 335.385 247.839 336.32 247.898 337.252C247.958 337.732 247.835 338.217 247.554 338.61C247.272 339.003 246.852 339.275 246.379 339.372L246.499 339.172Z" fill="white"/>
<path d="M697.291 418.8C699.323 418.8 700.843 419.936 700.843 421.824C700.843 423.728 699.323 424.912 697.291 424.912H693.691V430H692.411V418.8H697.291ZM697.147 423.712C699.051 423.712 699.499 422.704 699.499 421.824C699.499 420.944 699.051 420 697.147 420H693.691V423.712H697.147ZM702.863 420.144C702.335 420.144 701.935 419.744 701.935 419.216C701.935 418.72 702.335 418.32 702.863 418.32C703.375 418.32 703.775 418.72 703.775 419.216C703.775 419.744 703.375 420.144 702.863 420.144ZM702.207 422.56H703.503V430H702.207V422.56ZM709.576 422.4C710.792 422.4 712.296 423.12 712.296 425.104V430H711.016V425.344C711.016 424.096 710.392 423.536 709.4 423.536C708.568 423.536 707.832 424 707.416 424.832C707.144 425.376 707.064 425.92 707.064 426.848V430H705.784V422.56H707.048V423.984C707.512 423.072 708.28 422.4 709.576 422.4ZM718.104 422.4C720.104 422.4 721.544 424.112 721.544 426.272C721.544 428.528 720.04 430.16 718.088 430.16C717.048 430.16 716.232 429.488 715.704 428.656V433.2H714.424V422.56H715.688V423.856C716.216 423.04 717.016 422.4 718.104 422.4ZM718.008 429.072C719.304 429.072 720.216 427.904 720.216 426.272C720.216 424.64 719.272 423.504 718.024 423.504C716.568 423.504 715.592 424.72 715.592 426.288C715.592 427.808 716.648 429.072 718.008 429.072ZM726.611 430.16C724.451 430.16 722.915 428.48 722.915 426.272C722.915 424.016 724.403 422.4 726.611 422.4C728.819 422.4 730.307 424.016 730.307 426.272C730.307 428.48 728.771 430.16 726.611 430.16ZM726.611 429.04C727.939 429.04 728.979 427.888 728.979 426.224C728.979 424.592 727.939 423.52 726.611 423.52C725.283 423.52 724.243 424.592 724.243 426.224C724.243 427.888 725.283 429.04 726.611 429.04ZM732.816 420.144C732.288 420.144 731.888 419.744 731.888 419.216C731.888 418.72 732.288 418.32 732.816 418.32C733.328 418.32 733.728 418.72 733.728 419.216C733.728 419.744 733.328 420.144 732.816 420.144ZM732.16 422.56H733.456V430H732.16V422.56ZM739.53 422.4C740.746 422.4 742.25 423.12 742.25 425.104V430H740.97V425.344C740.97 424.096 740.346 423.536 739.354 423.536C738.522 423.536 737.786 424 737.37 424.832C737.098 425.376 737.018 425.92 737.018 426.848V430H735.738V422.56H737.002V423.984C737.466 423.072 738.234 422.4 739.53 422.4ZM749.905 427.312C749.809 429.92 748.417 430.16 747.473 430.16C746.193 430.16 745.233 429.296 745.233 427.84V423.696H743.441V422.56H745.233V419.904L746.513 418.32V422.56H749.537V423.696H746.513V427.824C746.513 428.656 746.913 429.008 747.601 429.008C748.337 429.008 748.721 428.368 748.593 427.168L749.905 427.312ZM758.626 430.16C756.802 430.16 754.754 428.896 754.754 426.208C754.754 424.912 755.41 423.792 755.874 423.136L757.218 423.568C756.674 424.16 756.082 425.088 756.082 426.208C756.082 427.92 757.186 428.96 758.658 428.96C760.178 428.96 761.33 427.952 761.33 425.68V418.8H762.626V425.712C762.626 429.472 760.13 430.16 758.626 430.16ZM768.142 430.16C765.982 430.16 764.446 428.48 764.446 426.272C764.446 424.016 765.934 422.4 768.142 422.4C770.35 422.4 771.838 424.016 771.838 426.272C771.838 428.48 770.302 430.16 768.142 430.16ZM768.142 429.04C769.47 429.04 770.51 427.888 770.51 426.224C770.51 424.592 769.47 423.52 768.142 423.52C766.814 423.52 765.774 424.592 765.774 426.224C765.774 427.888 766.814 429.04 768.142 429.04ZM777.323 422.4C779.323 422.4 780.763 424.112 780.763 426.272C780.763 428.528 779.259 430.16 777.307 430.16C776.251 430.16 775.435 429.488 774.907 428.64V430H773.643V418.48H774.923V423.824C775.451 423.024 776.251 422.4 777.323 422.4ZM777.227 429.072C778.523 429.072 779.435 427.904 779.435 426.272C779.435 424.64 778.491 423.504 777.243 423.504C775.787 423.504 774.811 424.72 774.811 426.288C774.811 427.808 775.867 429.072 777.227 429.072ZM786.934 425.136C787.094 424.048 786.214 423.488 785.142 423.488C784.118 423.488 783.542 423.968 783.542 424.48C783.542 424.896 783.846 425.136 784.326 425.296C785.158 425.584 785.67 425.664 786.39 425.92C787.222 426.208 787.91 426.752 787.91 427.84C787.91 428.992 786.95 430.16 785.078 430.16C783.318 430.16 782.118 429.184 782.07 427.536L783.366 427.232C783.238 428.304 783.91 429.04 785.046 429.04C786.118 429.04 786.598 428.464 786.598 427.856C786.598 427.36 786.262 427.12 785.686 426.944C785.094 426.768 784.47 426.64 783.782 426.368C782.79 425.984 782.246 425.392 782.246 424.464C782.246 423.312 783.59 422.4 785.142 422.4C786.582 422.4 788.102 423.008 788.23 424.88L786.934 425.136ZM735.361 441.92H731.009L729.489 446H728.097L732.465 434.8H733.905L738.273 446H736.881L735.361 441.92ZM734.913 440.72L733.185 436.08L731.457 440.72H734.913ZM744.525 434.8C746.557 434.8 748.077 435.936 748.077 437.824C748.077 439.728 746.557 440.912 744.525 440.912H740.925V446H739.645V434.8H744.525ZM744.381 439.712C746.285 439.712 746.733 438.704 746.733 437.824C746.733 436.944 746.285 436 744.381 436H740.925V439.712H744.381ZM749.789 434.8H751.069V446H749.789V434.8Z" fill="white"/>
<g clip-path="url(#clip2_10_587)">
<path d="M785.426 401H742.447C741.234 401 740.07 400.518 739.212 399.66C738.354 398.802 737.872 397.639 737.872 396.426V353.574C737.872 352.327 738.368 351.131 739.25 350.25C740.131 349.368 741.327 348.872 742.574 348.872H785.298C786.545 348.872 787.741 349.368 788.623 350.25C789.505 351.131 790 352.327 790 353.574V396.426C790 397.639 789.518 398.802 788.66 399.66C787.802 400.518 786.639 401 785.426 401V401ZM742.574 353.128C742.458 353.133 742.347 353.182 742.264 353.264C742.182 353.347 742.133 353.458 742.128 353.574V396.426C742.128 396.51 742.161 396.591 742.221 396.651C742.281 396.711 742.362 396.745 742.447 396.745H785.426C785.51 396.745 785.591 396.711 785.651 396.651C785.711 396.591 785.745 396.51 785.745 396.426V353.574C785.739 353.458 785.691 353.347 785.608 353.264C785.525 353.182 785.415 353.133 785.298 353.128H742.574Z" fill="white"/>
<path d="M733.872 377.064H716.596C715.975 377.056 715.363 376.925 714.793 376.68C714.223 376.435 713.707 376.08 713.274 375.635C712.842 375.191 712.501 374.665 712.271 374.089C712.042 373.513 711.928 372.897 711.936 372.277V329.723C711.928 329.103 712.042 328.487 712.271 327.911C712.501 327.335 712.842 326.809 713.274 326.365C713.707 325.92 714.223 325.565 714.793 325.32C715.363 325.075 715.975 324.944 716.596 324.936H759.362C759.986 324.936 760.605 325.06 761.181 325.302C761.757 325.544 762.279 325.898 762.717 326.343C763.155 326.789 763.499 327.317 763.731 327.898C763.962 328.478 764.075 329.099 764.064 329.723V345.106H759.809V329.723C759.809 329.605 759.761 329.491 759.678 329.407C759.594 329.324 759.48 329.277 759.362 329.277H716.596C716.475 329.276 716.359 329.323 716.272 329.406C716.185 329.489 716.133 329.603 716.128 329.723V372.277C716.133 372.397 716.185 372.511 716.272 372.594C716.359 372.677 716.475 372.724 716.596 372.723H733.809L733.872 377.064Z" fill="white"/>
<path d="M708.085 353.128H694.702C694.085 353.128 693.473 353.006 692.903 352.77C692.332 352.533 691.814 352.187 691.377 351.75C690.941 351.314 690.594 350.795 690.358 350.225C690.122 349.654 690 349.043 690 348.426V305.702C690 304.455 690.495 303.259 691.377 302.377C692.259 301.495 693.455 301 694.702 301H737.426C738.043 301 738.654 301.122 739.225 301.358C739.795 301.594 740.314 301.941 740.75 302.377C741.187 302.814 741.533 303.332 741.77 303.903C742.006 304.473 742.128 305.085 742.128 305.702V321.085H737.872V305.702C737.867 305.585 737.818 305.475 737.736 305.392C737.653 305.309 737.542 305.261 737.426 305.255H694.702C694.585 305.261 694.475 305.309 694.392 305.392C694.309 305.475 694.261 305.585 694.255 305.702V348.426C694.261 348.542 694.309 348.653 694.392 348.736C694.475 348.818 694.585 348.867 694.702 348.872H708.085V353.128Z" fill="white"/>
</g>
<defs>
<clipPath id="clip0_10_587">
<rect width="100" height="100" fill="white" transform="translate(0 301)"/>
</clipPath>
<clipPath id="clip1_10_587">
<rect width="100" height="100" fill="white" transform="translate(460)"/>
</clipPath>
<clipPath id="clip2_10_587">
<rect width="100" height="100" fill="white" transform="translate(690 301)"/>
</clipPath>
</defs>
</svg>
