<svg width="801" height="716" viewBox="0 0 801 716" fill="none" xmlns="http://www.w3.org/2000/svg">
<path d="M26.3268 407.8C28.7908 407.8 29.7668 409.352 29.7668 410.696C29.7668 412.232 28.6948 413.16 27.2868 413.496C28.1668 413.96 28.6308 414.776 28.6308 415.752C28.6308 417.56 27.2388 419 24.7908 419H20.5828V407.8H26.3268ZM26.0228 412.6C27.7508 412.6 28.4548 411.784 28.4548 410.712C28.4548 409.688 27.7028 409 26.3428 409H21.8628V412.6H26.0228ZM24.8708 417.8C26.5348 417.8 27.3028 416.776 27.3028 415.704C27.3028 414.472 26.4548 413.768 24.9988 413.768H21.8628V417.8H24.8708ZM34.6924 411.4C36.7244 411.4 37.6364 413.112 36.7884 415.352H35.3964C36.1324 413.688 35.7644 412.552 34.4524 412.552C33.3484 412.552 32.5644 413.608 32.5644 416.024V419H31.2844V411.56H32.5644V412.792C32.9964 411.992 33.6844 411.4 34.6924 411.4ZM41.9391 419.16C39.7791 419.16 38.2431 417.48 38.2431 415.272C38.2431 413.016 39.7311 411.4 41.9391 411.4C44.1471 411.4 45.6351 413.016 45.6351 415.272C45.6351 417.48 44.0991 419.16 41.9391 419.16ZM41.9391 418.04C43.2671 418.04 44.3071 416.888 44.3071 415.224C44.3071 413.592 43.2671 412.52 41.9391 412.52C40.6111 412.52 39.5711 413.592 39.5711 415.224C39.5711 416.888 40.6111 418.04 41.9391 418.04ZM57.4154 411.56L55.4794 419H53.8634L51.9754 413.528L50.0714 419H48.4394L46.5034 411.56H47.8794L49.3034 417.672L51.2074 412.12H52.7114L54.6154 417.672L56.0554 411.56H57.4154ZM63.0587 414.136C63.2187 413.048 62.3387 412.488 61.2667 412.488C60.2427 412.488 59.6667 412.968 59.6667 413.48C59.6667 413.896 59.9707 414.136 60.4507 414.296C61.2827 414.584 61.7947 414.664 62.5147 414.92C63.3467 415.208 64.0347 415.752 64.0347 416.84C64.0347 417.992 63.0747 419.16 61.2027 419.16C59.4427 419.16 58.2427 418.184 58.1947 416.536L59.4907 416.232C59.3627 417.304 60.0347 418.04 61.1707 418.04C62.2427 418.04 62.7227 417.464 62.7227 416.856C62.7227 416.36 62.3867 416.12 61.8107 415.944C61.2187 415.768 60.5947 415.64 59.9067 415.368C58.9147 414.984 58.3707 414.392 58.3707 413.464C58.3707 412.312 59.7147 411.4 61.2667 411.4C62.7067 411.4 64.2267 412.008 64.3547 413.88L63.0587 414.136ZM69.2821 411.4C71.2981 411.4 72.6741 412.664 72.5621 414.776L72.5301 415.32H66.9461C66.9461 416.952 67.8421 418.04 69.1701 418.04C70.2261 418.04 70.9621 417.448 71.0581 416.184L72.3381 416.632C71.9221 418.392 70.8181 419.16 69.1541 419.16C66.9781 419.16 65.6501 417.512 65.6501 415.368C65.6501 412.744 67.2021 411.4 69.2821 411.4ZM69.3141 412.488C68.2741 412.488 67.4101 413.032 67.0901 414.232H71.2981C71.1541 412.84 70.1941 412.488 69.3141 412.488ZM77.7706 411.4C79.8026 411.4 80.7146 413.112 79.8666 415.352H78.4746C79.2106 413.688 78.8426 412.552 77.5306 412.552C76.4266 412.552 75.6426 413.608 75.6426 416.024V419H74.3626V411.56H75.6426V412.792C76.0746 411.992 76.7626 411.4 77.7706 411.4Z" fill="white"/>
<path d="M215.707 335.707C216.098 335.317 216.098 334.683 215.707 334.293L209.343 327.929C208.953 327.538 208.319 327.538 207.929 327.929C207.538 328.319 207.538 328.953 207.929 329.343L213.586 335L207.929 340.657C207.538 341.047 207.538 341.681 207.929 342.071C208.319 342.462 208.953 342.462 209.343 342.071L215.707 335.707ZM115 336H215V334H115V336Z" fill="white"/>
<path d="M445.707 335.707C446.098 335.317 446.098 334.683 445.707 334.293L439.343 327.929C438.953 327.538 438.319 327.538 437.929 327.929C437.538 328.319 437.538 328.953 437.929 329.343L443.586 335L437.929 340.657C437.538 341.047 437.538 341.681 437.929 342.071C438.319 342.462 438.953 342.462 439.343 342.071L445.707 335.707ZM345 336H445V334H345V336Z" fill="white"/>
<path d="M445.707 615.707C446.098 615.317 446.098 614.683 445.707 614.293L439.343 607.929C438.953 607.538 438.319 607.538 437.929 607.929C437.538 608.319 437.538 608.953 437.929 609.343L443.586 615L437.929 620.657C437.538 621.047 437.538 621.681 437.929 622.071C438.319 622.462 438.953 622.462 439.343 622.071L445.707 615.707ZM345 616H445V614H345V616Z" fill="white"/>
<path d="M509.293 258.707C509.683 259.098 510.317 259.098 510.707 258.707L517.071 252.343C517.462 251.953 517.462 251.319 517.071 250.929C516.681 250.538 516.047 250.538 515.657 250.929L510 256.586L504.343 250.929C503.953 250.538 503.319 250.538 502.929 250.929C502.538 251.319 502.538 251.953 502.929 252.343L509.293 258.707ZM509 158L509 258L511 258L511 158L509 158Z" fill="white"/>
<path d="M574.293 334.293C573.902 334.683 573.902 335.317 574.293 335.707L580.657 342.071C581.047 342.462 581.681 342.462 582.071 342.071C582.462 341.681 582.462 341.047 582.071 340.657L576.414 335L582.071 329.343C582.462 328.953 582.462 328.319 582.071 327.929C581.681 327.538 581.047 327.538 580.657 327.929L574.293 334.293ZM625 334H575V336H625V334Z" fill="white"/>
<path d="M510.707 449.293C510.317 448.902 509.683 448.902 509.293 449.293L502.929 455.657C502.538 456.047 502.538 456.681 502.929 457.071C503.319 457.462 503.953 457.462 504.343 457.071L510 451.414L515.657 457.071C516.047 457.462 516.681 457.462 517.071 457.071C517.462 456.681 517.462 456.047 517.071 455.657L510.707 449.293ZM511 550L511 450L509 450L509 550L511 550Z" fill="white"/>
<g clip-path="url(#clip0_43_190)">
<path d="M100 390H85.4168V385.833H97.9168V294.167H2.08348V385.833H85.4168V390H0.000142105C-0.552392 390 -1.0823 389.781 -1.473 389.39C-1.8637 388.999 -2.08319 388.469 -2.08319 387.917V292.083C-2.08319 291.531 -1.8637 291.001 -1.473 290.61C-1.0823 290.219 -0.552392 290 0.000142105 290H100C100.553 290 101.083 290.219 101.473 290.61C101.864 291.001 102.083 291.531 102.083 292.083V387.917C102.083 388.469 101.864 388.999 101.473 389.39C101.083 389.781 100.553 390 100 390Z" fill="white"/>
<path d="M100 306.667H0.00012207V310.833H100V306.667Z" fill="white"/>
<path d="M10.4168 298.333H6.25012V302.5H10.4168V298.333Z" fill="white"/>
<path d="M18.7502 298.333H14.5835V302.5H18.7502V298.333Z" fill="white"/>
<path d="M27.0835 298.333H22.9168V302.5H27.0835V298.333Z" fill="white"/>
</g>
<path d="M320.96 647.82H238.96C237.369 647.82 235.843 647.188 234.717 646.063C233.592 644.937 232.96 643.411 232.96 641.82V588C232.96 586.409 233.592 584.883 234.717 583.757C235.843 582.632 237.369 582 238.96 582H320.96C322.551 582 324.077 582.632 325.203 583.757C326.328 584.883 326.96 586.409 326.96 588V641.78C326.965 642.571 326.814 643.356 326.515 644.088C326.216 644.821 325.774 645.487 325.217 646.049C324.659 646.61 323.996 647.055 323.265 647.359C322.535 647.664 321.751 647.82 320.96 647.82V647.82ZM239.04 586C238.51 586 238.001 586.211 237.626 586.586C237.251 586.961 237.04 587.47 237.04 588V641.78C237.04 642.31 237.251 642.819 237.626 643.194C238.001 643.569 238.51 643.78 239.04 643.78H321.04C321.57 643.78 322.079 643.569 322.454 643.194C322.829 642.819 323.04 642.31 323.04 641.78V588C323.04 587.47 322.829 586.961 322.454 586.586C322.079 586.211 321.57 586 321.04 586H239.04Z" fill="white"/>
<path d="M320 674H240C238.152 673.984 236.383 673.245 235.075 671.94C233.766 670.634 233.021 668.868 233 667.02V658.36C233.005 656.501 233.743 654.72 235.054 653.402C236.364 652.084 238.141 651.336 240 651.32H320C321.866 651.325 323.653 652.069 324.972 653.388C326.291 654.707 327.035 656.495 327.04 658.36V667.02C327.019 668.875 326.269 670.647 324.951 671.954C323.634 673.26 321.855 673.995 320 674V674ZM240 655.32C239.201 655.331 238.438 655.655 237.876 656.224C237.315 656.793 237 657.561 237 658.36V667.02C237.016 667.809 237.337 668.561 237.897 669.117C238.457 669.673 239.211 669.99 240 670H320C320.806 670 321.58 669.68 322.15 669.11C322.72 668.54 323.04 667.766 323.04 666.96V658.36C323.04 657.961 322.961 657.565 322.809 657.197C322.656 656.828 322.432 656.493 322.15 656.21C321.867 655.928 321.532 655.704 321.163 655.551C320.795 655.399 320.399 655.32 320 655.32H240Z" fill="white"/>
<path d="M317.5 658.82H295C293.895 658.82 293 659.715 293 660.82V664.58C293 665.685 293.895 666.58 295 666.58H317.5C318.605 666.58 319.5 665.685 319.5 664.58V660.82C319.5 659.715 318.605 658.82 317.5 658.82Z" fill="white"/>
<path d="M317.5 640.32H242.5C241.97 640.32 241.461 640.109 241.086 639.734C240.711 639.359 240.5 638.85 240.5 638.32V591.44C240.5 590.91 240.711 590.401 241.086 590.026C241.461 589.651 241.97 589.44 242.5 589.44H317.5C318.03 589.44 318.539 589.651 318.914 590.026C319.289 590.401 319.5 590.91 319.5 591.44V638.32C319.5 638.85 319.289 639.359 318.914 639.734C318.539 640.109 318.03 640.32 317.5 640.32ZM244.5 636.32H315.5V593.44H244.5V636.32Z" fill="white"/>
<path d="M272.763 619.837L267.403 614.637C267.265 614.502 267.158 614.34 267.089 614.16C267.02 613.981 266.99 613.789 267.003 613.597C267.016 613.406 267.071 613.22 267.163 613.052C267.255 612.884 267.382 612.738 267.536 612.623L273.523 608.143L275.123 610.277L270.389 613.823L274.616 617.943L272.763 619.837Z" fill="white"/>
<path d="M285.816 620.69L284.216 618.557L288.949 615.01L284.723 610.89L286.576 608.97L291.909 614.183C292.048 614.318 292.156 614.481 292.225 614.661C292.294 614.841 292.324 615.035 292.311 615.227C292.298 615.42 292.244 615.608 292.152 615.777C292.059 615.947 291.931 616.095 291.776 616.21L285.816 620.69Z" fill="white"/>
<path d="M282.202 606L274.575 623.358L277.017 624.431L284.644 607.073L282.202 606Z" fill="white"/>
<path d="M253.952 689.808C253.952 691.728 252.432 692.912 250.4 692.912H249.984C250.96 693.392 251.648 694.304 252.192 695.84L252.96 698H251.552L250.832 696.016C250.096 694 249.024 692.912 247.264 692.912H246.8V698H245.52V686.8H250.4C252.432 686.8 253.952 687.936 253.952 689.808ZM250.256 691.712C252.16 691.712 252.608 690.704 252.608 689.808C252.608 688.944 252.16 688 250.256 688H246.8V691.712H250.256ZM258.47 690.4C260.486 690.4 261.862 691.664 261.75 693.776L261.718 694.32H256.134C256.134 695.952 257.03 697.04 258.358 697.04C259.414 697.04 260.15 696.448 260.246 695.184L261.526 695.632C261.11 697.392 260.006 698.16 258.342 698.16C256.166 698.16 254.838 696.512 254.838 694.368C254.838 691.744 256.39 690.4 258.47 690.4ZM258.502 691.488C257.462 691.488 256.598 692.032 256.278 693.232H260.486C260.342 691.84 259.382 691.488 258.502 691.488ZM271.486 690.416C272.558 690.416 273.79 691.088 273.79 692.992V698.016H272.494V693.232C272.494 692.064 272.03 691.552 271.214 691.552C270.414 691.552 269.822 692.016 269.486 693.088C269.342 693.552 269.31 694.128 269.31 694.832V698H268.03V693.152C268.03 692.032 267.566 691.536 266.75 691.536C265.966 691.536 265.406 691.984 265.038 693.024C264.862 693.52 264.83 694.176 264.83 694.976V698H263.55V690.56H264.83V691.888C265.214 691.04 265.87 690.4 267.022 690.4C267.838 690.4 268.734 690.768 269.118 691.808C269.534 691.008 270.254 690.416 271.486 690.416ZM276.628 688.144C276.1 688.144 275.7 687.744 275.7 687.216C275.7 686.72 276.1 686.32 276.628 686.32C277.14 686.32 277.54 686.72 277.54 687.216C277.54 687.744 277.14 688.144 276.628 688.144ZM275.972 690.56H277.268V698H275.972V690.56ZM284.146 698L282.274 694.72L280.402 698H278.866L281.33 693.952L279.01 690.56H280.514L282.274 693.2L284.034 690.56H285.538L283.218 693.952L285.682 698H284.146ZM296.549 698C296.213 697.552 295.957 697.056 295.845 696.384C295.413 697.392 294.645 698.16 293.301 698.16C291.893 698.16 291.045 697.008 291.045 695.84C291.045 694.48 291.925 693.84 293.893 693.632C294.565 693.568 295.189 693.456 295.637 693.168V692.832C295.637 691.648 294.757 691.504 293.957 691.504C292.997 691.504 292.005 692.032 292.389 693.232L291.045 692.864C290.837 691.024 292.629 690.4 294.005 690.4C295.461 690.4 296.901 690.864 296.901 692.768V695.2C296.901 696.704 297.685 697.568 298.005 698H296.549ZM293.541 697.04C294.517 697.04 295.493 696.16 295.685 694.208C295.285 694.448 294.757 694.608 294.085 694.704C292.965 694.864 292.357 695.04 292.357 695.872C292.357 696.48 292.789 697.04 293.541 697.04ZM303.061 690.4C304.277 690.4 305.781 691.12 305.781 693.104V698H304.501V693.344C304.501 692.096 303.877 691.536 302.885 691.536C302.053 691.536 301.317 692 300.901 692.832C300.629 693.376 300.549 693.92 300.549 694.848V698H299.269V690.56H300.533V691.984C300.997 691.072 301.765 690.4 303.061 690.4ZM314.597 686.48V698H313.333V696.64C312.805 697.488 311.989 698.16 310.933 698.16C308.981 698.16 307.477 696.528 307.477 694.272C307.477 692.112 308.917 690.4 310.917 690.4C311.989 690.4 312.789 691.024 313.317 691.824V686.48H314.597ZM311.013 697.072C312.405 697.072 313.429 695.76 313.429 694.288C313.429 692.688 312.421 691.504 310.997 691.504C309.749 691.504 308.805 692.64 308.805 694.272C308.805 695.904 309.717 697.072 311.013 697.072ZM252.424 709.92H248.072L246.552 714H245.16L249.528 702.8H250.968L255.336 714H253.944L252.424 709.92ZM251.976 708.72L250.248 704.08L248.52 708.72H251.976ZM260.364 706.4C262.396 706.4 263.308 708.112 262.46 710.352H261.068C261.804 708.688 261.436 707.552 260.124 707.552C259.02 707.552 258.236 708.608 258.236 711.024V714H256.956V706.56H258.236V707.792C258.668 706.992 259.356 706.4 260.364 706.4ZM270.811 711.216C270.475 713.632 268.795 714.16 267.531 714.16C265.659 714.16 263.947 712.736 263.947 710.288C263.947 707.696 265.851 706.4 267.659 706.4C269.019 706.4 270.667 706.88 271.083 709.088L269.803 709.488C269.675 707.952 268.603 707.552 267.675 707.552C266.379 707.552 265.275 708.576 265.275 710.272C265.275 711.968 266.331 713.008 267.595 713.008C268.507 713.008 269.483 712.4 269.531 710.832L270.811 711.216ZM276.608 706.4C277.824 706.4 279.328 707.12 279.328 709.104V714H278.048V709.344C278.048 708.096 277.424 707.536 276.432 707.536C275.6 707.536 274.864 708 274.448 708.832C274.176 709.376 274.096 709.92 274.096 710.848V714H272.816V702.48H274.096V707.952C274.56 707.056 275.328 706.4 276.608 706.4ZM282.16 704.144C281.632 704.144 281.232 703.744 281.232 703.216C281.232 702.72 281.632 702.32 282.16 702.32C282.672 702.32 283.072 702.72 283.072 703.216C283.072 703.744 282.672 704.144 282.16 704.144ZM281.504 706.56H282.8V714H281.504V706.56ZM290.889 711.312C290.793 713.92 289.401 714.16 288.457 714.16C287.177 714.16 286.217 713.296 286.217 711.84V707.696H284.425V706.56H286.217V703.904L287.497 702.32V706.56H290.521V707.696H287.497V711.824C287.497 712.656 287.897 713.008 288.585 713.008C289.321 713.008 289.705 712.368 289.577 711.168L290.889 711.312ZM295.595 706.4C297.611 706.4 298.987 707.664 298.875 709.776L298.843 710.32H293.259C293.259 711.952 294.155 713.04 295.483 713.04C296.539 713.04 297.275 712.448 297.371 711.184L298.651 711.632C298.235 713.392 297.131 714.16 295.467 714.16C293.291 714.16 291.963 712.512 291.963 710.368C291.963 707.744 293.515 706.4 295.595 706.4ZM295.627 707.488C294.587 707.488 293.723 708.032 293.403 709.232H297.611C297.467 707.84 296.507 707.488 295.627 707.488ZM307.139 711.216C306.803 713.632 305.123 714.16 303.859 714.16C301.987 714.16 300.275 712.736 300.275 710.288C300.275 707.696 302.179 706.4 303.987 706.4C305.347 706.4 306.995 706.88 307.411 709.088L306.131 709.488C306.003 707.952 304.931 707.552 304.003 707.552C302.707 707.552 301.603 708.576 301.603 710.272C301.603 711.968 302.659 713.008 303.923 713.008C304.835 713.008 305.811 712.4 305.859 710.832L307.139 711.216ZM314.78 711.312C314.684 713.92 313.292 714.16 312.348 714.16C311.068 714.16 310.108 713.296 310.108 711.84V707.696H308.316V706.56H310.108V703.904L311.388 702.32V706.56H314.412V707.696H311.388V711.824C311.388 712.656 311.788 713.008 312.476 713.008C313.212 713.008 313.596 712.368 313.468 711.168L314.78 711.312Z" fill="white"/>
<path fill-rule="evenodd" clip-rule="evenodd" d="M510.041 565C482.37 565 460 587.535 460 615.413C460 637.698 474.333 656.562 494.217 663.238C496.703 663.74 497.613 662.153 497.613 660.819C497.613 659.65 497.532 655.644 497.532 651.47C483.611 654.475 480.712 645.46 480.712 645.46C478.475 639.618 475.161 638.116 475.161 638.116C470.605 635.028 475.493 635.028 475.493 635.028C480.547 635.362 483.198 640.202 483.198 640.202C487.672 647.881 494.88 645.711 497.779 644.375C498.193 641.12 499.52 638.867 500.928 637.615C489.826 636.446 478.145 632.106 478.145 612.742C478.145 607.233 480.132 602.726 483.28 599.221C482.784 597.969 481.043 592.793 483.778 585.866C483.778 585.866 488.003 584.53 497.531 591.041C501.609 589.937 505.816 589.376 510.041 589.371C514.267 589.371 518.574 589.956 522.551 591.041C532.079 584.53 536.305 585.866 536.305 585.866C539.039 592.793 537.298 597.969 536.801 599.221C540.033 602.726 541.938 607.233 541.938 612.742C541.938 632.106 530.257 636.362 519.072 637.615C520.895 639.201 522.468 642.205 522.468 646.963C522.468 653.723 522.386 659.149 522.386 660.818C522.386 662.153 523.298 663.74 525.783 663.239C545.667 656.561 560 637.698 560 615.413C560.082 587.535 537.63 565 510.041 565Z" fill="white"/>
<path d="M494.796 685.84V692H493.772L493.628 689.856C492.732 691.424 491.58 692.16 489.772 692.16C486.844 692.16 484.636 689.696 484.636 686.416C484.636 683.104 486.78 680.64 489.884 680.64C491.644 680.64 493.932 681.344 494.46 684.144L493.148 684.592C492.844 682.32 491.196 681.84 489.884 681.84C487.564 681.84 485.98 683.792 485.98 686.368C485.98 689.008 487.66 690.96 489.868 690.96C492.716 690.96 493.58 688.56 493.596 687.024H488.492V685.84H494.796ZM497.488 682.144C496.96 682.144 496.56 681.744 496.56 681.216C496.56 680.72 496.96 680.32 497.488 680.32C498 680.32 498.4 680.72 498.4 681.216C498.4 681.744 498 682.144 497.488 682.144ZM496.832 684.56H498.128V692H496.832V684.56ZM506.217 689.312C506.121 691.92 504.729 692.16 503.785 692.16C502.505 692.16 501.545 691.296 501.545 689.84V685.696H499.753V684.56H501.545V681.904L502.825 680.32V684.56H505.849V685.696H502.825V689.824C502.825 690.656 503.225 691.008 503.913 691.008C504.649 691.008 505.033 690.368 504.905 689.168L506.217 689.312ZM517.494 680.8V692H516.214V686.432H509.238V692H507.958V680.8H509.238V685.232H516.214V680.8H517.494ZM526.151 684.56V692H524.903V690.56C524.439 691.472 523.671 692.16 522.375 692.16C521.143 692.16 519.655 691.44 519.655 689.456V684.56H520.935V689.216C520.935 690.464 521.575 691.024 522.535 691.024C523.383 691.024 524.119 690.56 524.535 689.728C524.807 689.184 524.871 688.64 524.871 687.712V684.56H526.151ZM532.073 684.4C534.073 684.4 535.513 686.112 535.513 688.272C535.513 690.528 534.009 692.16 532.057 692.16C531.001 692.16 530.185 691.488 529.657 690.64V692H528.393V680.48H529.673V685.824C530.201 685.024 531.001 684.4 532.073 684.4ZM531.977 691.072C533.273 691.072 534.185 689.904 534.185 688.272C534.185 686.64 533.241 685.504 531.993 685.504C530.537 685.504 529.561 686.72 529.561 688.288C529.561 689.808 530.617 691.072 531.977 691.072ZM490.197 703.92H485.845L484.325 708H482.933L487.301 696.8H488.741L493.109 708H491.717L490.197 703.92ZM489.749 702.72L488.021 698.08L486.293 702.72H489.749ZM500.944 705.216C500.608 707.632 498.928 708.16 497.664 708.16C495.792 708.16 494.08 706.736 494.08 704.288C494.08 701.696 495.984 700.4 497.792 700.4C499.152 700.4 500.8 700.88 501.216 703.088L499.936 703.488C499.808 701.952 498.736 701.552 497.808 701.552C496.512 701.552 495.408 702.576 495.408 704.272C495.408 705.968 496.464 707.008 497.728 707.008C498.64 707.008 499.616 706.4 499.664 704.832L500.944 705.216ZM508.585 705.312C508.489 707.92 507.097 708.16 506.153 708.16C504.873 708.16 503.913 707.296 503.913 705.84V701.696H502.121V700.56H503.913V697.904L505.193 696.32V700.56H508.217V701.696H505.193V705.824C505.193 706.656 505.593 707.008 506.281 707.008C507.017 707.008 507.401 706.368 507.273 705.168L508.585 705.312ZM510.933 698.144C510.405 698.144 510.005 697.744 510.005 697.216C510.005 696.72 510.405 696.32 510.933 696.32C511.445 696.32 511.845 696.72 511.845 697.216C511.845 697.744 511.445 698.144 510.933 698.144ZM510.277 700.56H511.573V708H510.277V700.56ZM517.119 708.16C514.959 708.16 513.423 706.48 513.423 704.272C513.423 702.016 514.911 700.4 517.119 700.4C519.327 700.4 520.815 702.016 520.815 704.272C520.815 706.48 519.279 708.16 517.119 708.16ZM517.119 707.04C518.447 707.04 519.487 705.888 519.487 704.224C519.487 702.592 518.447 701.52 517.119 701.52C515.791 701.52 514.751 702.592 514.751 704.224C514.751 705.888 515.791 707.04 517.119 707.04ZM526.444 700.4C527.66 700.4 529.164 701.12 529.164 703.104V708H527.884V703.344C527.884 702.096 527.26 701.536 526.268 701.536C525.436 701.536 524.7 702 524.284 702.832C524.012 703.376 523.932 703.92 523.932 704.848V708H522.652V700.56H523.916V701.984C524.38 701.072 525.148 700.4 526.444 700.4ZM535.692 703.136C535.852 702.048 534.972 701.488 533.9 701.488C532.876 701.488 532.299 701.968 532.299 702.48C532.299 702.896 532.604 703.136 533.084 703.296C533.916 703.584 534.428 703.664 535.148 703.92C535.98 704.208 536.668 704.752 536.668 705.84C536.668 706.992 535.708 708.16 533.836 708.16C532.076 708.16 530.876 707.184 530.828 705.536L532.124 705.232C531.996 706.304 532.668 707.04 533.804 707.04C534.876 707.04 535.356 706.464 535.356 705.856C535.356 705.36 535.02 705.12 534.444 704.944C533.852 704.768 533.228 704.64 532.539 704.368C531.548 703.984 531.004 703.392 531.004 702.464C531.004 701.312 532.348 700.4 533.9 700.4C535.34 700.4 536.86 701.008 536.988 702.88L535.692 703.136Z" fill="white"/>
<path d="M499.971 410.92H495.619L494.099 415H492.707L497.075 403.8H498.515L502.883 415H501.491L499.971 410.92ZM499.523 409.72L497.795 405.08L496.067 409.72H499.523ZM517.152 403.8L514.448 415H512.816L510 406.088L507.168 415H505.52L502.816 403.8H504.224L506.4 413.544L509.2 404.6H510.768L513.584 413.56L515.744 403.8H517.152ZM525.649 408.12C525.953 405.192 524.017 404.808 522.769 404.808C521.441 404.808 520.257 405.4 520.257 406.616C520.257 407.432 520.849 407.832 522.001 408.248C523.057 408.632 523.713 408.824 524.513 409.096C525.969 409.592 526.849 410.36 526.849 411.8C526.849 413.384 525.505 415.16 522.913 415.16C520.817 415.16 518.353 413.912 518.481 410.088L519.809 409.864C519.537 412.664 521.121 413.992 522.977 413.992C524.401 413.992 525.521 413.064 525.521 411.864C525.521 410.904 524.961 410.552 523.937 410.2L521.361 409.336C519.905 408.856 518.961 407.944 518.961 406.616C518.961 404.856 520.769 403.64 522.801 403.64C524.961 403.64 527.201 404.856 526.945 407.864L525.649 408.12Z" fill="white"/>
<path d="M481.431 323.462L460 335L481.431 346.538M481.431 323.462L510 338.846L538.569 323.462M481.431 323.462L460 311.923L510 285L560 311.923L538.569 323.462M481.431 346.538L460 358.077L510 385L560 358.077L538.569 346.538M481.431 346.538L510 361.923L538.569 346.538M538.569 323.462L560 335L538.569 346.538" stroke="white" stroke-width="2" stroke-linecap="round" stroke-linejoin="round"/>
<path d="M473.688 117.8C477.304 117.8 479.144 120.152 479.144 123.288C479.144 126.52 476.968 129 473.64 129H469.848V117.8H473.688ZM473.672 127.8C476.296 127.8 477.8 125.688 477.8 123.256C477.8 120.872 476.52 119 473.88 119H471.128V127.8H473.672ZM487.565 121.56L484.573 129C484.045 130.312 483.469 131.976 481.165 132.36L480.621 131.288C482.605 130.904 482.717 130.168 483.277 129L480.269 121.56H481.709L483.917 127.56L486.109 121.56H487.565ZM492.655 121.4C493.871 121.4 495.375 122.12 495.375 124.104V129H494.095V124.344C494.095 123.096 493.471 122.536 492.479 122.536C491.647 122.536 490.911 123 490.495 123.832C490.223 124.376 490.143 124.92 490.143 125.848V129H488.863V121.56H490.127V122.984C490.591 122.072 491.359 121.4 492.655 121.4ZM502.83 129C502.494 128.552 502.238 128.056 502.126 127.384C501.694 128.392 500.926 129.16 499.582 129.16C498.174 129.16 497.326 128.008 497.326 126.84C497.326 125.48 498.206 124.84 500.174 124.632C500.846 124.568 501.47 124.456 501.918 124.168V123.832C501.918 122.648 501.038 122.504 500.238 122.504C499.278 122.504 498.286 123.032 498.67 124.232L497.326 123.864C497.118 122.024 498.91 121.4 500.286 121.4C501.742 121.4 503.182 121.864 503.182 123.768V126.2C503.182 127.704 503.966 128.568 504.286 129H502.83ZM499.822 128.04C500.798 128.04 501.774 127.16 501.966 125.208C501.566 125.448 501.038 125.608 500.366 125.704C499.246 125.864 498.638 126.04 498.638 126.872C498.638 127.48 499.07 128.04 499.822 128.04ZM513.486 121.416C514.558 121.416 515.79 122.088 515.79 123.992V129.016H514.494V124.232C514.494 123.064 514.03 122.552 513.214 122.552C512.414 122.552 511.822 123.016 511.486 124.088C511.342 124.552 511.31 125.128 511.31 125.832V129H510.03V124.152C510.03 123.032 509.566 122.536 508.75 122.536C507.966 122.536 507.406 122.984 507.038 124.024C506.862 124.52 506.83 125.176 506.83 125.976V129H505.55V121.56H506.83V122.888C507.214 122.04 507.87 121.4 509.022 121.4C509.838 121.4 510.734 121.768 511.118 122.808C511.534 122.008 512.254 121.416 513.486 121.416ZM521.22 129.16C519.06 129.16 517.524 127.48 517.524 125.272C517.524 123.016 519.012 121.4 521.22 121.4C523.428 121.4 524.916 123.016 524.916 125.272C524.916 127.48 523.38 129.16 521.22 129.16ZM521.22 128.04C522.548 128.04 523.588 126.888 523.588 125.224C523.588 123.592 522.548 122.52 521.22 122.52C519.892 122.52 518.852 123.592 518.852 125.224C518.852 126.888 519.892 128.04 521.22 128.04ZM534.47 117.8C538.086 117.8 539.926 120.152 539.926 123.288C539.926 126.52 537.75 129 534.422 129H530.63V117.8H534.47ZM534.454 127.8C537.078 127.8 538.582 125.688 538.582 123.256C538.582 120.872 537.302 119 534.662 119H531.91V127.8H534.454ZM547.53 117.8C549.994 117.8 550.97 119.352 550.97 120.696C550.97 122.232 549.898 123.16 548.49 123.496C549.37 123.96 549.834 124.776 549.834 125.752C549.834 127.56 548.442 129 545.994 129H541.786V117.8H547.53ZM547.226 122.6C548.954 122.6 549.658 121.784 549.658 120.712C549.658 119.688 548.906 119 547.546 119H543.066V122.6H547.226ZM546.074 127.8C547.738 127.8 548.506 126.776 548.506 125.704C548.506 124.472 547.658 123.768 546.202 123.768H543.066V127.8H546.074Z" fill="white"/>
<path d="M552.615 22.1538C552.615 33.8359 533.672 43.3077 510.308 43.3077C486.944 43.3077 468 33.8359 468 22.1538M552.615 22.1538C552.615 10.4718 533.672 1 510.308 1C486.944 1 468 10.4718 468 22.1538M552.615 22.1538V79.8462C552.615 91.5282 533.672 101 510.308 101C486.944 101 468 91.5282 468 79.8462V22.1538M552.615 22.1538V41.3846M468 22.1538V41.3846M552.615 41.3846V60.6154C552.615 72.2974 533.672 81.7692 510.308 81.7692C486.944 81.7692 468 72.2974 468 60.6154V41.3846M552.615 41.3846C552.615 53.0667 533.672 62.5385 510.308 62.5385C486.944 62.5385 468 53.0667 468 41.3846" stroke="white" stroke-width="2" stroke-linecap="round" stroke-linejoin="round"/>
<path d="M254.258 412.728C253.73 416.056 251.554 417.16 249.41 417.16C246.434 417.16 244.034 414.872 244.034 411.4C244.034 407.928 246.45 405.64 249.474 405.64C252.002 405.64 254.082 406.888 254.642 409.832L253.314 410.232C252.946 407.736 251.33 406.84 249.506 406.84C247.202 406.84 245.378 408.648 245.378 411.384C245.378 414.232 247.282 415.96 249.426 415.96C250.866 415.96 252.658 415.112 252.946 412.328L254.258 412.728ZM256.196 405.48H257.476V417H256.196V405.48ZM262.916 417.16C260.756 417.16 259.22 415.48 259.22 413.272C259.22 411.016 260.708 409.4 262.916 409.4C265.124 409.4 266.612 411.016 266.612 413.272C266.612 415.48 265.076 417.16 262.916 417.16ZM262.916 416.04C264.244 416.04 265.284 414.888 265.284 413.224C265.284 411.592 264.244 410.52 262.916 410.52C261.588 410.52 260.548 411.592 260.548 413.224C260.548 414.888 261.588 416.04 262.916 416.04ZM274.565 409.56V417H273.317V415.56C272.853 416.472 272.085 417.16 270.789 417.16C269.557 417.16 268.069 416.44 268.069 414.456V409.56H269.349V414.216C269.349 415.464 269.989 416.024 270.949 416.024C271.797 416.024 272.533 415.56 272.949 414.728C273.221 414.184 273.285 413.64 273.285 412.712V409.56H274.565ZM283.495 405.48V417H282.231V415.64C281.703 416.488 280.887 417.16 279.831 417.16C277.879 417.16 276.375 415.528 276.375 413.272C276.375 411.112 277.815 409.4 279.815 409.4C280.887 409.4 281.687 410.024 282.215 410.824V405.48H283.495ZM279.911 416.072C281.303 416.072 282.327 414.76 282.327 413.288C282.327 411.688 281.319 410.504 279.895 410.504C278.647 410.504 277.703 411.64 277.703 413.272C277.703 414.904 278.615 416.072 279.911 416.072ZM287.922 409.56H290.002V410.712H287.922V417H286.642V410.712H285.138V409.56H286.642V408.024C286.642 406.632 287.346 405.32 289.41 405.32C289.714 405.32 289.986 405.368 290.066 405.4L289.97 406.584C289.778 406.52 289.458 406.504 289.154 406.536C288.066 406.648 287.922 407.352 287.922 408.168V409.56ZM291.712 405.48H292.992V417H291.712V405.48ZM300.463 417C300.127 416.552 299.871 416.056 299.759 415.384C299.327 416.392 298.559 417.16 297.215 417.16C295.807 417.16 294.959 416.008 294.959 414.84C294.959 413.48 295.839 412.84 297.807 412.632C298.479 412.568 299.103 412.456 299.551 412.168V411.832C299.551 410.648 298.671 410.504 297.871 410.504C296.911 410.504 295.919 411.032 296.303 412.232L294.959 411.864C294.751 410.024 296.543 409.4 297.919 409.4C299.375 409.4 300.815 409.864 300.815 411.768V414.2C300.815 415.704 301.599 416.568 301.919 417H300.463ZM297.455 416.04C298.431 416.04 299.407 415.16 299.599 413.208C299.199 413.448 298.671 413.608 297.999 413.704C296.879 413.864 296.271 414.04 296.271 414.872C296.271 415.48 296.703 416.04 297.455 416.04ZM306.591 409.4C308.623 409.4 309.535 411.112 308.687 413.352H307.295C308.031 411.688 307.663 410.552 306.351 410.552C305.247 410.552 304.463 411.608 304.463 414.024V417H303.183V409.56H304.463V410.792C304.895 409.992 305.583 409.4 306.591 409.4ZM313.806 409.4C315.822 409.4 317.198 410.664 317.086 412.776L317.054 413.32H311.47C311.47 414.952 312.366 416.04 313.694 416.04C314.75 416.04 315.486 415.448 315.582 414.184L316.862 414.632C316.446 416.392 315.342 417.16 313.678 417.16C311.502 417.16 310.174 415.512 310.174 413.368C310.174 410.744 311.726 409.4 313.806 409.4ZM313.838 410.488C312.798 410.488 311.934 411.032 311.614 412.232H315.822C315.678 410.84 314.718 410.488 313.838 410.488ZM269.235 421.8C272.851 421.8 274.691 424.152 274.691 427.288C274.691 430.52 272.515 433 269.187 433H265.395V421.8H269.235ZM269.219 431.8C271.843 431.8 273.347 429.688 273.347 427.256C273.347 424.872 272.067 423 269.427 423H266.675V431.8H269.219ZM285.464 421.8V433H283.72L277.832 423.528V433H276.552V421.8H278.264L284.184 431.48V421.8H285.464ZM294.68 426.12C294.984 423.192 293.048 422.808 291.8 422.808C290.472 422.808 289.288 423.4 289.288 424.616C289.288 425.432 289.88 425.832 291.032 426.248C292.088 426.632 292.744 426.824 293.544 427.096C295 427.592 295.88 428.36 295.88 429.8C295.88 431.384 294.536 433.16 291.944 433.16C289.848 433.16 287.384 431.912 287.512 428.088L288.84 427.864C288.568 430.664 290.152 431.992 292.008 431.992C293.432 431.992 294.552 431.064 294.552 429.864C294.552 428.904 293.992 428.552 292.968 428.2L290.392 427.336C288.936 426.856 287.992 425.944 287.992 424.616C287.992 422.856 289.8 421.64 291.832 421.64C293.992 421.64 296.232 422.856 295.976 425.864L294.68 426.12Z" fill="white"/>
<path d="M313.163 362.844H250.698C245.744 362.909 240.953 361.084 237.297 357.741C233.642 354.398 231.398 349.787 231.022 344.848C231.022 344.328 231.022 343.808 231.022 343.288C230.82 339.199 232.001 335.161 234.373 331.824C236.745 328.488 240.171 326.046 244.099 324.893C244.099 324.333 244.099 323.773 244.099 323.253C244.243 318.207 245.775 313.298 248.526 309.065C251.278 304.832 255.142 301.439 259.695 299.259C264.622 297.066 270.107 296.451 275.397 297.496C280.687 298.541 285.525 301.196 289.248 305.097C291.792 307.689 293.839 310.725 295.287 314.055C296.74 312.851 298.463 312.018 300.309 311.627C302.155 311.237 304.069 311.302 305.884 311.816C308.55 312.753 310.873 314.471 312.549 316.747C314.225 319.022 315.177 321.749 315.282 324.573C319.72 325.334 323.74 327.653 326.621 331.113C329.502 334.573 331.054 338.947 330.999 343.448C330.999 361.164 313.363 362.804 313.163 362.844ZM246.499 328.172C243.097 328.91 240.072 330.838 237.968 333.61C235.863 336.382 234.818 339.814 235.021 343.288C235.021 343.728 235.021 344.168 235.021 344.608C235.357 348.585 237.2 352.283 240.174 354.945C243.148 357.607 247.028 359.031 251.017 358.925H313.363C317.258 358.583 320.883 356.793 323.525 353.91C326.166 351.027 327.631 347.259 327.631 343.348C327.631 339.438 326.166 335.67 323.525 332.787C320.883 329.903 317.258 328.114 313.363 327.772C313.118 327.733 312.884 327.646 312.673 327.517C312.462 327.387 312.279 327.217 312.134 327.016C311.989 326.816 311.886 326.588 311.829 326.347C311.772 326.107 311.763 325.857 311.803 325.613C311.879 323.401 311.271 321.219 310.061 319.365C308.852 317.512 307.1 316.076 305.045 315.255C303.453 314.816 301.765 314.88 300.211 315.438C298.657 315.997 297.314 317.022 296.367 318.374C296.159 318.657 295.877 318.877 295.553 319.011C295.229 319.145 294.874 319.188 294.527 319.134C294.184 319.072 293.864 318.921 293.597 318.696C293.331 318.472 293.127 318.182 293.008 317.854C291.612 314.064 289.385 310.634 286.489 307.817C283.312 304.458 279.169 302.169 274.634 301.266C270.1 300.363 265.397 300.892 261.175 302.778C257.304 304.708 254.026 307.648 251.689 311.287C249.352 314.927 248.042 319.13 247.898 323.453C247.839 324.385 247.839 325.32 247.898 326.252C247.958 326.732 247.835 327.217 247.554 327.61C247.272 328.003 246.852 328.275 246.379 328.372L246.499 328.172Z" fill="white"/>
<path d="M715.361 558.92H711.009L709.489 563H708.097L712.465 551.8H713.905L718.273 563H716.881L715.361 558.92ZM714.913 557.72L713.185 553.08L711.457 557.72H714.913ZM720.566 553.144C720.038 553.144 719.638 552.744 719.638 552.216C719.638 551.72 720.038 551.32 720.566 551.32C721.078 551.32 721.478 551.72 721.478 552.216C721.478 552.744 721.078 553.144 720.566 553.144ZM719.91 555.56H721.206V563H719.91V555.56ZM726.896 555.4C728.928 555.4 729.84 557.112 728.992 559.352H727.6C728.336 557.688 727.968 556.552 726.656 556.552C725.552 556.552 724.768 557.608 724.768 560.024V563H723.488V555.56H724.768V556.792C725.2 555.992 725.888 555.4 726.896 555.4ZM736.686 560.312C736.59 562.92 735.198 563.16 734.254 563.16C732.974 563.16 732.014 562.296 732.014 560.84V556.696H730.222V555.56H732.014V552.904L733.294 551.32V555.56H736.318V556.696H733.294V560.824C733.294 561.656 733.694 562.008 734.382 562.008C735.118 562.008 735.502 561.368 735.374 560.168L736.686 560.312ZM743.659 563C743.323 562.552 743.067 562.056 742.955 561.384C742.523 562.392 741.755 563.16 740.411 563.16C739.003 563.16 738.155 562.008 738.155 560.84C738.155 559.48 739.035 558.84 741.003 558.632C741.675 558.568 742.299 558.456 742.747 558.168V557.832C742.747 556.648 741.867 556.504 741.067 556.504C740.107 556.504 739.115 557.032 739.499 558.232L738.155 557.864C737.947 556.024 739.739 555.4 741.115 555.4C742.571 555.4 744.011 555.864 744.011 557.768V560.2C744.011 561.704 744.795 562.568 745.115 563H743.659ZM740.651 562.04C741.627 562.04 742.603 561.16 742.795 559.208C742.395 559.448 741.867 559.608 741.195 559.704C740.075 559.864 739.467 560.04 739.467 560.872C739.467 561.48 739.899 562.04 740.651 562.04ZM750.026 555.4C752.026 555.4 753.466 557.112 753.466 559.272C753.466 561.528 751.962 563.16 750.01 563.16C748.954 563.16 748.138 562.488 747.61 561.64V563H746.346V551.48H747.626V556.824C748.154 556.024 748.954 555.4 750.026 555.4ZM749.93 562.072C751.226 562.072 752.138 560.904 752.138 559.272C752.138 557.64 751.194 556.504 749.946 556.504C748.49 556.504 747.514 557.72 747.514 559.288C747.514 560.808 748.57 562.072 749.93 562.072ZM755.173 551.48H756.453V563H755.173V551.48ZM761.86 555.4C763.876 555.4 765.252 556.664 765.14 558.776L765.108 559.32H759.524C759.524 560.952 760.42 562.04 761.748 562.04C762.804 562.04 763.54 561.448 763.636 560.184L764.916 560.632C764.5 562.392 763.396 563.16 761.732 563.16C759.556 563.16 758.228 561.512 758.228 559.368C758.228 556.744 759.78 555.4 761.86 555.4ZM761.892 556.488C760.852 556.488 759.988 557.032 759.668 558.232H763.876C763.732 556.84 762.772 556.488 761.892 556.488ZM777.361 558.92H773.009L771.489 563H770.097L774.465 551.8H775.905L780.273 563H778.881L777.361 558.92ZM776.913 557.72L775.185 553.08L773.457 557.72H776.913ZM786.525 551.8C788.557 551.8 790.077 552.936 790.077 554.824C790.077 556.728 788.557 557.912 786.525 557.912H782.925V563H781.645V551.8H786.525ZM786.381 556.712C788.285 556.712 788.733 555.704 788.733 554.824C788.733 553.944 788.285 553 786.381 553H782.925V556.712H786.381ZM791.789 551.8H793.069V563H791.789V551.8Z" fill="white"/>
<g clip-path="url(#clip1_43_190)">
<path d="M796.426 534H753.447C752.234 534 751.07 533.518 750.212 532.66C749.354 531.802 748.872 530.639 748.872 529.426V486.574C748.872 485.327 749.368 484.131 750.25 483.25C751.131 482.368 752.327 481.872 753.574 481.872H796.298C797.545 481.872 798.741 482.368 799.623 483.25C800.505 484.131 801 485.327 801 486.574V529.426C801 530.639 800.518 531.802 799.66 532.66C798.802 533.518 797.639 534 796.426 534V534ZM753.574 486.128C753.458 486.133 753.347 486.182 753.264 486.264C753.182 486.347 753.133 486.458 753.128 486.574V529.426C753.128 529.51 753.161 529.591 753.221 529.651C753.281 529.711 753.362 529.745 753.447 529.745H796.426C796.51 529.745 796.591 529.711 796.651 529.651C796.711 529.591 796.745 529.51 796.745 529.426V486.574C796.739 486.458 796.691 486.347 796.608 486.264C796.525 486.182 796.415 486.133 796.298 486.128H753.574Z" fill="white"/>
<path d="M744.872 510.064H727.596C726.975 510.055 726.363 509.925 725.793 509.68C725.223 509.435 724.707 509.08 724.274 508.635C723.842 508.191 723.501 507.665 723.271 507.089C723.042 506.513 722.928 505.897 722.936 505.277V462.723C722.928 462.103 723.042 461.487 723.271 460.911C723.501 460.335 723.842 459.809 724.274 459.365C724.707 458.92 725.223 458.565 725.793 458.32C726.363 458.075 726.975 457.944 727.596 457.936H770.362C770.986 457.936 771.605 458.06 772.181 458.302C772.757 458.544 773.279 458.898 773.717 459.343C774.155 459.789 774.499 460.317 774.731 460.898C774.962 461.478 775.075 462.099 775.064 462.723V478.106H770.809V462.723C770.809 462.605 770.761 462.491 770.678 462.407C770.594 462.324 770.48 462.277 770.362 462.277H727.596C727.475 462.276 727.359 462.323 727.272 462.406C727.185 462.489 727.133 462.603 727.128 462.723V505.277C727.133 505.397 727.185 505.511 727.272 505.594C727.359 505.677 727.475 505.724 727.596 505.723H744.809L744.872 510.064Z" fill="white"/>
<path d="M719.085 486.128H705.702C705.085 486.128 704.473 486.006 703.903 485.77C703.332 485.533 702.814 485.187 702.377 484.75C701.941 484.314 701.594 483.795 701.358 483.225C701.122 482.654 701 482.043 701 481.426V438.702C701 437.455 701.495 436.259 702.377 435.377C703.259 434.495 704.455 434 705.702 434H748.426C749.043 434 749.654 434.122 750.225 434.358C750.795 434.594 751.314 434.941 751.75 435.377C752.187 435.814 752.533 436.332 752.77 436.903C753.006 437.473 753.128 438.085 753.128 438.702V454.085H748.872V438.702C748.867 438.585 748.818 438.475 748.736 438.392C748.653 438.309 748.542 438.261 748.426 438.255H705.702C705.585 438.261 705.475 438.309 705.392 438.392C705.309 438.475 705.261 438.585 705.255 438.702V481.426C705.261 481.542 705.309 481.653 705.392 481.736C705.475 481.818 705.585 481.867 705.702 481.872H719.085V486.128Z" fill="white"/>
</g>
<path d="M721.821 264.12C722.125 261.192 720.189 260.808 718.941 260.808C717.613 260.808 716.429 261.4 716.429 262.616C716.429 263.432 717.021 263.832 718.173 264.248C719.229 264.632 719.885 264.824 720.685 265.096C722.141 265.592 723.021 266.36 723.021 267.8C723.021 269.384 721.677 271.16 719.085 271.16C716.989 271.16 714.525 269.912 714.653 266.088L715.981 265.864C715.709 268.664 717.293 269.992 719.149 269.992C720.573 269.992 721.693 269.064 721.693 267.864C721.693 266.904 721.133 266.552 720.109 266.2L717.533 265.336C716.077 264.856 715.133 263.944 715.133 262.616C715.133 260.856 716.941 259.64 718.973 259.64C721.133 259.64 723.373 260.856 723.117 263.864L721.821 264.12ZM730.889 268.312C730.793 270.92 729.401 271.16 728.457 271.16C727.177 271.16 726.217 270.296 726.217 268.84V264.696H724.425V263.56H726.217V260.904L727.497 259.32V263.56H730.521V264.696H727.497V268.824C727.497 269.656 727.897 270.008 728.585 270.008C729.321 270.008 729.705 269.368 729.577 268.168L730.889 268.312ZM735.974 263.4C738.006 263.4 738.918 265.112 738.07 267.352H736.678C737.414 265.688 737.046 264.552 735.734 264.552C734.63 264.552 733.846 265.608 733.846 268.024V271H732.566V263.56H733.846V264.792C734.278 263.992 734.966 263.4 735.974 263.4ZM740.628 261.144C740.1 261.144 739.7 260.744 739.7 260.216C739.7 259.72 740.1 259.32 740.628 259.32C741.14 259.32 741.54 259.72 741.54 260.216C741.54 260.744 741.14 261.144 740.628 261.144ZM739.972 263.56H741.268V271H739.972V263.56ZM747.198 263.4C749.198 263.4 750.638 265.112 750.638 267.272C750.638 269.528 749.134 271.16 747.182 271.16C746.142 271.16 745.326 270.488 744.798 269.656V274.2H743.518V263.56H744.782V264.856C745.31 264.04 746.11 263.4 747.198 263.4ZM747.102 270.072C748.398 270.072 749.31 268.904 749.31 267.272C749.31 265.64 748.366 264.504 747.118 264.504C745.662 264.504 744.686 265.72 744.686 267.288C744.686 268.808 745.742 270.072 747.102 270.072ZM755.673 263.4C757.689 263.4 759.065 264.664 758.953 266.776L758.921 267.32H753.337C753.337 268.952 754.233 270.04 755.561 270.04C756.617 270.04 757.353 269.448 757.449 268.184L758.729 268.632C758.313 270.392 757.209 271.16 755.545 271.16C753.369 271.16 752.041 269.512 752.041 267.368C752.041 264.744 753.593 263.4 755.673 263.4ZM755.705 264.488C754.665 264.488 753.801 265.032 753.481 266.232H757.689C757.545 264.84 756.585 264.488 755.705 264.488ZM771.174 266.92H766.822L765.302 271H763.91L768.278 259.8H769.718L774.086 271H772.694L771.174 266.92ZM770.726 265.72L768.998 261.08L767.27 265.72H770.726ZM780.338 259.8C782.37 259.8 783.89 260.936 783.89 262.824C783.89 264.728 782.37 265.912 780.338 265.912H776.738V271H775.458V259.8H780.338ZM780.194 264.712C782.098 264.712 782.546 263.704 782.546 262.824C782.546 261.944 782.098 261 780.194 261H776.738V264.712H780.194ZM785.601 259.8H786.881V271H785.601V259.8Z" fill="white"/>
<g clip-path="url(#clip2_43_190)">
<path d="M796.426 242H753.447C752.234 242 751.07 241.518 750.212 240.66C749.354 239.802 748.872 238.639 748.872 237.426V194.574C748.872 193.327 749.368 192.131 750.25 191.25C751.131 190.368 752.327 189.872 753.574 189.872H796.298C797.545 189.872 798.741 190.368 799.623 191.25C800.505 192.131 801 193.327 801 194.574V237.426C801 238.639 800.518 239.802 799.66 240.66C798.802 241.518 797.639 242 796.426 242V242ZM753.574 194.128C753.458 194.133 753.347 194.182 753.264 194.264C753.182 194.347 753.133 194.458 753.128 194.574V237.426C753.128 237.51 753.161 237.591 753.221 237.651C753.281 237.711 753.362 237.745 753.447 237.745H796.426C796.51 237.745 796.591 237.711 796.651 237.651C796.711 237.591 796.745 237.51 796.745 237.426V194.574C796.739 194.458 796.691 194.347 796.608 194.264C796.525 194.182 796.415 194.133 796.298 194.128H753.574Z" fill="white"/>
<path d="M744.872 218.064H727.596C726.975 218.055 726.363 217.925 725.793 217.68C725.223 217.435 724.707 217.08 724.274 216.635C723.842 216.191 723.501 215.665 723.271 215.089C723.042 214.513 722.928 213.897 722.936 213.277V170.723C722.928 170.103 723.042 169.487 723.271 168.911C723.501 168.335 723.842 167.809 724.274 167.365C724.707 166.92 725.223 166.565 725.793 166.32C726.363 166.075 726.975 165.944 727.596 165.936H770.362C770.986 165.936 771.605 166.06 772.181 166.302C772.757 166.544 773.279 166.898 773.717 167.343C774.155 167.789 774.499 168.317 774.731 168.898C774.962 169.478 775.075 170.099 775.064 170.723V186.106H770.809V170.723C770.809 170.605 770.761 170.491 770.678 170.407C770.594 170.324 770.48 170.277 770.362 170.277H727.596C727.475 170.276 727.359 170.323 727.272 170.406C727.185 170.489 727.133 170.603 727.128 170.723V213.277C727.133 213.397 727.185 213.511 727.272 213.594C727.359 213.677 727.475 213.724 727.596 213.723H744.809L744.872 218.064Z" fill="white"/>
<path d="M719.085 194.128H705.702C705.085 194.128 704.473 194.006 703.903 193.77C703.332 193.533 702.814 193.187 702.377 192.75C701.941 192.314 701.594 191.795 701.358 191.225C701.122 190.654 701 190.043 701 189.426V146.702C701 145.455 701.495 144.259 702.377 143.377C703.259 142.495 704.455 142 705.702 142H748.426C749.043 142 749.654 142.122 750.225 142.358C750.795 142.594 751.314 142.941 751.75 143.377C752.187 143.814 752.533 144.332 752.77 144.903C753.006 145.473 753.128 146.085 753.128 146.702V162.085H748.872V146.702C748.867 146.585 748.818 146.475 748.736 146.392C748.653 146.309 748.542 146.261 748.426 146.255H705.702C705.585 146.261 705.475 146.309 705.392 146.392C705.309 146.475 705.261 146.585 705.255 146.702V189.426C705.261 189.542 705.309 189.653 705.392 189.736C705.475 189.818 705.585 189.867 705.702 189.872H719.085V194.128Z" fill="white"/>
</g>
<line x1="626" y1="208" x2="626" y2="500" stroke="white" stroke-width="2"/>
<line x1="625" y1="207" x2="675" y2="207" stroke="white" stroke-width="2"/>
<line x1="625" y1="499" x2="675" y2="499" stroke="white" stroke-width="2"/>
<defs>
<clipPath id="clip0_43_190">
<rect width="100" height="100" fill="white" transform="translate(0 290)"/>
</clipPath>
<clipPath id="clip1_43_190">
<rect width="100" height="100" fill="white" transform="translate(701 434)"/>
</clipPath>
<clipPath id="clip2_43_190">
<rect width="100" height="100" fill="white" transform="translate(701 142)"/>
</clipPath>
</defs>
</svg>
