<svg width="1375" height="730" viewBox="0 0 1375 730" fill="none" xmlns="http://www.w3.org/2000/svg">
<path d="M445.707 615.707C446.098 615.317 446.098 614.683 445.707 614.293L439.343 607.929C438.953 607.538 438.319 607.538 437.929 607.929C437.538 608.319 437.538 608.953 437.929 609.343L443.586 615L437.929 620.657C437.538 621.047 437.538 621.681 437.929 622.071C438.319 622.462 438.953 622.462 439.343 622.071L445.707 615.707ZM345 616H445V614H345V616Z" fill="white"/>
<path d="M675.707 615.707C676.098 615.317 676.098 614.683 675.707 614.293L669.343 607.929C668.953 607.538 668.319 607.538 667.929 607.929C667.538 608.319 667.538 608.953 667.929 609.343L673.586 615L667.929 620.657C667.538 621.047 667.538 621.681 667.929 622.071C668.319 622.462 668.953 622.462 669.343 622.071L675.707 615.707ZM575 616H675V614H575V616Z" fill="white"/>
<path d="M214.707 615.707C215.098 615.317 215.098 614.683 214.707 614.293L208.343 607.929C207.953 607.538 207.319 607.538 206.929 607.929C206.538 608.319 206.538 608.953 206.929 609.343L212.586 615L206.929 620.657C206.538 621.047 206.538 621.681 206.929 622.071C207.319 622.462 207.953 622.462 208.343 622.071L214.707 615.707ZM81 616L214 616L214 614L81 614L81 616Z" fill="white"/>
<path d="M80 615.5V549.5" stroke="white" stroke-width="2"/>
<path d="M81 549.5H65" stroke="white" stroke-width="2"/>
<path d="M80 681V615" stroke="white" stroke-width="2"/>
<path d="M81 681H65" stroke="white" stroke-width="2"/>
<path d="M509.293 258.707C509.683 259.098 510.317 259.098 510.707 258.707L517.071 252.343C517.462 251.953 517.462 251.319 517.071 250.929C516.681 250.538 516.047 250.538 515.657 250.929L510 256.586L504.343 250.929C503.953 250.538 503.319 250.538 502.929 250.929C502.538 251.319 502.538 251.953 502.929 252.343L509.293 258.707ZM509 158L509 258L511 258L511 158L509 158Z" fill="white"/>
<path d="M574.293 334.293C573.902 334.683 573.902 335.317 574.293 335.707L580.657 342.071C581.047 342.462 581.681 342.462 582.071 342.071C582.462 341.681 582.462 341.047 582.071 340.657L576.414 335L582.071 329.343C582.462 328.953 582.462 328.319 582.071 327.929C581.681 327.538 581.047 327.538 580.657 327.929L574.293 334.293ZM685 334H575V336H685V334Z" fill="white"/>
<path d="M1117.29 614.293C1116.9 614.683 1116.9 615.317 1117.29 615.707L1123.66 622.071C1124.05 622.462 1124.68 622.462 1125.07 622.071C1125.46 621.681 1125.46 621.047 1125.07 620.657L1119.41 615L1125.07 609.343C1125.46 608.953 1125.46 608.319 1125.07 607.929C1124.68 607.538 1124.05 607.538 1123.66 607.929L1117.29 614.293ZM1228 614H1118V616H1228V614Z" fill="white"/>
<path d="M823.293 613.293C822.902 613.683 822.902 614.317 823.293 614.707L829.657 621.071C830.047 621.462 830.681 621.462 831.071 621.071C831.462 620.681 831.462 620.047 831.071 619.657L825.414 614L831.071 608.343C831.462 607.953 831.462 607.319 831.071 606.929C830.681 606.538 830.047 606.538 829.657 606.929L823.293 613.293ZM934 613H824V615H934V613Z" fill="white"/>
<path d="M510.707 449.293C510.317 448.902 509.683 448.902 509.293 449.293L502.929 455.657C502.538 456.047 502.538 456.681 502.929 457.071C503.319 457.462 503.953 457.462 504.343 457.071L510 451.414L515.657 457.071C516.047 457.462 516.681 457.462 517.071 457.071C517.462 456.681 517.462 456.047 517.071 455.657L510.707 449.293ZM511 550L511 450L509 450L509 550L511 550Z" fill="white"/>
<path d="M1301.33 690.8C1303.79 690.8 1304.77 692.352 1304.77 693.696C1304.77 695.232 1303.69 696.16 1302.29 696.496C1303.17 696.96 1303.63 697.776 1303.63 698.752C1303.63 700.56 1302.24 702 1299.79 702H1295.58V690.8H1301.33ZM1301.02 695.6C1302.75 695.6 1303.45 694.784 1303.45 693.712C1303.45 692.688 1302.7 692 1301.34 692H1296.86V695.6H1301.02ZM1299.87 700.8C1301.53 700.8 1302.3 699.776 1302.3 698.704C1302.3 697.472 1301.45 696.768 1300 696.768H1296.86V700.8H1299.87ZM1309.69 694.4C1311.72 694.4 1312.64 696.112 1311.79 698.352H1310.4C1311.13 696.688 1310.76 695.552 1309.45 695.552C1308.35 695.552 1307.56 696.608 1307.56 699.024V702H1306.28V694.56H1307.56V695.792C1308 694.992 1308.68 694.4 1309.69 694.4ZM1316.94 702.16C1314.78 702.16 1313.24 700.48 1313.24 698.272C1313.24 696.016 1314.73 694.4 1316.94 694.4C1319.15 694.4 1320.64 696.016 1320.64 698.272C1320.64 700.48 1319.1 702.16 1316.94 702.16ZM1316.94 701.04C1318.27 701.04 1319.31 699.888 1319.31 698.224C1319.31 696.592 1318.27 695.52 1316.94 695.52C1315.61 695.52 1314.57 696.592 1314.57 698.224C1314.57 699.888 1315.61 701.04 1316.94 701.04ZM1332.42 694.56L1330.48 702H1328.86L1326.98 696.528L1325.07 702H1323.44L1321.5 694.56H1322.88L1324.3 700.672L1326.21 695.12H1327.71L1329.62 700.672L1331.06 694.56H1332.42ZM1338.06 697.136C1338.22 696.048 1337.34 695.488 1336.27 695.488C1335.24 695.488 1334.67 695.968 1334.67 696.48C1334.67 696.896 1334.97 697.136 1335.45 697.296C1336.28 697.584 1336.79 697.664 1337.51 697.92C1338.35 698.208 1339.03 698.752 1339.03 699.84C1339.03 700.992 1338.07 702.16 1336.2 702.16C1334.44 702.16 1333.24 701.184 1333.19 699.536L1334.49 699.232C1334.36 700.304 1335.03 701.04 1336.17 701.04C1337.24 701.04 1337.72 700.464 1337.72 699.856C1337.72 699.36 1337.39 699.12 1336.81 698.944C1336.22 698.768 1335.59 698.64 1334.91 698.368C1333.91 697.984 1333.37 697.392 1333.37 696.464C1333.37 695.312 1334.71 694.4 1336.27 694.4C1337.71 694.4 1339.23 695.008 1339.35 696.88L1338.06 697.136ZM1344.28 694.4C1346.3 694.4 1347.67 695.664 1347.56 697.776L1347.53 698.32H1341.95C1341.95 699.952 1342.84 701.04 1344.17 701.04C1345.23 701.04 1345.96 700.448 1346.06 699.184L1347.34 699.632C1346.92 701.392 1345.82 702.16 1344.15 702.16C1341.98 702.16 1340.65 700.512 1340.65 698.368C1340.65 695.744 1342.2 694.4 1344.28 694.4ZM1344.31 695.488C1343.27 695.488 1342.41 696.032 1342.09 697.232H1346.3C1346.15 695.84 1345.19 695.488 1344.31 695.488ZM1352.77 694.4C1354.8 694.4 1355.71 696.112 1354.87 698.352H1353.47C1354.21 696.688 1353.84 695.552 1352.53 695.552C1351.43 695.552 1350.64 696.608 1350.64 699.024V702H1349.36V694.56H1350.64V695.792C1351.07 694.992 1351.76 694.4 1352.77 694.4Z" fill="white"/>
<g clip-path="url(#clip0_202_173)">
<path d="M1375 673H1360.42V668.833H1372.92V577.167H1277.08V668.833H1360.42V673H1275C1274.45 673 1273.92 672.781 1273.53 672.39C1273.14 671.999 1272.92 671.469 1272.92 670.917V575.083C1272.92 574.531 1273.14 574.001 1273.53 573.61C1273.92 573.219 1274.45 573 1275 573H1375C1375.55 573 1376.08 573.219 1376.47 573.61C1376.86 574.001 1377.08 574.531 1377.08 575.083V670.917C1377.08 671.469 1376.86 671.999 1376.47 672.39C1376.08 672.781 1375.55 673 1375 673Z" fill="white"/>
<path d="M1375 589.667H1275V593.833H1375V589.667Z" fill="white"/>
<path d="M1285.42 581.333H1281.25V585.5H1285.42V581.333Z" fill="white"/>
<path d="M1293.75 581.333H1289.58V585.5H1293.75V581.333Z" fill="white"/>
<path d="M1302.08 581.333H1297.92V585.5H1302.08V581.333Z" fill="white"/>
</g>
<path d="M320.96 647.82H238.96C237.369 647.82 235.843 647.188 234.717 646.063C233.592 644.937 232.96 643.411 232.96 641.82V588C232.96 586.409 233.592 584.883 234.717 583.757C235.843 582.632 237.369 582 238.96 582H320.96C322.551 582 324.077 582.632 325.203 583.757C326.328 584.883 326.96 586.409 326.96 588V641.78C326.965 642.571 326.814 643.356 326.515 644.088C326.216 644.821 325.774 645.487 325.217 646.049C324.659 646.61 323.996 647.055 323.265 647.359C322.535 647.664 321.751 647.82 320.96 647.82V647.82ZM239.04 586C238.51 586 238.001 586.211 237.626 586.586C237.251 586.961 237.04 587.47 237.04 588V641.78C237.04 642.31 237.251 642.819 237.626 643.194C238.001 643.569 238.51 643.78 239.04 643.78H321.04C321.57 643.78 322.079 643.569 322.454 643.194C322.829 642.819 323.04 642.31 323.04 641.78V588C323.04 587.47 322.829 586.961 322.454 586.586C322.079 586.211 321.57 586 321.04 586H239.04Z" fill="white"/>
<path d="M320 674H240C238.152 673.984 236.383 673.245 235.075 671.94C233.766 670.635 233.021 668.868 233 667.02V658.36C233.005 656.501 233.743 654.72 235.054 653.402C236.364 652.084 238.141 651.336 240 651.32H320C321.866 651.325 323.653 652.069 324.972 653.388C326.291 654.707 327.035 656.495 327.04 658.36V667.02C327.019 668.875 326.269 670.647 324.951 671.954C323.634 673.26 321.855 673.995 320 674V674ZM240 655.32C239.201 655.331 238.438 655.656 237.876 656.224C237.315 656.793 237 657.561 237 658.36V667.02C237.016 667.809 237.337 668.561 237.897 669.117C238.457 669.673 239.211 669.99 240 670H320C320.806 670 321.58 669.68 322.15 669.11C322.72 668.54 323.04 667.766 323.04 666.96V658.36C323.04 657.961 322.961 657.566 322.809 657.197C322.656 656.828 322.432 656.493 322.15 656.21C321.867 655.928 321.532 655.704 321.163 655.551C320.795 655.399 320.399 655.32 320 655.32H240Z" fill="white"/>
<path d="M317.5 658.82H295C293.895 658.82 293 659.715 293 660.82V664.58C293 665.685 293.895 666.58 295 666.58H317.5C318.605 666.58 319.5 665.685 319.5 664.58V660.82C319.5 659.715 318.605 658.82 317.5 658.82Z" fill="white"/>
<path d="M317.5 640.32H242.5C241.97 640.32 241.461 640.109 241.086 639.734C240.711 639.359 240.5 638.85 240.5 638.32V591.44C240.5 590.91 240.711 590.401 241.086 590.026C241.461 589.651 241.97 589.44 242.5 589.44H317.5C318.03 589.44 318.539 589.651 318.914 590.026C319.289 590.401 319.5 590.91 319.5 591.44V638.32C319.5 638.85 319.289 639.359 318.914 639.734C318.539 640.109 318.03 640.32 317.5 640.32ZM244.5 636.32H315.5V593.44H244.5V636.32Z" fill="white"/>
<path d="M272.763 619.837L267.403 614.637C267.265 614.502 267.158 614.34 267.089 614.16C267.02 613.981 266.99 613.789 267.003 613.597C267.016 613.406 267.071 613.22 267.163 613.052C267.255 612.884 267.382 612.738 267.536 612.623L273.523 608.143L275.123 610.277L270.389 613.823L274.616 617.943L272.763 619.837Z" fill="white"/>
<path d="M285.816 620.69L284.216 618.557L288.949 615.01L284.723 610.89L286.576 608.97L291.909 614.183C292.048 614.318 292.156 614.481 292.225 614.661C292.294 614.842 292.324 615.035 292.311 615.227C292.298 615.42 292.244 615.608 292.152 615.778C292.059 615.947 291.931 616.095 291.776 616.21L285.816 620.69Z" fill="white"/>
<path d="M282.202 606L274.575 623.358L277.017 624.431L284.644 607.073L282.202 606Z" fill="white"/>
<path d="M256.144 686.8V698H254.864V688.784L251.36 697.088H249.984L246.48 688.752V698H245.2V686.8H246.944L250.688 695.52L254.416 686.8H256.144ZM261.744 698.16C259.584 698.16 258.048 696.48 258.048 694.272C258.048 692.016 259.536 690.4 261.744 690.4C263.952 690.4 265.44 692.016 265.44 694.272C265.44 696.48 263.904 698.16 261.744 698.16ZM261.744 697.04C263.072 697.04 264.112 695.888 264.112 694.224C264.112 692.592 263.072 691.52 261.744 691.52C260.416 691.52 259.376 692.592 259.376 694.224C259.376 695.888 260.416 697.04 261.744 697.04ZM271.069 690.4C272.285 690.4 273.789 691.12 273.789 693.104V698H272.509V693.344C272.509 692.096 271.885 691.536 270.893 691.536C270.061 691.536 269.325 692 268.909 692.832C268.637 693.376 268.557 693.92 268.557 694.848V698H267.277V690.56H268.541V691.984C269.005 691.072 269.773 690.4 271.069 690.4ZM279.213 698.16C277.053 698.16 275.517 696.48 275.517 694.272C275.517 692.016 277.005 690.4 279.213 690.4C281.421 690.4 282.909 692.016 282.909 694.272C282.909 696.48 281.373 698.16 279.213 698.16ZM279.213 697.04C280.541 697.04 281.581 695.888 281.581 694.224C281.581 692.592 280.541 691.52 279.213 691.52C277.885 691.52 276.845 692.592 276.845 694.224C276.845 695.888 277.885 697.04 279.213 697.04ZM288.153 690.4C290.185 690.4 291.097 692.112 290.249 694.352H288.857C289.593 692.688 289.225 691.552 287.913 691.552C286.809 691.552 286.025 692.608 286.025 695.024V698H284.745V690.56H286.025V691.792C286.457 690.992 287.145 690.4 288.153 690.4ZM295.368 690.4C297.384 690.4 298.76 691.664 298.648 693.776L298.616 694.32H293.032C293.032 695.952 293.928 697.04 295.256 697.04C296.312 697.04 297.048 696.448 297.144 695.184L298.424 695.632C298.008 697.392 296.904 698.16 295.24 698.16C293.064 698.16 291.736 696.512 291.736 694.368C291.736 691.744 293.288 690.4 295.368 690.4ZM295.4 691.488C294.36 691.488 293.496 692.032 293.176 693.232H297.384C297.24 691.84 296.28 691.488 295.4 691.488ZM304.097 690.4C306.097 690.4 307.536 692.112 307.536 694.272C307.536 696.528 306.033 698.16 304.081 698.16C303.041 698.16 302.225 697.488 301.697 696.656V701.2H300.417V690.56H301.681V691.856C302.209 691.04 303.009 690.4 304.097 690.4ZM304.001 697.072C305.297 697.072 306.209 695.904 306.209 694.272C306.209 692.64 305.265 691.504 304.016 691.504C302.561 691.504 301.585 692.72 301.585 694.288C301.585 695.808 302.641 697.072 304.001 697.072ZM312.603 698.16C310.443 698.16 308.907 696.48 308.907 694.272C308.907 692.016 310.395 690.4 312.603 690.4C314.811 690.4 316.299 692.016 316.299 694.272C316.299 696.48 314.763 698.16 312.603 698.16ZM312.603 697.04C313.931 697.04 314.971 695.888 314.971 694.224C314.971 692.592 313.931 691.52 312.603 691.52C311.275 691.52 310.235 692.592 310.235 694.224C310.235 695.888 311.275 697.04 312.603 697.04Z" fill="white"/>
<path fill-rule="evenodd" clip-rule="evenodd" d="M510.041 565C482.37 565 460 587.535 460 615.413C460 637.698 474.333 656.562 494.217 663.238C496.703 663.74 497.613 662.153 497.613 660.819C497.613 659.65 497.532 655.644 497.532 651.47C483.611 654.475 480.712 645.46 480.712 645.46C478.475 639.618 475.161 638.116 475.161 638.116C470.605 635.028 475.493 635.028 475.493 635.028C480.547 635.362 483.198 640.202 483.198 640.202C487.672 647.881 494.88 645.711 497.779 644.375C498.193 641.12 499.52 638.867 500.928 637.615C489.826 636.446 478.145 632.106 478.145 612.742C478.145 607.233 480.132 602.726 483.28 599.221C482.784 597.969 481.043 592.793 483.778 585.866C483.778 585.866 488.003 584.53 497.531 591.041C501.609 589.937 505.816 589.376 510.041 589.371C514.267 589.371 518.574 589.956 522.551 591.041C532.079 584.53 536.305 585.866 536.305 585.866C539.039 592.793 537.298 597.969 536.801 599.221C540.033 602.726 541.938 607.233 541.938 612.742C541.938 632.106 530.257 636.362 519.072 637.615C520.895 639.201 522.468 642.205 522.468 646.963C522.468 653.723 522.386 659.149 522.386 660.818C522.386 662.153 523.298 663.74 525.783 663.239C545.667 656.561 560 637.698 560 615.413C560.082 587.535 537.63 565 510.041 565Z" fill="white"/>
<path d="M494.796 685.84V692H493.772L493.628 689.856C492.732 691.424 491.58 692.16 489.772 692.16C486.844 692.16 484.636 689.696 484.636 686.416C484.636 683.104 486.78 680.64 489.884 680.64C491.644 680.64 493.932 681.344 494.46 684.144L493.148 684.592C492.844 682.32 491.196 681.84 489.884 681.84C487.564 681.84 485.98 683.792 485.98 686.368C485.98 689.008 487.66 690.96 489.868 690.96C492.716 690.96 493.58 688.56 493.596 687.024H488.492V685.84H494.796ZM497.488 682.144C496.96 682.144 496.56 681.744 496.56 681.216C496.56 680.72 496.96 680.32 497.488 680.32C498 680.32 498.4 680.72 498.4 681.216C498.4 681.744 498 682.144 497.488 682.144ZM496.832 684.56H498.128V692H496.832V684.56ZM506.217 689.312C506.121 691.92 504.729 692.16 503.785 692.16C502.505 692.16 501.545 691.296 501.545 689.84V685.696H499.753V684.56H501.545V681.904L502.825 680.32V684.56H505.849V685.696H502.825V689.824C502.825 690.656 503.225 691.008 503.913 691.008C504.649 691.008 505.033 690.368 504.905 689.168L506.217 689.312ZM517.494 680.8V692H516.214V686.432H509.238V692H507.958V680.8H509.238V685.232H516.214V680.8H517.494ZM526.151 684.56V692H524.903V690.56C524.439 691.472 523.671 692.16 522.375 692.16C521.143 692.16 519.655 691.44 519.655 689.456V684.56H520.935V689.216C520.935 690.464 521.575 691.024 522.535 691.024C523.383 691.024 524.119 690.56 524.535 689.728C524.807 689.184 524.871 688.64 524.871 687.712V684.56H526.151ZM532.073 684.4C534.073 684.4 535.513 686.112 535.513 688.272C535.513 690.528 534.009 692.16 532.057 692.16C531.001 692.16 530.185 691.488 529.657 690.64V692H528.393V680.48H529.673V685.824C530.201 685.024 531.001 684.4 532.073 684.4ZM531.977 691.072C533.273 691.072 534.185 689.904 534.185 688.272C534.185 686.64 533.241 685.504 531.993 685.504C530.537 685.504 529.561 686.72 529.561 688.288C529.561 689.808 530.617 691.072 531.977 691.072ZM490.197 703.92H485.845L484.325 708H482.933L487.301 696.8H488.741L493.109 708H491.717L490.197 703.92ZM489.749 702.72L488.021 698.08L486.293 702.72H489.749ZM500.944 705.216C500.608 707.632 498.928 708.16 497.664 708.16C495.792 708.16 494.08 706.736 494.08 704.288C494.08 701.696 495.984 700.4 497.792 700.4C499.152 700.4 500.8 700.88 501.216 703.088L499.936 703.488C499.808 701.952 498.736 701.552 497.808 701.552C496.512 701.552 495.408 702.576 495.408 704.272C495.408 705.968 496.464 707.008 497.728 707.008C498.64 707.008 499.616 706.4 499.664 704.832L500.944 705.216ZM508.585 705.312C508.489 707.92 507.097 708.16 506.153 708.16C504.873 708.16 503.913 707.296 503.913 705.84V701.696H502.121V700.56H503.913V697.904L505.193 696.32V700.56H508.217V701.696H505.193V705.824C505.193 706.656 505.593 707.008 506.281 707.008C507.017 707.008 507.401 706.368 507.273 705.168L508.585 705.312ZM510.933 698.144C510.405 698.144 510.005 697.744 510.005 697.216C510.005 696.72 510.405 696.32 510.933 696.32C511.445 696.32 511.845 696.72 511.845 697.216C511.845 697.744 511.445 698.144 510.933 698.144ZM510.277 700.56H511.573V708H510.277V700.56ZM517.119 708.16C514.959 708.16 513.423 706.48 513.423 704.272C513.423 702.016 514.911 700.4 517.119 700.4C519.327 700.4 520.815 702.016 520.815 704.272C520.815 706.48 519.279 708.16 517.119 708.16ZM517.119 707.04C518.447 707.04 519.487 705.888 519.487 704.224C519.487 702.592 518.447 701.52 517.119 701.52C515.791 701.52 514.751 702.592 514.751 704.224C514.751 705.888 515.791 707.04 517.119 707.04ZM526.444 700.4C527.66 700.4 529.164 701.12 529.164 703.104V708H527.884V703.344C527.884 702.096 527.26 701.536 526.268 701.536C525.436 701.536 524.7 702 524.284 702.832C524.012 703.376 523.932 703.92 523.932 704.848V708H522.652V700.56H523.916V701.984C524.38 701.072 525.148 700.4 526.444 700.4ZM535.692 703.136C535.852 702.048 534.972 701.488 533.9 701.488C532.876 701.488 532.299 701.968 532.299 702.48C532.299 702.896 532.604 703.136 533.084 703.296C533.916 703.584 534.428 703.664 535.148 703.92C535.98 704.208 536.668 704.752 536.668 705.84C536.668 706.992 535.708 708.16 533.836 708.16C532.076 708.16 530.876 707.184 530.828 705.536L532.124 705.232C531.996 706.304 532.668 707.04 533.804 707.04C534.876 707.04 535.356 706.464 535.356 705.856C535.356 705.36 535.02 705.12 534.444 704.944C533.852 704.768 533.228 704.64 532.539 704.368C531.548 703.984 531.004 703.392 531.004 702.464C531.004 701.312 532.348 700.4 533.9 700.4C535.34 700.4 536.86 701.008 536.988 702.88L535.692 703.136Z" fill="white"/>
<path d="M499.971 410.92H495.619L494.099 415H492.707L497.075 403.8H498.515L502.883 415H501.491L499.971 410.92ZM499.523 409.72L497.795 405.08L496.067 409.72H499.523ZM517.152 403.8L514.448 415H512.816L510 406.088L507.168 415H505.52L502.816 403.8H504.224L506.4 413.544L509.2 404.6H510.768L513.584 413.56L515.744 403.8H517.152ZM525.649 408.12C525.953 405.192 524.017 404.808 522.769 404.808C521.441 404.808 520.257 405.4 520.257 406.616C520.257 407.432 520.849 407.832 522.001 408.248C523.057 408.632 523.713 408.824 524.513 409.096C525.969 409.592 526.849 410.36 526.849 411.8C526.849 413.384 525.505 415.16 522.913 415.16C520.817 415.16 518.353 413.912 518.481 410.088L519.809 409.864C519.537 412.664 521.121 413.992 522.977 413.992C524.401 413.992 525.521 413.064 525.521 411.864C525.521 410.904 524.961 410.552 523.937 410.2L521.361 409.336C519.905 408.856 518.961 407.944 518.961 406.616C518.961 404.856 520.769 403.64 522.801 403.64C524.961 403.64 527.201 404.856 526.945 407.864L525.649 408.12Z" fill="white"/>
<path d="M481.431 323.462L460 335L481.431 346.538M481.431 323.462L510 338.846L538.569 323.462M481.431 323.462L460 311.923L510 285L560 311.923L538.569 323.462M481.431 346.538L460 358.077L510 385L560 358.077L538.569 346.538M481.431 346.538L510 361.923L538.569 346.538M538.569 323.462L560 335L538.569 346.538" stroke="white" stroke-width="2" stroke-linecap="round" stroke-linejoin="round"/>
<path d="M485.097 117.8V129H483.817V119.784L480.313 128.088H478.937L475.433 119.752V129H474.153V117.8H475.897L479.641 126.52L483.369 117.8H485.097ZM490.697 129.16C488.537 129.16 487.001 127.48 487.001 125.272C487.001 123.016 488.489 121.4 490.697 121.4C492.905 121.4 494.393 123.016 494.393 125.272C494.393 127.48 492.857 129.16 490.697 129.16ZM490.697 128.04C492.025 128.04 493.065 126.888 493.065 125.224C493.065 123.592 492.025 122.52 490.697 122.52C489.369 122.52 488.329 123.592 488.329 125.224C488.329 126.888 489.369 128.04 490.697 128.04ZM500.022 121.4C501.238 121.4 502.742 122.12 502.742 124.104V129H501.462V124.344C501.462 123.096 500.838 122.536 499.846 122.536C499.014 122.536 498.278 123 497.862 123.832C497.59 124.376 497.51 124.92 497.51 125.848V129H496.23V121.56H497.494V122.984C497.958 122.072 498.726 121.4 500.022 121.4ZM511.574 121.528V128.392C511.574 131.416 509.75 132.36 508.15 132.36C506.87 132.36 505.206 131.848 505.158 130.024L506.454 129.672C506.262 130.744 507.062 131.288 508.102 131.288C509.35 131.288 510.294 130.424 510.294 128.568V127.64C509.766 128.488 508.95 129.16 507.894 129.16C505.942 129.16 504.438 127.528 504.438 125.272C504.438 123.112 505.878 121.4 507.878 121.4C508.966 121.4 509.782 122.056 510.31 122.872V121.528H511.574ZM507.974 128.072C509.366 128.072 510.39 126.76 510.39 125.288C510.39 123.688 509.382 122.504 507.958 122.504C506.71 122.504 505.766 123.64 505.766 125.272C505.766 126.904 506.678 128.072 507.974 128.072ZM516.916 129.16C514.756 129.16 513.22 127.48 513.22 125.272C513.22 123.016 514.708 121.4 516.916 121.4C519.124 121.4 520.612 123.016 520.612 125.272C520.612 127.48 519.076 129.16 516.916 129.16ZM516.916 128.04C518.244 128.04 519.284 126.888 519.284 125.224C519.284 123.592 518.244 122.52 516.916 122.52C515.588 122.52 514.548 123.592 514.548 125.224C514.548 126.888 515.588 128.04 516.916 128.04ZM530.165 117.8C533.781 117.8 535.621 120.152 535.621 123.288C535.621 126.52 533.445 129 530.117 129H526.325V117.8H530.165ZM530.149 127.8C532.773 127.8 534.277 125.688 534.277 123.256C534.277 120.872 532.997 119 530.357 119H527.605V127.8H530.149ZM543.225 117.8C545.689 117.8 546.665 119.352 546.665 120.696C546.665 122.232 545.593 123.16 544.185 123.496C545.065 123.96 545.529 124.776 545.529 125.752C545.529 127.56 544.137 129 541.689 129H537.481V117.8H543.225ZM542.921 122.6C544.649 122.6 545.353 121.784 545.353 120.712C545.353 119.688 544.601 119 543.241 119H538.761V122.6H542.921ZM541.769 127.8C543.433 127.8 544.201 126.776 544.201 125.704C544.201 124.472 543.353 123.768 541.897 123.768H538.761V127.8H541.769Z" fill="white"/>
<path d="M552.615 22.1538C552.615 33.8359 533.672 43.3077 510.308 43.3077C486.944 43.3077 468 33.8359 468 22.1538M552.615 22.1538C552.615 10.4718 533.672 1 510.308 1C486.944 1 468 10.4718 468 22.1538M552.615 22.1538V79.8462C552.615 91.5282 533.672 101 510.308 101C486.944 101 468 91.5282 468 79.8462V22.1538M552.615 22.1538V41.3846M468 22.1538V41.3846M552.615 41.3846V60.6154C552.615 72.2974 533.672 81.7692 510.308 81.7692C486.944 81.7692 468 72.2974 468 60.6154V41.3846M552.615 41.3846C552.615 53.0667 533.672 62.5385 510.308 62.5385C486.944 62.5385 468 53.0667 468 41.3846" stroke="white" stroke-width="2" stroke-linecap="round" stroke-linejoin="round"/>
<path d="M999.258 683.728C998.73 687.056 996.554 688.16 994.41 688.16C991.434 688.16 989.034 685.872 989.034 682.4C989.034 678.928 991.45 676.64 994.474 676.64C997.002 676.64 999.082 677.888 999.642 680.832L998.314 681.232C997.946 678.736 996.33 677.84 994.506 677.84C992.202 677.84 990.378 679.648 990.378 682.384C990.378 685.232 992.282 686.96 994.426 686.96C995.866 686.96 997.658 686.112 997.946 683.328L999.258 683.728ZM1001.2 676.48H1002.48V688H1001.2V676.48ZM1007.92 688.16C1005.76 688.16 1004.22 686.48 1004.22 684.272C1004.22 682.016 1005.71 680.4 1007.92 680.4C1010.12 680.4 1011.61 682.016 1011.61 684.272C1011.61 686.48 1010.08 688.16 1007.92 688.16ZM1007.92 687.04C1009.24 687.04 1010.28 685.888 1010.28 684.224C1010.28 682.592 1009.24 681.52 1007.92 681.52C1006.59 681.52 1005.55 682.592 1005.55 684.224C1005.55 685.888 1006.59 687.04 1007.92 687.04ZM1019.57 680.56V688H1018.32V686.56C1017.85 687.472 1017.09 688.16 1015.79 688.16C1014.56 688.16 1013.07 687.44 1013.07 685.456V680.56H1014.35V685.216C1014.35 686.464 1014.99 687.024 1015.95 687.024C1016.8 687.024 1017.53 686.56 1017.95 685.728C1018.22 685.184 1018.29 684.64 1018.29 683.712V680.56H1019.57ZM1028.5 676.48V688H1027.23V686.64C1026.7 687.488 1025.89 688.16 1024.83 688.16C1022.88 688.16 1021.38 686.528 1021.38 684.272C1021.38 682.112 1022.82 680.4 1024.82 680.4C1025.89 680.4 1026.69 681.024 1027.22 681.824V676.48H1028.5ZM1024.91 687.072C1026.3 687.072 1027.33 685.76 1027.33 684.288C1027.33 682.688 1026.32 681.504 1024.9 681.504C1023.65 681.504 1022.7 682.64 1022.7 684.272C1022.7 685.904 1023.62 687.072 1024.91 687.072ZM1032.92 680.56H1035V681.712H1032.92V688H1031.64V681.712H1030.14V680.56H1031.64V679.024C1031.64 677.632 1032.35 676.32 1034.41 676.32C1034.71 676.32 1034.99 676.368 1035.07 676.4L1034.97 677.584C1034.78 677.52 1034.46 677.504 1034.15 677.536C1033.07 677.648 1032.92 678.352 1032.92 679.168V680.56ZM1036.71 676.48H1037.99V688H1036.71V676.48ZM1045.46 688C1045.13 687.552 1044.87 687.056 1044.76 686.384C1044.33 687.392 1043.56 688.16 1042.22 688.16C1040.81 688.16 1039.96 687.008 1039.96 685.84C1039.96 684.48 1040.84 683.84 1042.81 683.632C1043.48 683.568 1044.1 683.456 1044.55 683.168V682.832C1044.55 681.648 1043.67 681.504 1042.87 681.504C1041.91 681.504 1040.92 682.032 1041.3 683.232L1039.96 682.864C1039.75 681.024 1041.54 680.4 1042.92 680.4C1044.38 680.4 1045.82 680.864 1045.82 682.768V685.2C1045.82 686.704 1046.6 687.568 1046.92 688H1045.46ZM1042.46 687.04C1043.43 687.04 1044.41 686.16 1044.6 684.208C1044.2 684.448 1043.67 684.608 1043 684.704C1041.88 684.864 1041.27 685.04 1041.27 685.872C1041.27 686.48 1041.7 687.04 1042.46 687.04ZM1051.59 680.4C1053.62 680.4 1054.53 682.112 1053.69 684.352H1052.29C1053.03 682.688 1052.66 681.552 1051.35 681.552C1050.25 681.552 1049.46 682.608 1049.46 685.024V688H1048.18V680.56H1049.46V681.792C1049.89 680.992 1050.58 680.4 1051.59 680.4ZM1058.81 680.4C1060.82 680.4 1062.2 681.664 1062.09 683.776L1062.05 684.32H1056.47C1056.47 685.952 1057.37 687.04 1058.69 687.04C1059.75 687.04 1060.49 686.448 1060.58 685.184L1061.86 685.632C1061.45 687.392 1060.34 688.16 1058.68 688.16C1056.5 688.16 1055.17 686.512 1055.17 684.368C1055.17 681.744 1056.73 680.4 1058.81 680.4ZM1058.84 681.488C1057.8 681.488 1056.93 682.032 1056.61 683.232H1060.82C1060.68 681.84 1059.72 681.488 1058.84 681.488ZM1014.24 692.8C1017.85 692.8 1019.69 695.152 1019.69 698.288C1019.69 701.52 1017.52 704 1014.19 704H1010.4V692.8H1014.24ZM1014.22 702.8C1016.84 702.8 1018.35 700.688 1018.35 698.256C1018.35 695.872 1017.07 694 1014.43 694H1011.68V702.8H1014.22ZM1030.46 692.8V704H1028.72L1022.83 694.528V704H1021.55V692.8H1023.26L1029.18 702.48V692.8H1030.46ZM1039.68 697.12C1039.98 694.192 1038.05 693.808 1036.8 693.808C1035.47 693.808 1034.29 694.4 1034.29 695.616C1034.29 696.432 1034.88 696.832 1036.03 697.248C1037.09 697.632 1037.74 697.824 1038.54 698.096C1040 698.592 1040.88 699.36 1040.88 700.8C1040.88 702.384 1039.54 704.16 1036.94 704.16C1034.85 704.16 1032.38 702.912 1032.51 699.088L1033.84 698.864C1033.57 701.664 1035.15 702.992 1037.01 702.992C1038.43 702.992 1039.55 702.064 1039.55 700.864C1039.55 699.904 1038.99 699.552 1037.97 699.2L1035.39 698.336C1033.94 697.856 1032.99 696.944 1032.99 695.616C1032.99 693.856 1034.8 692.64 1036.83 692.64C1038.99 692.64 1041.23 693.856 1040.98 696.864L1039.68 697.12Z" fill="white"/>
<path d="M1058.16 633.844H995.698C990.744 633.909 985.953 632.084 982.297 628.741C978.642 625.398 976.398 620.787 976.022 615.848C976.022 615.328 976.022 614.808 976.022 614.288C975.82 610.199 977.001 606.161 979.373 602.824C981.745 599.488 985.171 597.046 989.099 595.893C989.099 595.333 989.099 594.773 989.099 594.253C989.243 589.207 990.775 584.298 993.526 580.065C996.278 575.832 1000.14 572.439 1004.7 570.259C1009.62 568.066 1015.11 567.451 1020.4 568.496C1025.69 569.541 1030.53 572.196 1034.25 576.097C1036.79 578.689 1038.84 581.725 1040.29 585.055C1041.74 583.851 1043.46 583.018 1045.31 582.627C1047.16 582.237 1049.07 582.302 1050.88 582.816C1053.55 583.753 1055.87 585.471 1057.55 587.747C1059.22 590.022 1060.18 592.749 1060.28 595.573C1064.72 596.334 1068.74 598.653 1071.62 602.113C1074.5 605.573 1076.05 609.947 1076 614.448C1076 632.164 1058.36 633.804 1058.16 633.844ZM991.499 599.172C988.097 599.91 985.072 601.838 982.968 604.61C980.863 607.382 979.818 610.814 980.021 614.288C980.021 614.728 980.021 615.168 980.021 615.608C980.357 619.585 982.2 623.283 985.174 625.945C988.148 628.607 992.028 630.031 996.017 629.925H1058.36C1062.26 629.583 1065.88 627.793 1068.52 624.91C1071.17 622.027 1072.63 618.259 1072.63 614.348C1072.63 610.438 1071.17 606.67 1068.52 603.787C1065.88 600.903 1062.26 599.114 1058.36 598.772C1058.12 598.733 1057.88 598.646 1057.67 598.517C1057.46 598.387 1057.28 598.217 1057.13 598.016C1056.99 597.816 1056.89 597.588 1056.83 597.347C1056.77 597.107 1056.76 596.857 1056.8 596.613C1056.88 594.401 1056.27 592.219 1055.06 590.365C1053.85 588.512 1052.1 587.076 1050.04 586.255C1048.45 585.816 1046.76 585.88 1045.21 586.438C1043.66 586.997 1042.31 588.022 1041.37 589.374C1041.16 589.657 1040.88 589.877 1040.55 590.011C1040.23 590.145 1039.87 590.188 1039.53 590.134C1039.18 590.072 1038.86 589.921 1038.6 589.696C1038.33 589.472 1038.13 589.182 1038.01 588.854C1036.61 585.064 1034.38 581.634 1031.49 578.817C1028.31 575.458 1024.17 573.169 1019.63 572.266C1015.1 571.363 1010.4 571.892 1006.18 573.778C1002.3 575.708 999.026 578.648 996.689 582.287C994.352 585.927 993.042 590.13 992.898 594.453C992.839 595.385 992.839 596.32 992.898 597.252C992.958 597.732 992.835 598.217 992.554 598.61C992.272 599.003 991.852 599.275 991.379 599.372L991.499 599.172Z" fill="white"/>
<path d="M716.412 401.16C712.972 401.16 710.844 398.424 710.844 395.368C710.844 392.376 712.892 389.64 716.412 389.64C719.916 389.64 721.964 392.376 721.964 395.368C721.964 398.424 719.852 401.16 716.412 401.16ZM716.412 399.976C718.956 399.976 720.62 397.928 720.62 395.368C720.62 392.808 718.908 390.824 716.412 390.824C713.9 390.824 712.188 392.808 712.188 395.368C712.188 397.928 713.868 399.976 716.412 399.976ZM727.409 393.4C729.409 393.4 730.849 395.112 730.849 397.272C730.849 399.528 729.345 401.16 727.393 401.16C726.353 401.16 725.537 400.488 725.009 399.656V404.2H723.729V393.56H724.993V394.856C725.521 394.04 726.321 393.4 727.409 393.4ZM727.313 400.072C728.609 400.072 729.521 398.904 729.521 397.272C729.521 395.64 728.577 394.504 727.329 394.504C725.873 394.504 724.897 395.72 724.897 397.288C724.897 398.808 725.953 400.072 727.313 400.072ZM735.884 393.4C737.9 393.4 739.276 394.664 739.164 396.776L739.132 397.32H733.548C733.548 398.952 734.444 400.04 735.772 400.04C736.828 400.04 737.564 399.448 737.66 398.184L738.94 398.632C738.524 400.392 737.42 401.16 735.756 401.16C733.58 401.16 732.252 399.512 732.252 397.368C732.252 394.744 733.804 393.4 735.884 393.4ZM735.916 394.488C734.876 394.488 734.012 395.032 733.692 396.232H737.9C737.756 394.84 736.796 394.488 735.916 394.488ZM744.756 393.4C745.972 393.4 747.476 394.12 747.476 396.104V401H746.196V396.344C746.196 395.096 745.572 394.536 744.58 394.536C743.748 394.536 743.012 395 742.596 395.832C742.324 396.376 742.244 396.92 742.244 397.848V401H740.964V393.56H742.228V394.984C742.692 394.072 743.46 393.4 744.756 393.4ZM756.244 396.92H751.892L750.372 401H748.98L753.348 389.8H754.788L759.156 401H757.764L756.244 396.92ZM755.796 395.72L754.068 391.08L752.34 395.72H755.796ZM760.64 389.8H761.92V401H760.64V389.8ZM774.791 396.92H770.439L768.919 401H767.527L771.895 389.8H773.335L777.703 401H776.311L774.791 396.92ZM774.343 395.72L772.615 391.08L770.887 395.72H774.343ZM783.955 389.8C785.987 389.8 787.507 390.936 787.507 392.824C787.507 394.728 785.987 395.912 783.955 395.912H780.355V401H779.075V389.8H783.955ZM783.811 394.712C785.715 394.712 786.163 393.704 786.163 392.824C786.163 391.944 785.715 391 783.811 391H780.355V394.712H783.811ZM789.218 389.8H790.498V401H789.218V389.8Z" fill="white"/>
<g clip-path="url(#clip1_202_173)">
<path d="M796.426 372H753.447C752.234 372 751.07 371.518 750.212 370.66C749.354 369.802 748.872 368.639 748.872 367.426V324.574C748.872 323.327 749.368 322.131 750.25 321.25C751.131 320.368 752.327 319.872 753.574 319.872H796.298C797.545 319.872 798.741 320.368 799.623 321.25C800.505 322.131 801 323.327 801 324.574V367.426C801 368.639 800.518 369.802 799.66 370.66C798.802 371.518 797.639 372 796.426 372V372ZM753.574 324.128C753.458 324.133 753.347 324.182 753.264 324.264C753.182 324.347 753.133 324.458 753.128 324.574V367.426C753.128 367.51 753.161 367.591 753.221 367.651C753.281 367.711 753.362 367.745 753.447 367.745H796.426C796.51 367.745 796.591 367.711 796.651 367.651C796.711 367.591 796.745 367.51 796.745 367.426V324.574C796.739 324.458 796.691 324.347 796.608 324.264C796.525 324.182 796.415 324.133 796.298 324.128H753.574Z" fill="white"/>
<path d="M744.872 348.064H727.596C726.975 348.056 726.363 347.925 725.793 347.68C725.223 347.435 724.707 347.08 724.274 346.635C723.842 346.191 723.501 345.665 723.271 345.089C723.042 344.513 722.928 343.897 722.936 343.277V300.724C722.928 300.103 723.042 299.487 723.271 298.911C723.501 298.335 723.842 297.809 724.274 297.365C724.707 296.92 725.223 296.565 725.793 296.32C726.363 296.075 726.975 295.945 727.596 295.936H770.362C770.986 295.936 771.605 296.061 772.181 296.302C772.757 296.544 773.279 296.898 773.717 297.343C774.155 297.789 774.499 298.318 774.731 298.898C774.962 299.478 775.075 300.099 775.064 300.724V316.106H770.809V300.724C770.809 300.605 770.761 300.491 770.678 300.408C770.594 300.324 770.48 300.277 770.362 300.277H727.596C727.475 300.277 727.359 300.323 727.272 300.406C727.185 300.489 727.133 300.603 727.128 300.724V343.277C727.133 343.397 727.185 343.511 727.272 343.594C727.359 343.677 727.475 343.724 727.596 343.724H744.809L744.872 348.064Z" fill="white"/>
<path d="M719.085 324.128H705.702C705.085 324.128 704.473 324.006 703.903 323.77C703.332 323.533 702.814 323.187 702.377 322.75C701.941 322.314 701.594 321.795 701.358 321.225C701.122 320.654 701 320.043 701 319.426V276.702C701 275.455 701.495 274.259 702.377 273.377C703.259 272.495 704.455 272 705.702 272H748.426C749.043 272 749.654 272.122 750.225 272.358C750.795 272.594 751.314 272.941 751.75 273.377C752.187 273.814 752.533 274.332 752.77 274.903C753.006 275.473 753.128 276.085 753.128 276.702V292.085H748.872V276.702C748.867 276.585 748.818 276.475 748.736 276.392C748.653 276.309 748.542 276.261 748.426 276.255H705.702C705.585 276.261 705.475 276.309 705.392 276.392C705.309 276.475 705.261 276.585 705.255 276.702V319.426C705.261 319.542 705.309 319.653 705.392 319.736C705.475 319.818 705.585 319.867 705.702 319.872H719.085V324.128Z" fill="white"/>
</g>
<path d="M2.7157 504V507.28L7.7397 507.248V508.448L2.7157 508.48V514H1.4357V502.8H8.84371V504H2.7157ZM14.9958 514C14.6598 513.552 14.4038 513.056 14.2918 512.384C13.8598 513.392 13.0918 514.16 11.7478 514.16C10.3398 514.16 9.49183 513.008 9.49183 511.84C9.49183 510.48 10.3718 509.84 12.3398 509.632C13.0118 509.568 13.6358 509.456 14.0838 509.168V508.832C14.0838 507.648 13.2038 507.504 12.4038 507.504C11.4438 507.504 10.4518 508.032 10.8358 509.232L9.49183 508.864C9.28383 507.024 11.0758 506.4 12.4518 506.4C13.9078 506.4 15.3478 506.864 15.3478 508.768V511.2C15.3478 512.704 16.1318 513.568 16.4518 514H14.9958ZM11.9878 513.04C12.9638 513.04 13.9398 512.16 14.1318 510.208C13.7318 510.448 13.2038 510.608 12.5318 510.704C11.4118 510.864 10.8038 511.04 10.8038 511.872C10.8038 512.48 11.2358 513.04 11.9878 513.04ZM22.0835 509.136C22.2435 508.048 21.3635 507.488 20.2915 507.488C19.2675 507.488 18.6915 507.968 18.6915 508.48C18.6915 508.896 18.9955 509.136 19.4755 509.296C20.3075 509.584 20.8195 509.664 21.5395 509.92C22.3715 510.208 23.0595 510.752 23.0595 511.84C23.0595 512.992 22.0995 514.16 20.2275 514.16C18.4675 514.16 17.2675 513.184 17.2195 511.536L18.5155 511.232C18.3875 512.304 19.0595 513.04 20.1955 513.04C21.2675 513.04 21.7475 512.464 21.7475 511.856C21.7475 511.36 21.4115 511.12 20.8355 510.944C20.2435 510.768 19.6195 510.64 18.9315 510.368C17.9395 509.984 17.3955 509.392 17.3955 508.464C17.3955 507.312 18.7395 506.4 20.2915 506.4C21.7315 506.4 23.2515 507.008 23.3795 508.88L22.0835 509.136ZM30.586 511.312C30.49 513.92 29.098 514.16 28.154 514.16C26.874 514.16 25.914 513.296 25.914 511.84V507.696H24.122V506.56H25.914V503.904L27.194 502.32V506.56H30.218V507.696H27.194V511.824C27.194 512.656 27.594 513.008 28.282 513.008C29.018 513.008 29.402 512.368 29.274 511.168L30.586 511.312ZM38.8703 509.92H34.5183L32.9983 514H31.6063L35.9743 502.8H37.4143L41.7823 514H40.3903L38.8703 509.92ZM38.4223 508.72L36.6943 504.08L34.9663 508.72H38.4223ZM48.0345 502.8C50.0665 502.8 51.5865 503.936 51.5865 505.824C51.5865 507.728 50.0665 508.912 48.0345 508.912H44.4345V514H43.1545V502.8H48.0345ZM47.8905 507.712C49.7945 507.712 50.2425 506.704 50.2425 505.824C50.2425 504.944 49.7945 504 47.8905 504H44.4345V507.712H47.8905ZM53.2977 502.8H54.5777V514H53.2977V502.8Z" fill="white"/>
<path d="M51.5532 575.128H8.57447C7.36124 575.128 6.19771 574.646 5.33983 573.788C4.48195 572.93 4 571.766 4 570.553V527.702C4 526.455 4.4954 525.259 5.37722 524.377C6.25904 523.495 7.45504 523 8.70213 523H51.4255C52.6726 523 53.8686 523.495 54.7504 524.377C55.6323 525.259 56.1277 526.455 56.1277 527.702V570.553C56.1277 571.766 55.6457 572.93 54.7878 573.788C53.93 574.646 52.7664 575.128 51.5532 575.128V575.128ZM8.70213 527.255C8.5853 527.261 8.47465 527.309 8.39195 527.392C8.30926 527.475 8.26052 527.585 8.25532 527.702V570.553C8.25532 570.638 8.28894 570.719 8.3488 570.779C8.40865 570.839 8.48982 570.872 8.57447 570.872H51.5532C51.6378 570.872 51.719 570.839 51.7789 570.779C51.8387 570.719 51.8723 570.638 51.8723 570.553V527.702C51.8671 527.585 51.8184 527.475 51.7357 527.392C51.653 527.309 51.5424 527.261 51.4255 527.255H8.70213Z" fill="white"/>
<path d="M27.8769 543.8C29.9089 543.8 31.4289 544.936 31.4289 546.824C31.4289 548.728 29.9089 549.912 27.8769 549.912H24.2769V555H22.9969V543.8H27.8769ZM27.7329 548.712C29.6369 548.712 30.0849 547.704 30.0849 546.824C30.0849 545.944 29.6369 545 27.7329 545H24.2769V548.712H27.7329ZM39.5881 547.56L36.5961 555C36.0681 556.312 35.4921 557.976 33.1881 558.36L32.6441 557.288C34.6281 556.904 34.7401 556.168 35.3001 555L32.2921 547.56H33.7321L35.9401 553.56L38.1321 547.56H39.5881Z" fill="white"/>
<path d="M51.4893 707.128H8.51062C7.2974 707.128 6.13387 706.646 5.27599 705.788C4.41811 704.93 3.93616 703.766 3.93616 702.553V659.702C3.93616 658.455 4.43156 657.259 5.31338 656.377C6.1952 655.495 7.3912 655 8.63828 655H51.3617C52.6088 655 53.8048 655.495 54.6866 656.377C55.5684 657.259 56.0638 658.455 56.0638 659.702V702.553C56.0638 703.766 55.5819 704.93 54.724 705.788C53.8661 706.646 52.7026 707.128 51.4893 707.128V707.128ZM8.63828 659.255C8.52145 659.261 8.4108 659.309 8.32811 659.392C8.24542 659.475 8.19668 659.585 8.19148 659.702V702.553C8.19148 702.638 8.2251 702.719 8.28495 702.779C8.3448 702.839 8.42598 702.872 8.51062 702.872H51.4893C51.574 702.872 51.6552 702.839 51.715 702.779C51.7749 702.719 51.8085 702.638 51.8085 702.553V659.702C51.8033 659.585 51.7546 659.475 51.6719 659.392C51.5892 659.309 51.4785 659.261 51.3617 659.255H8.63828Z" fill="white"/>
<path d="M11.1901 715.928V727.128H9.44613L3.55813 717.656V727.128H2.27813V715.928H3.99013L9.91013 725.608V715.928H11.1901ZM16.7586 719.528C18.7746 719.528 20.1506 720.792 20.0386 722.904L20.0066 723.448H14.4226C14.4226 725.08 15.3186 726.168 16.6466 726.168C17.7026 726.168 18.4386 725.576 18.5346 724.312L19.8146 724.76C19.3986 726.52 18.2946 727.288 16.6306 727.288C14.4546 727.288 13.1266 725.64 13.1266 723.496C13.1266 720.872 14.6786 719.528 16.7586 719.528ZM16.7906 720.616C15.7506 720.616 14.8866 721.16 14.5666 722.36H18.7746C18.6306 720.968 17.6706 720.616 16.7906 720.616ZM26.1853 727.128L24.3133 723.848L22.4413 727.128H20.9053L23.3693 723.08L21.0493 719.688H22.5533L24.3133 722.328L26.0733 719.688H27.5773L25.2573 723.08L27.7213 727.128H26.1853ZM35.2878 724.44C35.1918 727.048 33.7998 727.288 32.8558 727.288C31.5758 727.288 30.6158 726.424 30.6158 724.968V720.824H28.8238V719.688H30.6158V717.032L31.8958 715.448V719.688H34.9198V720.824H31.8958V724.952C31.8958 725.784 32.2958 726.136 32.9838 726.136C33.7198 726.136 34.1038 725.496 33.9758 724.296L35.2878 724.44ZM38.3401 725.56V727.128H36.7881V725.56H38.3401ZM43.6649 727.288C41.8409 727.288 39.7929 726.024 39.7929 723.336C39.7929 722.04 40.4489 720.92 40.9129 720.264L42.2569 720.696C41.7129 721.288 41.1209 722.216 41.1209 723.336C41.1209 725.048 42.2249 726.088 43.6969 726.088C45.2169 726.088 46.3689 725.08 46.3689 722.808V715.928H47.6649V722.84C47.6649 726.6 45.1689 727.288 43.6649 727.288ZM56.7973 720.248C57.1013 717.32 55.1653 716.936 53.9173 716.936C52.5893 716.936 51.4053 717.528 51.4053 718.744C51.4053 719.56 51.9973 719.96 53.1493 720.376C54.2053 720.76 54.8613 720.952 55.6613 721.224C57.1173 721.72 57.9973 722.488 57.9973 723.928C57.9973 725.512 56.6533 727.288 54.0613 727.288C51.9653 727.288 49.5013 726.04 49.6293 722.216L50.9573 721.992C50.6853 724.792 52.2693 726.12 54.1253 726.12C55.5493 726.12 56.6693 725.192 56.6693 723.992C56.6693 723.032 56.1093 722.68 55.0853 722.328L52.5093 721.464C51.0533 720.984 50.1093 720.072 50.1093 718.744C50.1093 716.984 51.9173 715.768 53.9493 715.768C56.1093 715.768 58.3493 716.984 58.0933 719.992L56.7973 720.248Z" fill="white"/>
<path d="M30.8298 677H26.2858V687H25.0058V677H20.4458V675.8H30.8298V677ZM38.7816 680.12C39.0856 677.192 37.1496 676.808 35.9016 676.808C34.5736 676.808 33.3896 677.4 33.3896 678.616C33.3896 679.432 33.9816 679.832 35.1336 680.248C36.1896 680.632 36.8456 680.824 37.6456 681.096C39.1016 681.592 39.9816 682.36 39.9816 683.8C39.9816 685.384 38.6376 687.16 36.0456 687.16C33.9496 687.16 31.4856 685.912 31.6136 682.088L32.9416 681.864C32.6696 684.664 34.2536 685.992 36.1096 685.992C37.5336 685.992 38.6536 685.064 38.6536 683.864C38.6536 682.904 38.0936 682.552 37.0696 682.2L34.4936 681.336C33.0376 680.856 32.0936 679.944 32.0936 678.616C32.0936 676.856 33.9016 675.64 35.9336 675.64C38.0936 675.64 40.3336 676.856 40.0776 679.864L38.7816 680.12Z" fill="white"/>
<path d="M720.422 678.8L716.054 690H714.614L710.246 678.8H711.638L715.334 688.72L719.03 678.8H720.422ZM723.837 682.4C725.853 682.4 727.229 683.664 727.117 685.776L727.085 686.32H721.501C721.501 687.952 722.397 689.04 723.725 689.04C724.781 689.04 725.517 688.448 725.613 687.184L726.893 687.632C726.477 689.392 725.373 690.16 723.709 690.16C721.533 690.16 720.205 688.512 720.205 686.368C720.205 683.744 721.757 682.4 723.837 682.4ZM723.869 683.488C722.829 683.488 721.965 684.032 721.645 685.232H725.853C725.709 683.84 724.749 683.488 723.869 683.488ZM732.325 682.4C734.357 682.4 735.269 684.112 734.421 686.352H733.029C733.765 684.688 733.397 683.552 732.085 683.552C730.981 683.552 730.197 684.608 730.197 687.024V690H728.917V682.56H730.197V683.792C730.629 682.992 731.317 682.4 732.325 682.4ZM742.772 687.216C742.436 689.632 740.756 690.16 739.492 690.16C737.62 690.16 735.908 688.736 735.908 686.288C735.908 683.696 737.812 682.4 739.62 682.4C740.98 682.4 742.628 682.88 743.044 685.088L741.764 685.488C741.636 683.952 740.564 683.552 739.636 683.552C738.34 683.552 737.236 684.576 737.236 686.272C737.236 687.968 738.292 689.008 739.556 689.008C740.468 689.008 741.444 688.4 741.492 686.832L742.772 687.216ZM748.009 682.4C750.025 682.4 751.401 683.664 751.289 685.776L751.257 686.32H745.673C745.673 687.952 746.569 689.04 747.897 689.04C748.953 689.04 749.689 688.448 749.785 687.184L751.065 687.632C750.649 689.392 749.545 690.16 747.881 690.16C745.705 690.16 744.377 688.512 744.377 686.368C744.377 683.744 745.929 682.4 748.009 682.4ZM748.041 683.488C747.001 683.488 746.137 684.032 745.817 685.232H750.025C749.881 683.84 748.921 683.488 748.041 683.488ZM752.993 678.48H754.273V690H752.993V678.48ZM763.909 682.4C765.909 682.4 767.349 684.112 767.349 686.272C767.349 688.528 765.845 690.16 763.893 690.16C762.837 690.16 762.021 689.488 761.493 688.64V690H760.229V678.48H761.509V683.824C762.037 683.024 762.837 682.4 763.909 682.4ZM763.813 689.072C765.109 689.072 766.021 687.904 766.021 686.272C766.021 684.64 765.077 683.504 763.829 683.504C762.373 683.504 761.397 684.72 761.397 686.288C761.397 687.808 762.453 689.072 763.813 689.072ZM775.269 682.56V690H774.021V688.56C773.557 689.472 772.789 690.16 771.493 690.16C770.261 690.16 768.773 689.44 768.773 687.456V682.56H770.053V687.216C770.053 688.464 770.693 689.024 771.653 689.024C772.501 689.024 773.237 688.56 773.653 687.728C773.925 687.184 773.989 686.64 773.989 685.712V682.56H775.269ZM778.214 680.144C777.686 680.144 777.286 679.744 777.286 679.216C777.286 678.72 777.686 678.32 778.214 678.32C778.726 678.32 779.126 678.72 779.126 679.216C779.126 679.744 778.726 680.144 778.214 680.144ZM777.558 682.56H778.854V690H777.558V682.56ZM781.04 678.48H782.32V690H781.04V678.48ZM791.151 678.48V690H789.887V688.64C789.359 689.488 788.543 690.16 787.487 690.16C785.535 690.16 784.031 688.528 784.031 686.272C784.031 684.112 785.471 682.4 787.471 682.4C788.543 682.4 789.343 683.024 789.871 683.824V678.48H791.151ZM787.567 689.072C788.959 689.072 789.983 687.76 789.983 686.288C789.983 684.688 788.975 683.504 787.551 683.504C786.303 683.504 785.359 684.64 785.359 686.272C785.359 687.904 786.271 689.072 787.567 689.072ZM719.815 706C719.479 705.552 719.223 705.056 719.111 704.384C718.679 705.392 717.911 706.16 716.567 706.16C715.159 706.16 714.311 705.008 714.311 703.84C714.311 702.48 715.191 701.84 717.159 701.632C717.831 701.568 718.455 701.456 718.903 701.168V700.832C718.903 699.648 718.023 699.504 717.223 699.504C716.263 699.504 715.271 700.032 715.655 701.232L714.311 700.864C714.103 699.024 715.895 698.4 717.271 698.4C718.727 698.4 720.167 698.864 720.167 700.768V703.2C720.167 704.704 720.951 705.568 721.271 706H719.815ZM716.807 705.04C717.783 705.04 718.759 704.16 718.951 702.208C718.551 702.448 718.023 702.608 717.351 702.704C716.231 702.864 715.623 703.04 715.623 703.872C715.623 704.48 716.055 705.04 716.807 705.04ZM726.326 698.4C727.542 698.4 729.046 699.12 729.046 701.104V706H727.766V701.344C727.766 700.096 727.142 699.536 726.15 699.536C725.318 699.536 724.582 700 724.166 700.832C723.894 701.376 723.814 701.92 723.814 702.848V706H722.534V698.56H723.798V699.984C724.262 699.072 725.03 698.4 726.326 698.4ZM737.862 694.48V706H736.598V704.64C736.07 705.488 735.254 706.16 734.198 706.16C732.246 706.16 730.742 704.528 730.742 702.272C730.742 700.112 732.182 698.4 734.182 698.4C735.254 698.4 736.054 699.024 736.582 699.824V694.48H737.862ZM734.278 705.072C735.67 705.072 736.694 703.76 736.694 702.288C736.694 700.688 735.686 699.504 734.262 699.504C733.014 699.504 732.07 700.64 732.07 702.272C732.07 703.904 732.982 705.072 734.278 705.072ZM750.55 694.48V706H749.286V704.64C748.758 705.488 747.942 706.16 746.886 706.16C744.934 706.16 743.43 704.528 743.43 702.272C743.43 700.112 744.87 698.4 746.87 698.4C747.942 698.4 748.742 699.024 749.27 699.824V694.48H750.55ZM746.966 705.072C748.358 705.072 749.382 703.76 749.382 702.288C749.382 700.688 748.374 699.504 746.95 699.504C745.702 699.504 744.758 700.64 744.758 702.272C744.758 703.904 745.67 705.072 746.966 705.072ZM756.001 698.4C758.017 698.4 759.393 699.664 759.281 701.776L759.249 702.32H753.665C753.665 703.952 754.561 705.04 755.889 705.04C756.945 705.04 757.681 704.448 757.777 703.184L759.057 703.632C758.641 705.392 757.537 706.16 755.873 706.16C753.697 706.16 752.369 704.512 752.369 702.368C752.369 699.744 753.921 698.4 756.001 698.4ZM756.033 699.488C754.993 699.488 754.129 700.032 753.809 701.232H758.017C757.873 699.84 756.913 699.488 756.033 699.488ZM764.729 698.4C766.729 698.4 768.169 700.112 768.169 702.272C768.169 704.528 766.665 706.16 764.713 706.16C763.673 706.16 762.857 705.488 762.329 704.656V709.2H761.049V698.56H762.313V699.856C762.841 699.04 763.641 698.4 764.729 698.4ZM764.633 705.072C765.929 705.072 766.841 703.904 766.841 702.272C766.841 700.64 765.897 699.504 764.649 699.504C763.193 699.504 762.217 700.72 762.217 702.288C762.217 703.808 763.273 705.072 764.633 705.072ZM769.876 694.48H771.156V706H769.876V694.48ZM776.595 706.16C774.435 706.16 772.899 704.48 772.899 702.272C772.899 700.016 774.387 698.4 776.595 698.4C778.803 698.4 780.291 700.016 780.291 702.272C780.291 704.48 778.755 706.16 776.595 706.16ZM776.595 705.04C777.923 705.04 778.963 703.888 778.963 702.224C778.963 700.592 777.923 699.52 776.595 699.52C775.267 699.52 774.227 700.592 774.227 702.224C774.227 703.888 775.267 705.04 776.595 705.04ZM788.205 698.56L785.213 706C784.685 707.312 784.109 708.976 781.805 709.36L781.261 708.288C783.245 707.904 783.357 707.168 783.917 706L780.909 698.56H782.349L784.557 704.56L786.749 698.56H788.205Z" fill="white"/>
<path d="M751 548L801 634.604H701L751 548Z" fill="white"/>
<path d="M511.5 478H1018.5V561" stroke="white" stroke-width="2"/>
<path d="M751 518V478.5" stroke="white" stroke-width="2"/>
<defs>
<clipPath id="clip0_202_173">
<rect width="100" height="100" fill="white" transform="translate(1275 573)"/>
</clipPath>
<clipPath id="clip1_202_173">
<rect width="100" height="100" fill="white" transform="translate(701 272)"/>
</clipPath>
</defs>
</svg>

