<svg width="801" height="702" viewBox="0 0 801 702" fill="none" xmlns="http://www.w3.org/2000/svg">
<path d="M26.3268 407.8C28.7908 407.8 29.7668 409.352 29.7668 410.696C29.7668 412.232 28.6948 413.16 27.2868 413.496C28.1668 413.96 28.6308 414.776 28.6308 415.752C28.6308 417.56 27.2388 419 24.7908 419H20.5828V407.8H26.3268ZM26.0228 412.6C27.7508 412.6 28.4548 411.784 28.4548 410.712C28.4548 409.688 27.7028 409 26.3428 409H21.8628V412.6H26.0228ZM24.8708 417.8C26.5348 417.8 27.3028 416.776 27.3028 415.704C27.3028 414.472 26.4548 413.768 24.9988 413.768H21.8628V417.8H24.8708ZM34.6924 411.4C36.7244 411.4 37.6364 413.112 36.7884 415.352H35.3964C36.1324 413.688 35.7644 412.552 34.4524 412.552C33.3484 412.552 32.5644 413.608 32.5644 416.024V419H31.2844V411.56H32.5644V412.792C32.9964 411.992 33.6844 411.4 34.6924 411.4ZM41.9391 419.16C39.7791 419.16 38.2431 417.48 38.2431 415.272C38.2431 413.016 39.7311 411.4 41.9391 411.4C44.1471 411.4 45.6351 413.016 45.6351 415.272C45.6351 417.48 44.0991 419.16 41.9391 419.16ZM41.9391 418.04C43.2671 418.04 44.3071 416.888 44.3071 415.224C44.3071 413.592 43.2671 412.52 41.9391 412.52C40.6111 412.52 39.5711 413.592 39.5711 415.224C39.5711 416.888 40.6111 418.04 41.9391 418.04ZM57.4154 411.56L55.4794 419H53.8634L51.9754 413.528L50.0714 419H48.4394L46.5034 411.56H47.8794L49.3034 417.672L51.2074 412.12H52.7114L54.6154 417.672L56.0554 411.56H57.4154ZM63.0587 414.136C63.2187 413.048 62.3387 412.488 61.2667 412.488C60.2427 412.488 59.6667 412.968 59.6667 413.48C59.6667 413.896 59.9707 414.136 60.4507 414.296C61.2827 414.584 61.7947 414.664 62.5147 414.92C63.3467 415.208 64.0347 415.752 64.0347 416.84C64.0347 417.992 63.0747 419.16 61.2027 419.16C59.4427 419.16 58.2427 418.184 58.1947 416.536L59.4907 416.232C59.3627 417.304 60.0347 418.04 61.1707 418.04C62.2427 418.04 62.7227 417.464 62.7227 416.856C62.7227 416.36 62.3867 416.12 61.8107 415.944C61.2187 415.768 60.5947 415.64 59.9067 415.368C58.9147 414.984 58.3707 414.392 58.3707 413.464C58.3707 412.312 59.7147 411.4 61.2667 411.4C62.7067 411.4 64.2267 412.008 64.3547 413.88L63.0587 414.136ZM69.2821 411.4C71.2981 411.4 72.6741 412.664 72.5621 414.776L72.5301 415.32H66.9461C66.9461 416.952 67.8421 418.04 69.1701 418.04C70.2261 418.04 70.9621 417.448 71.0581 416.184L72.3381 416.632C71.9221 418.392 70.8181 419.16 69.1541 419.16C66.9781 419.16 65.6501 417.512 65.6501 415.368C65.6501 412.744 67.2021 411.4 69.2821 411.4ZM69.3141 412.488C68.2741 412.488 67.4101 413.032 67.0901 414.232H71.2981C71.1541 412.84 70.1941 412.488 69.3141 412.488ZM77.7706 411.4C79.8026 411.4 80.7146 413.112 79.8666 415.352H78.4746C79.2106 413.688 78.8426 412.552 77.5306 412.552C76.4266 412.552 75.6426 413.608 75.6426 416.024V419H74.3626V411.56H75.6426V412.792C76.0746 411.992 76.7626 411.4 77.7706 411.4Z" fill="white"/>
<path d="M215.707 335.707C216.098 335.317 216.098 334.683 215.707 334.293L209.343 327.929C208.953 327.538 208.319 327.538 207.929 327.929C207.538 328.319 207.538 328.953 207.929 329.343L213.586 335L207.929 340.657C207.538 341.047 207.538 341.681 207.929 342.071C208.319 342.462 208.953 342.462 209.343 342.071L215.707 335.707ZM115 336H215V334H115V336Z" fill="white"/>
<path d="M445.707 335.707C446.098 335.317 446.098 334.683 445.707 334.293L439.343 327.929C438.953 327.538 438.319 327.538 437.929 327.929C437.538 328.319 437.538 328.953 437.929 329.343L443.586 335L437.929 340.657C437.538 341.047 437.538 341.681 437.929 342.071C438.319 342.462 438.953 342.462 439.343 342.071L445.707 335.707ZM345 336H445V334H345V336Z" fill="white"/>
<path d="M445.707 615.707C446.098 615.317 446.098 614.683 445.707 614.293L439.343 607.929C438.953 607.538 438.319 607.538 437.929 607.929C437.538 608.319 437.538 608.953 437.929 609.343L443.586 615L437.929 620.657C437.538 621.047 437.538 621.681 437.929 622.071C438.319 622.462 438.953 622.462 439.343 622.071L445.707 615.707ZM345 616H445V614H345V616Z" fill="white"/>
<path d="M509.293 258.707C509.683 259.098 510.317 259.098 510.707 258.707L517.071 252.343C517.462 251.953 517.462 251.319 517.071 250.929C516.681 250.538 516.047 250.538 515.657 250.929L510 256.586L504.343 250.929C503.953 250.538 503.319 250.538 502.929 250.929C502.538 251.319 502.538 251.953 502.929 252.343L509.293 258.707ZM509 158L509 258L511 258L511 158L509 158Z" fill="white"/>
<path d="M574.293 334.293C573.902 334.683 573.902 335.317 574.293 335.707L580.657 342.071C581.047 342.462 581.681 342.462 582.071 342.071C582.462 341.681 582.462 341.047 582.071 340.657L576.414 335L582.071 329.343C582.462 328.953 582.462 328.319 582.071 327.929C581.681 327.538 581.047 327.538 580.657 327.929L574.293 334.293ZM625 334H575V336H625V334Z" fill="white"/>
<path d="M510.707 449.293C510.317 448.902 509.683 448.902 509.293 449.293L502.929 455.657C502.538 456.047 502.538 456.681 502.929 457.071C503.319 457.462 503.953 457.462 504.343 457.071L510 451.414L515.657 457.071C516.047 457.462 516.681 457.462 517.071 457.071C517.462 456.681 517.462 456.047 517.071 455.657L510.707 449.293ZM511 550L511 450L509 450L509 550L511 550Z" fill="white"/>
<g clip-path="url(#clip0_43_242)">
<path d="M100 390H85.4168V385.833H97.9168V294.167H2.08346V385.833H85.4168V390H0.000126846C-0.552407 390 -1.08231 389.781 -1.47301 389.39C-1.86371 388.999 -2.08321 388.469 -2.08321 387.917V292.083C-2.08321 291.531 -1.86371 291.001 -1.47301 290.61C-1.08231 290.219 -0.552407 290 0.000126846 290H100C100.553 290 101.083 290.219 101.473 290.61C101.864 291.001 102.083 291.531 102.083 292.083V387.917C102.083 388.469 101.864 388.999 101.473 389.39C101.083 389.781 100.553 390 100 390Z" fill="white"/>
<path d="M100 306.667H0.00012207V310.833H100V306.667Z" fill="white"/>
<path d="M10.4168 298.333H6.25012V302.5H10.4168V298.333Z" fill="white"/>
<path d="M18.7501 298.333H14.5835V302.5H18.7501V298.333Z" fill="white"/>
<path d="M27.0835 298.333H22.9168V302.5H27.0835V298.333Z" fill="white"/>
</g>
<path d="M320.96 647.82H238.96C237.369 647.82 235.843 647.188 234.717 646.063C233.592 644.937 232.96 643.411 232.96 641.82V588C232.96 586.409 233.592 584.883 234.717 583.757C235.843 582.632 237.369 582 238.96 582H320.96C322.551 582 324.077 582.632 325.203 583.757C326.328 584.883 326.96 586.409 326.96 588V641.78C326.965 642.571 326.814 643.356 326.515 644.088C326.216 644.821 325.775 645.487 325.217 646.049C324.659 646.61 323.996 647.055 323.265 647.359C322.535 647.664 321.751 647.82 320.96 647.82V647.82ZM239.04 586C238.51 586 238.001 586.211 237.626 586.586C237.251 586.961 237.04 587.47 237.04 588V641.78C237.04 642.31 237.251 642.819 237.626 643.194C238.001 643.569 238.51 643.78 239.04 643.78H321.04C321.57 643.78 322.079 643.569 322.454 643.194C322.829 642.819 323.04 642.31 323.04 641.78V588C323.04 587.47 322.829 586.961 322.454 586.586C322.079 586.211 321.57 586 321.04 586H239.04Z" fill="white"/>
<path d="M320 674H240C238.152 673.984 236.383 673.245 235.075 671.94C233.766 670.634 233.021 668.868 233 667.02V658.36C233.005 656.501 233.743 654.72 235.054 653.402C236.364 652.084 238.141 651.336 240 651.32H320C321.866 651.325 323.653 652.069 324.972 653.388C326.291 654.707 327.035 656.495 327.04 658.36V667.02C327.019 668.875 326.269 670.647 324.951 671.954C323.634 673.26 321.855 673.995 320 674V674ZM240 655.32C239.201 655.331 238.438 655.655 237.876 656.224C237.315 656.793 237 657.561 237 658.36V667.02C237.016 667.809 237.337 668.561 237.897 669.117C238.457 669.673 239.211 669.99 240 670H320C320.806 670 321.58 669.68 322.15 669.11C322.72 668.54 323.04 667.766 323.04 666.96V658.36C323.04 657.961 322.961 657.565 322.809 657.197C322.656 656.828 322.432 656.493 322.15 656.21C321.867 655.928 321.532 655.704 321.163 655.551C320.795 655.399 320.399 655.32 320 655.32H240Z" fill="white"/>
<path d="M317.5 658.82H295C293.895 658.82 293 659.715 293 660.82V664.58C293 665.685 293.895 666.58 295 666.58H317.5C318.605 666.58 319.5 665.685 319.5 664.58V660.82C319.5 659.715 318.605 658.82 317.5 658.82Z" fill="white"/>
<path d="M317.5 640.32H242.5C241.97 640.32 241.461 640.109 241.086 639.734C240.711 639.359 240.5 638.85 240.5 638.32V591.44C240.5 590.91 240.711 590.401 241.086 590.026C241.461 589.651 241.97 589.44 242.5 589.44H317.5C318.03 589.44 318.539 589.651 318.914 590.026C319.289 590.401 319.5 590.91 319.5 591.44V638.32C319.5 638.85 319.289 639.359 318.914 639.734C318.539 640.109 318.03 640.32 317.5 640.32ZM244.5 636.32H315.5V593.44H244.5V636.32Z" fill="white"/>
<path d="M272.763 619.837L267.403 614.637C267.265 614.502 267.158 614.34 267.089 614.16C267.02 613.981 266.99 613.789 267.003 613.597C267.016 613.406 267.071 613.22 267.163 613.052C267.255 612.884 267.382 612.738 267.536 612.623L273.523 608.143L275.123 610.277L270.389 613.823L274.616 617.943L272.763 619.837Z" fill="white"/>
<path d="M285.816 620.69L284.216 618.557L288.949 615.01L284.723 610.89L286.576 608.97L291.909 614.183C292.048 614.318 292.156 614.481 292.225 614.661C292.294 614.841 292.324 615.035 292.311 615.227C292.298 615.42 292.244 615.608 292.152 615.777C292.059 615.947 291.931 616.095 291.776 616.21L285.816 620.69Z" fill="white"/>
<path d="M282.202 606L274.575 623.358L277.017 624.431L284.644 607.073L282.202 606Z" fill="white"/>
<path d="M243.913 689.808C243.913 691.728 242.393 692.912 240.361 692.912H239.945C240.921 693.392 241.609 694.304 242.153 695.84L242.921 698H241.513L240.793 696.016C240.057 694 238.985 692.912 237.225 692.912H236.761V698H235.481V686.8H240.361C242.393 686.8 243.913 687.936 243.913 689.808ZM240.217 691.712C242.121 691.712 242.569 690.704 242.569 689.808C242.569 688.944 242.121 688 240.217 688H236.761V691.712H240.217ZM251.784 690.56V698H250.536V696.56C250.072 697.472 249.304 698.16 248.008 698.16C246.776 698.16 245.288 697.44 245.288 695.456V690.56H246.568V695.216C246.568 696.464 247.208 697.024 248.168 697.024C249.016 697.024 249.752 696.56 250.168 695.728C250.44 695.184 250.504 694.64 250.504 693.712V690.56H251.784ZM257.706 690.4C259.706 690.4 261.146 692.112 261.146 694.272C261.146 696.528 259.642 698.16 257.69 698.16C256.634 698.16 255.818 697.488 255.29 696.64V698H254.026V686.48H255.306V691.824C255.834 691.024 256.634 690.4 257.706 690.4ZM257.61 697.072C258.906 697.072 259.818 695.904 259.818 694.272C259.818 692.64 258.874 691.504 257.626 691.504C256.17 691.504 255.194 692.72 255.194 694.288C255.194 695.808 256.25 697.072 257.61 697.072ZM269.026 690.56L266.034 698C265.506 699.312 264.93 700.976 262.626 701.36L262.082 700.288C264.066 699.904 264.178 699.168 264.738 698L261.73 690.56H263.17L265.378 696.56L267.57 690.56H269.026ZM277.65 698.16C275.49 698.16 273.954 696.48 273.954 694.272C273.954 692.016 275.442 690.4 277.65 690.4C279.858 690.4 281.346 692.016 281.346 694.272C281.346 696.48 279.81 698.16 277.65 698.16ZM277.65 697.04C278.978 697.04 280.018 695.888 280.018 694.224C280.018 692.592 278.978 691.52 277.65 691.52C276.322 691.52 275.282 692.592 275.282 694.224C275.282 695.888 276.322 697.04 277.65 697.04ZM286.975 690.4C288.191 690.4 289.695 691.12 289.695 693.104V698H288.415V693.344C288.415 692.096 287.791 691.536 286.799 691.536C285.967 691.536 285.231 692 284.815 692.832C284.543 693.376 284.463 693.92 284.463 694.848V698H283.183V690.56H284.447V691.984C284.911 691.072 285.679 690.4 286.975 690.4ZM304.163 689.808C304.163 691.728 302.643 692.912 300.611 692.912H300.195C301.171 693.392 301.859 694.304 302.403 695.84L303.171 698H301.763L301.043 696.016C300.307 694 299.235 692.912 297.475 692.912H297.011V698H295.731V686.8H300.611C302.643 686.8 304.163 687.936 304.163 689.808ZM300.467 691.712C302.371 691.712 302.819 690.704 302.819 689.808C302.819 688.944 302.371 688 300.467 688H297.011V691.712H300.467ZM310.823 698C310.487 697.552 310.231 697.056 310.119 696.384C309.687 697.392 308.919 698.16 307.575 698.16C306.167 698.16 305.319 697.008 305.319 695.84C305.319 694.48 306.199 693.84 308.167 693.632C308.839 693.568 309.463 693.456 309.911 693.168V692.832C309.911 691.648 309.031 691.504 308.231 691.504C307.271 691.504 306.279 692.032 306.663 693.232L305.319 692.864C305.111 691.024 306.903 690.4 308.279 690.4C309.735 690.4 311.175 690.864 311.175 692.768V695.2C311.175 696.704 311.959 697.568 312.279 698H310.823ZM307.815 697.04C308.791 697.04 309.767 696.16 309.959 694.208C309.559 694.448 309.031 694.608 308.359 694.704C307.239 694.864 306.631 695.04 306.631 695.872C306.631 696.48 307.063 697.04 307.815 697.04ZM314.214 688.144C313.686 688.144 313.286 687.744 313.286 687.216C313.286 686.72 313.686 686.32 314.214 686.32C314.726 686.32 315.126 686.72 315.126 687.216C315.126 687.744 314.726 688.144 314.214 688.144ZM313.558 690.56H314.854V698H313.558V690.56ZM317.04 686.48H318.32V698H317.04V686.48ZM324.863 693.136C325.023 692.048 324.143 691.488 323.071 691.488C322.047 691.488 321.471 691.968 321.471 692.48C321.471 692.896 321.775 693.136 322.255 693.296C323.087 693.584 323.599 693.664 324.319 693.92C325.151 694.208 325.839 694.752 325.839 695.84C325.839 696.992 324.879 698.16 323.007 698.16C321.247 698.16 320.047 697.184 319.999 695.536L321.295 695.232C321.167 696.304 321.839 697.04 322.975 697.04C324.047 697.04 324.527 696.464 324.527 695.856C324.527 695.36 324.191 695.12 323.615 694.944C323.023 694.768 322.399 694.64 321.711 694.368C320.719 693.984 320.175 693.392 320.175 692.464C320.175 691.312 321.519 690.4 323.071 690.4C324.511 690.4 326.031 691.008 326.159 692.88L324.863 693.136Z" fill="white"/>
<path d="M489.68 687.728C489.152 691.056 486.976 692.16 484.832 692.16C481.856 692.16 479.456 689.872 479.456 686.4C479.456 682.928 481.872 680.64 484.896 680.64C487.424 680.64 489.504 681.888 490.064 684.832L488.736 685.232C488.368 682.736 486.752 681.84 484.928 681.84C482.624 681.84 480.8 683.648 480.8 686.384C480.8 689.232 482.704 690.96 484.848 690.96C486.288 690.96 488.08 690.112 488.368 687.328L489.68 687.728ZM492.386 682.144C491.858 682.144 491.458 681.744 491.458 681.216C491.458 680.72 491.858 680.32 492.386 680.32C492.898 680.32 493.298 680.72 493.298 681.216C493.298 681.744 492.898 682.144 492.386 682.144ZM491.73 684.56H493.026V692H491.73V684.56ZM498.716 684.4C500.748 684.4 501.66 686.112 500.812 688.352H499.42C500.156 686.688 499.788 685.552 498.476 685.552C497.372 685.552 496.588 686.608 496.588 689.024V692H495.308V684.56H496.588V685.792C497.02 684.992 497.708 684.4 498.716 684.4ZM509.163 689.216C508.827 691.632 507.147 692.16 505.883 692.16C504.011 692.16 502.299 690.736 502.299 688.288C502.299 685.696 504.203 684.4 506.011 684.4C507.371 684.4 509.019 684.88 509.435 687.088L508.155 687.488C508.027 685.952 506.955 685.552 506.027 685.552C504.731 685.552 503.627 686.576 503.627 688.272C503.627 689.968 504.683 691.008 505.947 691.008C506.859 691.008 507.835 690.4 507.883 688.832L509.163 689.216ZM511.071 680.48H512.351V692H511.071V680.48ZM517.759 684.4C519.775 684.4 521.151 685.664 521.039 687.776L521.007 688.32H515.423C515.423 689.952 516.319 691.04 517.647 691.04C518.703 691.04 519.439 690.448 519.535 689.184L520.815 689.632C520.399 691.392 519.295 692.16 517.631 692.16C515.455 692.16 514.127 690.512 514.127 688.368C514.127 685.744 515.679 684.4 517.759 684.4ZM517.791 685.488C516.751 685.488 515.887 686.032 515.567 687.232H519.775C519.631 685.84 518.671 685.488 517.791 685.488ZM536.524 687.728C535.996 691.056 533.82 692.16 531.676 692.16C528.7 692.16 526.3 689.872 526.3 686.4C526.3 682.928 528.716 680.64 531.74 680.64C534.268 680.64 536.348 681.888 536.908 684.832L535.58 685.232C535.212 682.736 533.596 681.84 531.772 681.84C529.468 681.84 527.644 683.648 527.644 686.384C527.644 689.232 529.548 690.96 531.692 690.96C533.132 690.96 534.924 690.112 535.212 687.328L536.524 687.728ZM538.734 680.8H540.014V692H538.734V680.8Z" fill="white"/>
<path fill-rule="evenodd" clip-rule="evenodd" d="M509.406 565C486.112 565 466.564 580.991 461.063 602.611C461.025 602.769 461 602.929 461 603.096C461 604.411 462.064 605.477 463.377 605.477H483.489C484.447 605.477 485.267 604.904 485.645 604.086C489.777 595.073 498.857 588.808 509.406 588.808C523.838 588.808 535.544 600.537 535.544 615.001C535.544 629.465 523.838 641.193 509.406 641.193C498.857 641.193 489.781 634.928 485.648 625.912L485.645 625.917C485.267 625.098 484.447 624.526 483.489 624.526H463.377C462.064 624.526 461 625.589 461 626.907C461 627.069 461.025 627.225 461.059 627.381C466.559 649.002 486.108 665 509.406 665C536.963 665 559.307 642.611 559.307 615.001C559.307 587.387 536.963 565 509.406 565ZM497.524 615.001C497.524 608.427 502.845 603.096 509.406 603.096C515.967 603.096 521.286 608.427 521.286 615.001C521.286 621.574 515.967 626.907 509.406 626.907C502.845 626.907 497.524 621.574 497.524 615.001Z" fill="white"/>
<path d="M494.189 403.8V415H492.909V409.432H485.933V415H484.653V403.8H485.933V408.232H492.909V403.8H494.189ZM499.759 407.4C501.775 407.4 503.151 408.664 503.039 410.776L503.007 411.32H497.423C497.423 412.952 498.319 414.04 499.647 414.04C500.703 414.04 501.439 413.448 501.535 412.184L502.815 412.632C502.399 414.392 501.295 415.16 499.631 415.16C497.455 415.16 496.127 413.512 496.127 411.368C496.127 408.744 497.679 407.4 499.759 407.4ZM499.791 408.488C498.751 408.488 497.887 409.032 497.567 410.232H501.775C501.631 408.84 500.671 408.488 499.791 408.488ZM508.247 407.4C510.279 407.4 511.191 409.112 510.343 411.352H508.951C509.687 409.688 509.319 408.552 508.007 408.552C506.903 408.552 506.119 409.608 506.119 412.024V415H504.839V407.56H506.119V408.792C506.551 407.992 507.239 407.4 508.247 407.4ZM515.494 415.16C513.334 415.16 511.798 413.48 511.798 411.272C511.798 409.016 513.286 407.4 515.494 407.4C517.702 407.4 519.19 409.016 519.19 411.272C519.19 413.48 517.654 415.16 515.494 415.16ZM515.494 414.04C516.822 414.04 517.862 412.888 517.862 411.224C517.862 409.592 516.822 408.52 515.494 408.52C514.166 408.52 513.126 409.592 513.126 411.224C513.126 412.888 514.166 414.04 515.494 414.04ZM524.659 410.312L527.187 415H525.699L523.715 411.192L522.307 412.488V415H521.027V403.48H522.307V410.856L525.747 407.56H527.635L524.659 410.312ZM535.409 407.56V415H534.161V413.56C533.697 414.472 532.929 415.16 531.633 415.16C530.401 415.16 528.913 414.44 528.913 412.456V407.56H530.193V412.216C530.193 413.464 530.833 414.024 531.793 414.024C532.641 414.024 533.377 413.56 533.793 412.728C534.065 412.184 534.129 411.64 534.129 410.712V407.56H535.409Z" fill="white"/>
<path d="M481.431 323.462L460 335L481.431 346.538M481.431 323.462L510 338.846L538.569 323.462M481.431 323.462L460 311.923L510 285L560 311.923L538.569 323.462M481.431 346.538L460 358.077L510 385L560 358.077L538.569 346.538M481.431 346.538L510 361.923L538.569 346.538M538.569 323.462L560 335L538.569 346.538" stroke="white" stroke-width="2" stroke-linecap="round" stroke-linejoin="round"/>
<path d="M483.682 117.8C485.714 117.8 487.234 118.936 487.234 120.824C487.234 122.728 485.714 123.912 483.682 123.912H480.082V129H478.802V117.8H483.682ZM483.538 122.712C485.442 122.712 485.89 121.704 485.89 120.824C485.89 119.944 485.442 119 483.538 119H480.082V122.712H483.538ZM491.502 129.16C489.342 129.16 487.806 127.48 487.806 125.272C487.806 123.016 489.294 121.4 491.502 121.4C493.71 121.4 495.198 123.016 495.198 125.272C495.198 127.48 493.662 129.16 491.502 129.16ZM491.502 128.04C492.83 128.04 493.87 126.888 493.87 125.224C493.87 123.592 492.83 122.52 491.502 122.52C490.174 122.52 489.134 123.592 489.134 125.224C489.134 126.888 490.174 128.04 491.502 128.04ZM501.402 124.136C501.562 123.048 500.682 122.488 499.61 122.488C498.586 122.488 498.01 122.968 498.01 123.48C498.01 123.896 498.314 124.136 498.794 124.296C499.626 124.584 500.138 124.664 500.858 124.92C501.69 125.208 502.378 125.752 502.378 126.84C502.378 127.992 501.418 129.16 499.546 129.16C497.786 129.16 496.586 128.184 496.538 126.536L497.834 126.232C497.706 127.304 498.378 128.04 499.514 128.04C500.586 128.04 501.066 127.464 501.066 126.856C501.066 126.36 500.73 126.12 500.154 125.944C499.562 125.768 498.938 125.64 498.25 125.368C497.258 124.984 496.714 124.392 496.714 123.464C496.714 122.312 498.058 121.4 499.61 121.4C501.05 121.4 502.57 122.008 502.698 123.88L501.402 124.136ZM509.905 126.312C509.809 128.92 508.417 129.16 507.473 129.16C506.193 129.16 505.233 128.296 505.233 126.84V122.696H503.441V121.56H505.233V118.904L506.513 117.32V121.56H509.537V122.696H506.513V126.824C506.513 127.656 506.913 128.008 507.601 128.008C508.337 128.008 508.721 127.368 508.593 126.168L509.905 126.312ZM518.253 121.528V128.392C518.253 131.416 516.429 132.36 514.829 132.36C513.549 132.36 511.885 131.848 511.837 130.024L513.133 129.672C512.941 130.744 513.741 131.288 514.781 131.288C516.029 131.288 516.973 130.424 516.973 128.568V127.64C516.445 128.488 515.629 129.16 514.573 129.16C512.621 129.16 511.117 127.528 511.117 125.272C511.117 123.112 512.557 121.4 514.557 121.4C515.645 121.4 516.461 122.056 516.989 122.872V121.528H518.253ZM514.653 128.072C516.045 128.072 517.069 126.76 517.069 125.288C517.069 123.688 516.061 122.504 514.637 122.504C513.389 122.504 512.445 123.64 512.445 125.272C512.445 126.904 513.357 128.072 514.653 128.072ZM523.88 121.4C525.912 121.4 526.824 123.112 525.976 125.352H524.584C525.32 123.688 524.952 122.552 523.64 122.552C522.536 122.552 521.752 123.608 521.752 126.024V129H520.472V121.56H521.752V122.792C522.184 121.992 522.872 121.4 523.88 121.4ZM531.095 121.4C533.111 121.4 534.487 122.664 534.375 124.776L534.343 125.32H528.759C528.759 126.952 529.655 128.04 530.983 128.04C532.039 128.04 532.775 127.448 532.871 126.184L534.151 126.632C533.735 128.392 532.631 129.16 530.967 129.16C528.791 129.16 527.463 127.512 527.463 125.368C527.463 122.744 529.015 121.4 531.095 121.4ZM531.127 122.488C530.087 122.488 529.223 123.032 528.903 124.232H533.111C532.967 122.84 532.007 122.488 531.127 122.488ZM540.543 124.136C540.703 123.048 539.823 122.488 538.751 122.488C537.727 122.488 537.151 122.968 537.151 123.48C537.151 123.896 537.455 124.136 537.935 124.296C538.767 124.584 539.279 124.664 539.999 124.92C540.831 125.208 541.519 125.752 541.519 126.84C541.519 127.992 540.559 129.16 538.687 129.16C536.927 129.16 535.727 128.184 535.679 126.536L536.975 126.232C536.847 127.304 537.519 128.04 538.655 128.04C539.727 128.04 540.207 127.464 540.207 126.856C540.207 126.36 539.871 126.12 539.295 125.944C538.703 125.768 538.079 125.64 537.391 125.368C536.399 124.984 535.855 124.392 535.855 123.464C535.855 122.312 537.199 121.4 538.751 121.4C540.191 121.4 541.711 122.008 541.839 123.88L540.543 124.136Z" fill="white"/>
<path d="M552.615 22.1538C552.615 33.8359 533.672 43.3077 510.308 43.3077C486.944 43.3077 468 33.8359 468 22.1538M552.615 22.1538C552.615 10.4718 533.672 1 510.308 1C486.944 1 468 10.4718 468 22.1538M552.615 22.1538V79.8462C552.615 91.5282 533.672 101 510.308 101C486.944 101 468 91.5282 468 79.8462V22.1538M552.615 22.1538V41.3846M468 22.1538V41.3846M552.615 41.3846V60.6154C552.615 72.2974 533.672 81.7692 510.308 81.7692C486.944 81.7692 468 72.2974 468 60.6154V41.3846M552.615 41.3846C552.615 53.0667 533.672 62.5385 510.308 62.5385C486.944 62.5385 468 53.0667 468 41.3846" stroke="white" stroke-width="2" stroke-linecap="round" stroke-linejoin="round"/>
<path d="M254.258 412.728C253.73 416.056 251.554 417.16 249.41 417.16C246.434 417.16 244.034 414.872 244.034 411.4C244.034 407.928 246.45 405.64 249.474 405.64C252.002 405.64 254.082 406.888 254.642 409.832L253.314 410.232C252.946 407.736 251.33 406.84 249.506 406.84C247.202 406.84 245.378 408.648 245.378 411.384C245.378 414.232 247.282 415.96 249.426 415.96C250.866 415.96 252.658 415.112 252.946 412.328L254.258 412.728ZM256.196 405.48H257.476V417H256.196V405.48ZM262.916 417.16C260.756 417.16 259.22 415.48 259.22 413.272C259.22 411.016 260.708 409.4 262.916 409.4C265.124 409.4 266.612 411.016 266.612 413.272C266.612 415.48 265.076 417.16 262.916 417.16ZM262.916 416.04C264.244 416.04 265.284 414.888 265.284 413.224C265.284 411.592 264.244 410.52 262.916 410.52C261.588 410.52 260.548 411.592 260.548 413.224C260.548 414.888 261.588 416.04 262.916 416.04ZM274.565 409.56V417H273.317V415.56C272.853 416.472 272.085 417.16 270.789 417.16C269.557 417.16 268.069 416.44 268.069 414.456V409.56H269.349V414.216C269.349 415.464 269.989 416.024 270.949 416.024C271.797 416.024 272.533 415.56 272.949 414.728C273.221 414.184 273.285 413.64 273.285 412.712V409.56H274.565ZM283.495 405.48V417H282.231V415.64C281.703 416.488 280.887 417.16 279.831 417.16C277.879 417.16 276.375 415.528 276.375 413.272C276.375 411.112 277.815 409.4 279.815 409.4C280.887 409.4 281.687 410.024 282.215 410.824V405.48H283.495ZM279.911 416.072C281.303 416.072 282.327 414.76 282.327 413.288C282.327 411.688 281.319 410.504 279.895 410.504C278.647 410.504 277.703 411.64 277.703 413.272C277.703 414.904 278.615 416.072 279.911 416.072ZM287.922 409.56H290.002V410.712H287.922V417H286.642V410.712H285.138V409.56H286.642V408.024C286.642 406.632 287.346 405.32 289.41 405.32C289.714 405.32 289.986 405.368 290.066 405.4L289.97 406.584C289.778 406.52 289.458 406.504 289.154 406.536C288.066 406.648 287.922 407.352 287.922 408.168V409.56ZM291.712 405.48H292.992V417H291.712V405.48ZM300.463 417C300.127 416.552 299.871 416.056 299.759 415.384C299.327 416.392 298.559 417.16 297.215 417.16C295.807 417.16 294.959 416.008 294.959 414.84C294.959 413.48 295.839 412.84 297.807 412.632C298.479 412.568 299.103 412.456 299.551 412.168V411.832C299.551 410.648 298.671 410.504 297.871 410.504C296.911 410.504 295.919 411.032 296.303 412.232L294.959 411.864C294.751 410.024 296.543 409.4 297.919 409.4C299.375 409.4 300.815 409.864 300.815 411.768V414.2C300.815 415.704 301.599 416.568 301.919 417H300.463ZM297.455 416.04C298.431 416.04 299.407 415.16 299.599 413.208C299.199 413.448 298.671 413.608 297.999 413.704C296.879 413.864 296.271 414.04 296.271 414.872C296.271 415.48 296.703 416.04 297.455 416.04ZM306.591 409.4C308.623 409.4 309.535 411.112 308.687 413.352H307.295C308.031 411.688 307.663 410.552 306.351 410.552C305.247 410.552 304.463 411.608 304.463 414.024V417H303.183V409.56H304.463V410.792C304.895 409.992 305.583 409.4 306.591 409.4ZM313.806 409.4C315.822 409.4 317.198 410.664 317.086 412.776L317.054 413.32H311.47C311.47 414.952 312.366 416.04 313.694 416.04C314.75 416.04 315.486 415.448 315.582 414.184L316.862 414.632C316.446 416.392 315.342 417.16 313.678 417.16C311.502 417.16 310.174 415.512 310.174 413.368C310.174 410.744 311.726 409.4 313.806 409.4ZM313.838 410.488C312.798 410.488 311.934 411.032 311.614 412.232H315.822C315.678 410.84 314.718 410.488 313.838 410.488ZM269.235 421.8C272.851 421.8 274.691 424.152 274.691 427.288C274.691 430.52 272.515 433 269.187 433H265.395V421.8H269.235ZM269.219 431.8C271.843 431.8 273.347 429.688 273.347 427.256C273.347 424.872 272.067 423 269.427 423H266.675V431.8H269.219ZM285.464 421.8V433H283.72L277.832 423.528V433H276.552V421.8H278.264L284.184 431.48V421.8H285.464ZM294.68 426.12C294.984 423.192 293.048 422.808 291.8 422.808C290.472 422.808 289.288 423.4 289.288 424.616C289.288 425.432 289.88 425.832 291.032 426.248C292.088 426.632 292.744 426.824 293.544 427.096C295 427.592 295.88 428.36 295.88 429.8C295.88 431.384 294.536 433.16 291.944 433.16C289.848 433.16 287.384 431.912 287.512 428.088L288.84 427.864C288.568 430.664 290.152 431.992 292.008 431.992C293.432 431.992 294.552 431.064 294.552 429.864C294.552 428.904 293.992 428.552 292.968 428.2L290.392 427.336C288.936 426.856 287.992 425.944 287.992 424.616C287.992 422.856 289.8 421.64 291.832 421.64C293.992 421.64 296.232 422.856 295.976 425.864L294.68 426.12Z" fill="white"/>
<path d="M313.163 362.844H250.698C245.744 362.909 240.953 361.084 237.297 357.741C233.642 354.398 231.398 349.787 231.022 344.848C231.022 344.328 231.022 343.808 231.022 343.288C230.82 339.199 232.001 335.161 234.373 331.824C236.745 328.488 240.171 326.046 244.099 324.893C244.099 324.333 244.099 323.773 244.099 323.253C244.243 318.207 245.775 313.298 248.526 309.065C251.278 304.832 255.142 301.439 259.695 299.259C264.622 297.066 270.107 296.451 275.397 297.496C280.687 298.541 285.525 301.196 289.248 305.097C291.792 307.689 293.839 310.725 295.287 314.055C296.74 312.851 298.463 312.018 300.309 311.627C302.155 311.237 304.069 311.302 305.884 311.816C308.55 312.753 310.873 314.471 312.549 316.747C314.225 319.022 315.177 321.749 315.282 324.573C319.72 325.334 323.74 327.653 326.621 331.113C329.502 334.573 331.054 338.947 330.999 343.448C330.999 361.164 313.363 362.804 313.163 362.844ZM246.499 328.172C243.097 328.91 240.072 330.838 237.968 333.61C235.863 336.382 234.818 339.814 235.021 343.288C235.021 343.728 235.021 344.168 235.021 344.608C235.357 348.585 237.2 352.283 240.174 354.945C243.148 357.607 247.028 359.031 251.017 358.925H313.363C317.258 358.583 320.883 356.793 323.525 353.91C326.166 351.027 327.631 347.259 327.631 343.348C327.631 339.438 326.166 335.67 323.525 332.787C320.883 329.903 317.258 328.114 313.363 327.772C313.118 327.733 312.884 327.646 312.673 327.517C312.462 327.387 312.279 327.217 312.134 327.016C311.989 326.816 311.886 326.588 311.829 326.347C311.772 326.107 311.763 325.857 311.803 325.613C311.879 323.401 311.271 321.219 310.061 319.365C308.852 317.512 307.1 316.076 305.045 315.255C303.453 314.816 301.765 314.88 300.211 315.438C298.657 315.997 297.314 317.022 296.367 318.374C296.159 318.657 295.877 318.877 295.553 319.011C295.229 319.145 294.874 319.188 294.527 319.134C294.184 319.072 293.864 318.921 293.597 318.696C293.331 318.472 293.127 318.182 293.008 317.854C291.612 314.064 289.385 310.634 286.489 307.817C283.312 304.458 279.169 302.169 274.634 301.266C270.1 300.363 265.397 300.892 261.175 302.778C257.304 304.708 254.026 307.648 251.689 311.287C249.352 314.927 248.042 319.13 247.898 323.453C247.839 324.385 247.839 325.32 247.898 326.252C247.958 326.732 247.835 327.217 247.554 327.61C247.272 328.003 246.852 328.275 246.379 328.372L246.499 328.172Z" fill="white"/>
<path d="M711.032 551.8C714.648 551.8 716.488 554.152 716.488 557.288C716.488 560.52 714.312 563 710.984 563H707.192V551.8H711.032ZM711.016 561.8C713.64 561.8 715.144 559.688 715.144 557.256C715.144 554.872 713.864 553 711.224 553H708.472V561.8H711.016ZM721.692 555.4C723.724 555.4 724.636 557.112 723.788 559.352H722.396C723.132 557.688 722.764 556.552 721.452 556.552C720.348 556.552 719.564 557.608 719.564 560.024V563H718.284V555.56H719.564V556.792C719.996 555.992 720.684 555.4 721.692 555.4ZM728.939 563.16C726.779 563.16 725.243 561.48 725.243 559.272C725.243 557.016 726.731 555.4 728.939 555.4C731.147 555.4 732.635 557.016 732.635 559.272C732.635 561.48 731.099 563.16 728.939 563.16ZM728.939 562.04C730.267 562.04 731.307 560.888 731.307 559.224C731.307 557.592 730.267 556.52 728.939 556.52C727.611 556.52 726.571 557.592 726.571 559.224C726.571 560.888 727.611 562.04 728.939 562.04ZM738.12 555.4C740.12 555.4 741.56 557.112 741.56 559.272C741.56 561.528 740.056 563.16 738.104 563.16C737.064 563.16 736.248 562.488 735.72 561.656V566.2H734.44V555.56H735.704V556.856C736.232 556.04 737.032 555.4 738.12 555.4ZM738.024 562.072C739.32 562.072 740.232 560.904 740.232 559.272C740.232 557.64 739.288 556.504 738.04 556.504C736.584 556.504 735.608 557.72 735.608 559.288C735.608 560.808 736.664 562.072 738.024 562.072ZM747.011 555.4C749.011 555.4 750.451 557.112 750.451 559.272C750.451 561.528 748.947 563.16 746.995 563.16C745.939 563.16 745.123 562.488 744.595 561.64V563H743.331V551.48H744.611V556.824C745.139 556.024 745.939 555.4 747.011 555.4ZM746.915 562.072C748.211 562.072 749.123 560.904 749.123 559.272C749.123 557.64 748.179 556.504 746.931 556.504C745.475 556.504 744.499 557.72 744.499 559.288C744.499 560.808 745.555 562.072 746.915 562.072ZM755.517 563.16C753.357 563.16 751.821 561.48 751.821 559.272C751.821 557.016 753.309 555.4 755.517 555.4C757.725 555.4 759.213 557.016 759.213 559.272C759.213 561.48 757.677 563.16 755.517 563.16ZM755.517 562.04C756.845 562.04 757.885 560.888 757.885 559.224C757.885 557.592 756.845 556.52 755.517 556.52C754.189 556.52 753.149 557.592 753.149 559.224C753.149 560.888 754.189 562.04 755.517 562.04ZM765.271 563L763.399 559.72L761.527 563H759.991L762.455 558.952L760.135 555.56H761.639L763.399 558.2L765.159 555.56H766.663L764.343 558.952L766.807 563H765.271ZM778.986 558.92H774.634L773.114 563H771.722L776.09 551.8H777.53L781.898 563H780.506L778.986 558.92ZM778.538 557.72L776.81 553.08L775.082 557.72H778.538ZM788.15 551.8C790.182 551.8 791.702 552.936 791.702 554.824C791.702 556.728 790.182 557.912 788.15 557.912H784.55V563H783.27V551.8H788.15ZM788.006 556.712C789.91 556.712 790.358 555.704 790.358 554.824C790.358 553.944 789.91 553 788.006 553H784.55V556.712H788.006ZM793.414 551.8H794.694V563H793.414V551.8Z" fill="white"/>
<g clip-path="url(#clip1_43_242)">
<path d="M796.426 534H753.447C752.234 534 751.07 533.518 750.212 532.66C749.354 531.802 748.872 530.639 748.872 529.426V486.574C748.872 485.327 749.368 484.131 750.25 483.25C751.131 482.368 752.327 481.872 753.574 481.872H796.298C797.545 481.872 798.741 482.368 799.623 483.25C800.505 484.131 801 485.327 801 486.574V529.426C801 530.639 800.518 531.802 799.66 532.66C798.802 533.518 797.639 534 796.426 534V534ZM753.574 486.128C753.458 486.133 753.347 486.182 753.264 486.264C753.182 486.347 753.133 486.458 753.128 486.574V529.426C753.128 529.51 753.161 529.591 753.221 529.651C753.281 529.711 753.362 529.745 753.447 529.745H796.426C796.51 529.745 796.591 529.711 796.651 529.651C796.711 529.591 796.745 529.51 796.745 529.426V486.574C796.739 486.458 796.691 486.347 796.608 486.264C796.525 486.182 796.415 486.133 796.298 486.128H753.574Z" fill="white"/>
<path d="M744.872 510.064H727.596C726.975 510.055 726.363 509.925 725.793 509.68C725.223 509.435 724.707 509.08 724.274 508.635C723.842 508.191 723.501 507.665 723.271 507.089C723.042 506.513 722.928 505.897 722.936 505.277V462.723C722.928 462.103 723.042 461.487 723.271 460.911C723.501 460.335 723.842 459.809 724.274 459.365C724.707 458.92 725.223 458.565 725.793 458.32C726.363 458.075 726.975 457.944 727.596 457.936H770.362C770.986 457.936 771.605 458.06 772.181 458.302C772.757 458.544 773.279 458.898 773.717 459.343C774.155 459.789 774.499 460.317 774.731 460.898C774.962 461.478 775.075 462.099 775.064 462.723V478.106H770.809V462.723C770.809 462.605 770.761 462.491 770.678 462.407C770.594 462.324 770.48 462.277 770.362 462.277H727.596C727.475 462.276 727.359 462.323 727.272 462.406C727.185 462.489 727.133 462.603 727.128 462.723V505.277C727.133 505.397 727.185 505.511 727.272 505.594C727.359 505.677 727.475 505.724 727.596 505.723H744.809L744.872 510.064Z" fill="white"/>
<path d="M719.085 486.128H705.702C705.085 486.128 704.473 486.006 703.903 485.77C703.332 485.533 702.814 485.187 702.377 484.75C701.941 484.314 701.594 483.795 701.358 483.225C701.122 482.654 701 482.043 701 481.426V438.702C701 437.455 701.495 436.259 702.377 435.377C703.259 434.495 704.455 434 705.702 434H748.426C749.043 434 749.654 434.122 750.225 434.358C750.795 434.594 751.314 434.941 751.75 435.377C752.187 435.814 752.533 436.332 752.77 436.903C753.006 437.473 753.128 438.085 753.128 438.702V454.085H748.872V438.702C748.867 438.585 748.818 438.475 748.736 438.392C748.653 438.309 748.542 438.261 748.426 438.255H705.702C705.585 438.261 705.475 438.309 705.392 438.392C705.309 438.475 705.261 438.585 705.255 438.702V481.426C705.261 481.542 705.309 481.653 705.392 481.736C705.475 481.818 705.585 481.867 705.702 481.872H719.085V486.128Z" fill="white"/>
</g>
<path d="M721.821 264.12C722.125 261.192 720.189 260.808 718.941 260.808C717.613 260.808 716.429 261.4 716.429 262.616C716.429 263.432 717.021 263.832 718.173 264.248C719.229 264.632 719.885 264.824 720.685 265.096C722.141 265.592 723.021 266.36 723.021 267.8C723.021 269.384 721.677 271.16 719.085 271.16C716.989 271.16 714.525 269.912 714.653 266.088L715.981 265.864C715.709 268.664 717.293 269.992 719.149 269.992C720.573 269.992 721.693 269.064 721.693 267.864C721.693 266.904 721.133 266.552 720.109 266.2L717.533 265.336C716.077 264.856 715.133 263.944 715.133 262.616C715.133 260.856 716.941 259.64 718.973 259.64C721.133 259.64 723.373 260.856 723.117 263.864L721.821 264.12ZM730.889 268.312C730.793 270.92 729.401 271.16 728.457 271.16C727.177 271.16 726.217 270.296 726.217 268.84V264.696H724.425V263.56H726.217V260.904L727.497 259.32V263.56H730.521V264.696H727.497V268.824C727.497 269.656 727.897 270.008 728.585 270.008C729.321 270.008 729.705 269.368 729.577 268.168L730.889 268.312ZM735.974 263.4C738.006 263.4 738.918 265.112 738.07 267.352H736.678C737.414 265.688 737.046 264.552 735.734 264.552C734.63 264.552 733.846 265.608 733.846 268.024V271H732.566V263.56H733.846V264.792C734.278 263.992 734.966 263.4 735.974 263.4ZM740.628 261.144C740.1 261.144 739.7 260.744 739.7 260.216C739.7 259.72 740.1 259.32 740.628 259.32C741.14 259.32 741.54 259.72 741.54 260.216C741.54 260.744 741.14 261.144 740.628 261.144ZM739.972 263.56H741.268V271H739.972V263.56ZM747.198 263.4C749.198 263.4 750.638 265.112 750.638 267.272C750.638 269.528 749.134 271.16 747.182 271.16C746.142 271.16 745.326 270.488 744.798 269.656V274.2H743.518V263.56H744.782V264.856C745.31 264.04 746.11 263.4 747.198 263.4ZM747.102 270.072C748.398 270.072 749.31 268.904 749.31 267.272C749.31 265.64 748.366 264.504 747.118 264.504C745.662 264.504 744.686 265.72 744.686 267.288C744.686 268.808 745.742 270.072 747.102 270.072ZM755.673 263.4C757.689 263.4 759.065 264.664 758.953 266.776L758.921 267.32H753.337C753.337 268.952 754.233 270.04 755.561 270.04C756.617 270.04 757.353 269.448 757.449 268.184L758.729 268.632C758.313 270.392 757.209 271.16 755.545 271.16C753.369 271.16 752.041 269.512 752.041 267.368C752.041 264.744 753.593 263.4 755.673 263.4ZM755.705 264.488C754.665 264.488 753.801 265.032 753.481 266.232H757.689C757.545 264.84 756.585 264.488 755.705 264.488ZM771.174 266.92H766.822L765.302 271H763.91L768.278 259.8H769.718L774.086 271H772.694L771.174 266.92ZM770.726 265.72L768.998 261.08L767.27 265.72H770.726ZM780.338 259.8C782.37 259.8 783.89 260.936 783.89 262.824C783.89 264.728 782.37 265.912 780.338 265.912H776.738V271H775.458V259.8H780.338ZM780.194 264.712C782.098 264.712 782.546 263.704 782.546 262.824C782.546 261.944 782.098 261 780.194 261H776.738V264.712H780.194ZM785.601 259.8H786.881V271H785.601V259.8Z" fill="white"/>
<g clip-path="url(#clip2_43_242)">
<path d="M796.426 242H753.447C752.234 242 751.07 241.518 750.212 240.66C749.354 239.802 748.872 238.639 748.872 237.426V194.574C748.872 193.327 749.368 192.131 750.25 191.25C751.131 190.368 752.327 189.872 753.574 189.872H796.298C797.545 189.872 798.741 190.368 799.623 191.25C800.505 192.131 801 193.327 801 194.574V237.426C801 238.639 800.518 239.802 799.66 240.66C798.802 241.518 797.639 242 796.426 242V242ZM753.574 194.128C753.458 194.133 753.347 194.182 753.264 194.264C753.182 194.347 753.133 194.458 753.128 194.574V237.426C753.128 237.51 753.161 237.591 753.221 237.651C753.281 237.711 753.362 237.745 753.447 237.745H796.426C796.51 237.745 796.591 237.711 796.651 237.651C796.711 237.591 796.745 237.51 796.745 237.426V194.574C796.739 194.458 796.691 194.347 796.608 194.264C796.525 194.182 796.415 194.133 796.298 194.128H753.574Z" fill="white"/>
<path d="M744.872 218.064H727.596C726.975 218.055 726.363 217.925 725.793 217.68C725.223 217.435 724.707 217.08 724.274 216.635C723.842 216.191 723.501 215.665 723.271 215.089C723.042 214.513 722.928 213.897 722.936 213.277V170.723C722.928 170.103 723.042 169.487 723.271 168.911C723.501 168.335 723.842 167.809 724.274 167.365C724.707 166.92 725.223 166.565 725.793 166.32C726.363 166.075 726.975 165.944 727.596 165.936H770.362C770.986 165.936 771.605 166.06 772.181 166.302C772.757 166.544 773.279 166.898 773.717 167.343C774.155 167.789 774.499 168.317 774.731 168.898C774.962 169.478 775.075 170.099 775.064 170.723V186.106H770.809V170.723C770.809 170.605 770.761 170.491 770.678 170.407C770.594 170.324 770.48 170.277 770.362 170.277H727.596C727.475 170.276 727.359 170.323 727.272 170.406C727.185 170.489 727.133 170.603 727.128 170.723V213.277C727.133 213.397 727.185 213.511 727.272 213.594C727.359 213.677 727.475 213.724 727.596 213.723H744.809L744.872 218.064Z" fill="white"/>
<path d="M719.085 194.128H705.702C705.085 194.128 704.473 194.006 703.903 193.77C703.332 193.533 702.814 193.187 702.377 192.75C701.941 192.314 701.594 191.795 701.358 191.225C701.122 190.654 701 190.043 701 189.426V146.702C701 145.455 701.495 144.259 702.377 143.377C703.259 142.495 704.455 142 705.702 142H748.426C749.043 142 749.654 142.122 750.225 142.358C750.795 142.594 751.314 142.941 751.75 143.377C752.187 143.814 752.533 144.332 752.77 144.903C753.006 145.473 753.128 146.085 753.128 146.702V162.085H748.872V146.702C748.867 146.585 748.818 146.475 748.736 146.392C748.653 146.309 748.542 146.261 748.426 146.255H705.702C705.585 146.261 705.475 146.309 705.392 146.392C705.309 146.475 705.261 146.585 705.255 146.702V189.426C705.261 189.542 705.309 189.653 705.392 189.736C705.475 189.818 705.585 189.867 705.702 189.872H719.085V194.128Z" fill="white"/>
</g>
<line x1="626" y1="208" x2="626" y2="500" stroke="white" stroke-width="2"/>
<line x1="625" y1="207" x2="675" y2="207" stroke="white" stroke-width="2"/>
<line x1="625" y1="499" x2="675" y2="499" stroke="white" stroke-width="2"/>
<defs>
<clipPath id="clip0_43_242">
<rect width="100" height="100" fill="white" transform="translate(0 290)"/>
</clipPath>
<clipPath id="clip1_43_242">
<rect width="100" height="100" fill="white" transform="translate(701 434)"/>
</clipPath>
<clipPath id="clip2_43_242">
<rect width="100" height="100" fill="white" transform="translate(701 142)"/>
</clipPath>
</defs>
</svg>
