<svg width="465" height="266" viewBox="0 0 465 266" fill="none" xmlns="http://www.w3.org/2000/svg">
<rect x="84" y="171" width="133" height="59" rx="9" stroke="white" stroke-width="2"/>
<path d="M123.307 206C122.971 205.552 122.715 205.056 122.603 204.384C122.171 205.392 121.403 206.16 120.059 206.16C118.651 206.16 117.803 205.008 117.803 203.84C117.803 202.48 118.683 201.84 120.651 201.632C121.323 201.568 121.947 201.456 122.395 201.168V200.832C122.395 199.648 121.515 199.504 120.715 199.504C119.755 199.504 118.763 200.032 119.147 201.232L117.803 200.864C117.595 199.024 119.387 198.4 120.763 198.4C122.219 198.4 123.659 198.864 123.659 200.768V203.2C123.659 204.704 124.443 205.568 124.763 206H123.307ZM120.299 205.04C121.275 205.04 122.251 204.16 122.443 202.208C122.043 202.448 121.515 202.608 120.843 202.704C119.723 202.864 119.115 203.04 119.115 203.872C119.115 204.48 119.547 205.04 120.299 205.04ZM131.522 203.312C131.426 205.92 130.034 206.16 129.09 206.16C127.81 206.16 126.85 205.296 126.85 203.84V199.696H125.058V198.56H126.85V195.904L128.13 194.32V198.56H131.154V199.696H128.13V203.824C128.13 204.656 128.53 205.008 129.218 205.008C129.954 205.008 130.338 204.368 130.21 203.168L131.522 203.312ZM138.585 203.312C138.489 205.92 137.097 206.16 136.153 206.16C134.873 206.16 133.913 205.296 133.913 203.84V199.696H132.121V198.56H133.913V195.904L135.193 194.32V198.56H138.217V199.696H135.193V203.824C135.193 204.656 135.593 205.008 136.281 205.008C137.017 205.008 137.401 204.368 137.273 203.168L138.585 203.312ZM140.149 201.44H144.597V202.608H140.149V201.44ZM150.169 198.4C152.201 198.4 153.113 200.112 152.265 202.352H150.873C151.609 200.688 151.241 199.552 149.929 199.552C148.825 199.552 148.041 200.608 148.041 203.024V206H146.761V198.56H148.041V199.792C148.473 198.992 149.161 198.4 150.169 198.4ZM157.384 198.4C159.4 198.4 160.776 199.664 160.664 201.776L160.632 202.32H155.048C155.048 203.952 155.944 205.04 157.272 205.04C158.328 205.04 159.064 204.448 159.16 203.184L160.44 203.632C160.024 205.392 158.92 206.16 157.256 206.16C155.08 206.16 153.752 204.512 153.752 202.368C153.752 199.744 155.304 198.4 157.384 198.4ZM157.416 199.488C156.376 199.488 155.512 200.032 155.192 201.232H159.4C159.256 199.84 158.296 199.488 157.416 199.488ZM167.76 206C167.424 205.552 167.168 205.056 167.056 204.384C166.624 205.392 165.856 206.16 164.512 206.16C163.104 206.16 162.256 205.008 162.256 203.84C162.256 202.48 163.136 201.84 165.104 201.632C165.776 201.568 166.4 201.456 166.848 201.168V200.832C166.848 199.648 165.968 199.504 165.168 199.504C164.208 199.504 163.216 200.032 163.6 201.232L162.256 200.864C162.048 199.024 163.84 198.4 165.216 198.4C166.672 198.4 168.112 198.864 168.112 200.768V203.2C168.112 204.704 168.896 205.568 169.216 206H167.76ZM164.752 205.04C165.728 205.04 166.704 204.16 166.896 202.208C166.496 202.448 165.968 202.608 165.296 202.704C164.176 202.864 163.568 203.04 163.568 203.872C163.568 204.48 164 205.04 164.752 205.04ZM176.944 203.216C176.608 205.632 174.928 206.16 173.664 206.16C171.792 206.16 170.08 204.736 170.08 202.288C170.08 199.696 171.984 198.4 173.792 198.4C175.152 198.4 176.8 198.88 177.216 201.088L175.936 201.488C175.808 199.952 174.736 199.552 173.808 199.552C172.512 199.552 171.408 200.576 171.408 202.272C171.408 203.968 172.464 205.008 173.728 205.008C174.64 205.008 175.616 204.4 175.664 202.832L176.944 203.216ZM184.585 203.312C184.489 205.92 183.097 206.16 182.153 206.16C180.873 206.16 179.913 205.296 179.913 203.84V199.696H178.121V198.56H179.913V195.904L181.193 194.32V198.56H184.217V199.696H181.193V203.824C181.193 204.656 181.593 205.008 182.281 205.008C183.017 205.008 183.401 204.368 183.273 203.168L184.585 203.312Z" fill="white"/>
<rect x="249" y="171" width="133" height="59" rx="9" stroke="white" stroke-width="2"/>
<path d="M288.268 206C287.932 205.552 287.676 205.056 287.564 204.384C287.132 205.392 286.364 206.16 285.02 206.16C283.612 206.16 282.764 205.008 282.764 203.84C282.764 202.48 283.644 201.84 285.612 201.632C286.284 201.568 286.908 201.456 287.356 201.168V200.832C287.356 199.648 286.476 199.504 285.676 199.504C284.716 199.504 283.724 200.032 284.108 201.232L282.764 200.864C282.556 199.024 284.348 198.4 285.724 198.4C287.18 198.4 288.62 198.864 288.62 200.768V203.2C288.62 204.704 289.404 205.568 289.724 206H288.268ZM285.26 205.04C286.236 205.04 287.212 204.16 287.404 202.208C287.004 202.448 286.476 202.608 285.804 202.704C284.684 202.864 284.076 203.04 284.076 203.872C284.076 204.48 284.508 205.04 285.26 205.04ZM296.483 203.312C296.387 205.92 294.995 206.16 294.051 206.16C292.771 206.16 291.811 205.296 291.811 203.84V199.696H290.019V198.56H291.811V195.904L293.091 194.32V198.56H296.115V199.696H293.091V203.824C293.091 204.656 293.491 205.008 294.179 205.008C294.915 205.008 295.299 204.368 295.171 203.168L296.483 203.312ZM303.546 203.312C303.45 205.92 302.058 206.16 301.114 206.16C299.834 206.16 298.874 205.296 298.874 203.84V199.696H297.082V198.56H298.874V195.904L300.154 194.32V198.56H303.178V199.696H300.154V203.824C300.154 204.656 300.554 205.008 301.242 205.008C301.978 205.008 302.362 204.368 302.234 203.168L303.546 203.312ZM305.11 201.44H309.558V202.608H305.11V201.44ZM318.186 203.216C317.85 205.632 316.17 206.16 314.906 206.16C313.034 206.16 311.322 204.736 311.322 202.288C311.322 199.696 313.226 198.4 315.034 198.4C316.394 198.4 318.042 198.88 318.458 201.088L317.178 201.488C317.05 199.952 315.978 199.552 315.05 199.552C313.754 199.552 312.65 200.576 312.65 202.272C312.65 203.968 313.706 205.008 314.97 205.008C315.882 205.008 316.858 204.4 316.906 202.832L318.186 203.216ZM320.095 194.48H321.375V206H320.095V194.48ZM324.222 196.144C323.694 196.144 323.294 195.744 323.294 195.216C323.294 194.72 323.694 194.32 324.222 194.32C324.734 194.32 325.134 194.72 325.134 195.216C325.134 195.744 324.734 196.144 324.222 196.144ZM323.566 198.56H324.862V206H323.566V198.56ZM330.376 198.4C332.392 198.4 333.768 199.664 333.656 201.776L333.624 202.32H328.04C328.04 203.952 328.936 205.04 330.264 205.04C331.32 205.04 332.056 204.448 332.152 203.184L333.432 203.632C333.016 205.392 331.912 206.16 330.248 206.16C328.072 206.16 326.744 204.512 326.744 202.368C326.744 199.744 328.296 198.4 330.376 198.4ZM330.408 199.488C329.368 199.488 328.504 200.032 328.184 201.232H332.392C332.248 199.84 331.288 199.488 330.408 199.488ZM339.248 198.4C340.464 198.4 341.968 199.12 341.968 201.104V206H340.688V201.344C340.688 200.096 340.064 199.536 339.072 199.536C338.24 199.536 337.504 200 337.088 200.832C336.816 201.376 336.736 201.92 336.736 202.848V206H335.456V198.56H336.72V199.984C337.184 199.072 337.952 198.4 339.248 198.4ZM349.624 203.312C349.528 205.92 348.136 206.16 347.192 206.16C345.912 206.16 344.952 205.296 344.952 203.84V199.696H343.16V198.56H344.952V195.904L346.232 194.32V198.56H349.256V199.696H346.232V203.824C346.232 204.656 346.632 205.008 347.32 205.008C348.056 205.008 348.44 204.368 348.312 203.168L349.624 203.312Z" fill="white"/>
<rect x="1" y="36" width="133" height="59" rx="9" stroke="white" stroke-width="2"/>
<path d="M38.0883 71C37.7523 70.552 37.4963 70.056 37.3843 69.384C36.9523 70.392 36.1843 71.16 34.8403 71.16C33.4323 71.16 32.5843 70.008 32.5843 68.84C32.5843 67.48 33.4643 66.84 35.4323 66.632C36.1043 66.568 36.7283 66.456 37.1763 66.168V65.832C37.1763 64.648 36.2963 64.504 35.4963 64.504C34.5363 64.504 33.5443 65.032 33.9283 66.232L32.5843 65.864C32.3763 64.024 34.1683 63.4 35.5443 63.4C37.0003 63.4 38.4403 63.864 38.4403 65.768V68.2C38.4403 69.704 39.2243 70.568 39.5443 71H38.0883ZM35.0803 70.04C36.0563 70.04 37.0323 69.16 37.2243 67.208C36.8243 67.448 36.2963 67.608 35.6243 67.704C34.5043 67.864 33.8963 68.04 33.8963 68.872C33.8963 69.48 34.3283 70.04 35.0803 70.04ZM46.3034 68.312C46.2074 70.92 44.8154 71.16 43.8714 71.16C42.5914 71.16 41.6314 70.296 41.6314 68.84V64.696H39.8394V63.56H41.6314V60.904L42.9114 59.32V63.56H45.9354V64.696H42.9114V68.824C42.9114 69.656 43.3114 70.008 43.9994 70.008C44.7354 70.008 45.1194 69.368 44.9914 68.168L46.3034 68.312ZM53.3659 68.312C53.2699 70.92 51.8779 71.16 50.9339 71.16C49.6539 71.16 48.6939 70.296 48.6939 68.84V64.696H46.9019V63.56H48.6939V60.904L49.9739 59.32V63.56H52.9979V64.696H49.9739V68.824C49.9739 69.656 50.3739 70.008 51.0619 70.008C51.7979 70.008 52.1819 69.368 52.0539 68.168L53.3659 68.312ZM54.9303 66.44H59.3783V67.608H54.9303V66.44ZM65.1903 63.4C67.1903 63.4 68.6302 65.112 68.6302 67.272C68.6302 69.528 67.1263 71.16 65.1743 71.16C64.1343 71.16 63.3183 70.488 62.7903 69.656V74.2H61.5103V63.56H62.7743V64.856C63.3023 64.04 64.1023 63.4 65.1903 63.4ZM65.0943 70.072C66.3903 70.072 67.3023 68.904 67.3023 67.272C67.3023 65.64 66.3583 64.504 65.1102 64.504C63.6543 64.504 62.6783 65.72 62.6783 67.288C62.6783 68.808 63.7343 70.072 65.0943 70.072ZM73.6969 71.16C71.5369 71.16 70.0009 69.48 70.0009 67.272C70.0009 65.016 71.4889 63.4 73.6969 63.4C75.9049 63.4 77.3929 65.016 77.3929 67.272C77.3929 69.48 75.8569 71.16 73.6969 71.16ZM73.6969 70.04C75.0249 70.04 76.0649 68.888 76.0649 67.224C76.0649 65.592 75.0249 64.52 73.6969 64.52C72.3689 64.52 71.3289 65.592 71.3289 67.224C71.3289 68.888 72.3689 70.04 73.6969 70.04ZM82.6378 63.4C84.6698 63.4 85.5818 65.112 84.7338 67.352H83.3418C84.0778 65.688 83.7098 64.552 82.3978 64.552C81.2938 64.552 80.5098 65.608 80.5098 68.024V71H79.2298V63.56H80.5098V64.792C80.9418 63.992 81.6298 63.4 82.6378 63.4ZM92.4284 68.312C92.3324 70.92 90.9404 71.16 89.9964 71.16C88.7164 71.16 87.7564 70.296 87.7564 68.84V64.696H85.9644V63.56H87.7564V60.904L89.0364 59.32V63.56H92.0604V64.696H89.0364V68.824C89.0364 69.656 89.4364 70.008 90.1244 70.008C90.8604 70.008 91.2444 69.368 91.1164 68.168L92.4284 68.312ZM99.4008 71C99.0648 70.552 98.8088 70.056 98.6968 69.384C98.2648 70.392 97.4968 71.16 96.1528 71.16C94.7448 71.16 93.8968 70.008 93.8968 68.84C93.8968 67.48 94.7768 66.84 96.7448 66.632C97.4168 66.568 98.0408 66.456 98.4888 66.168V65.832C98.4888 64.648 97.6088 64.504 96.8088 64.504C95.8488 64.504 94.8568 65.032 95.2408 66.232L93.8968 65.864C93.6888 64.024 95.4808 63.4 96.8568 63.4C98.3128 63.4 99.7528 63.864 99.7528 65.768V68.2C99.7528 69.704 100.537 70.568 100.857 71H99.4008ZM96.3928 70.04C97.3688 70.04 98.3448 69.16 98.5368 67.208C98.1368 67.448 97.6088 67.608 96.9368 67.704C95.8168 67.864 95.2088 68.04 95.2088 68.872C95.2088 69.48 95.6408 70.04 96.3928 70.04ZM102.024 59.48H103.304V71H102.024V59.48Z" fill="white"/>
<path d="M68.7071 99.2929C68.3166 98.9024 67.6834 98.9024 67.2929 99.2929L60.9289 105.657C60.5384 106.047 60.5384 106.681 60.9289 107.071C61.3195 107.462 61.9526 107.462 62.3431 107.071L68 101.414L73.6569 107.071C74.0474 107.462 74.6805 107.462 75.0711 107.071C75.4616 106.681 75.4616 106.047 75.0711 105.657L68.7071 99.2929ZM69 131L69 100L67 100L67 131L69 131Z" fill="white"/>
<path d="M233.707 99.2929C233.317 98.9024 232.683 98.9024 232.293 99.2929L225.929 105.657C225.538 106.047 225.538 106.681 225.929 107.071C226.319 107.462 226.953 107.462 227.343 107.071L233 101.414L238.657 107.071C239.047 107.462 239.681 107.462 240.071 107.071C240.462 106.681 240.462 106.047 240.071 105.657L233.707 99.2929ZM234 131L234 100L232 100L232 131L234 131Z" fill="white"/>
<path d="M398.707 99.2929C398.317 98.9024 397.683 98.9024 397.293 99.2929L390.929 105.657C390.538 106.047 390.538 106.681 390.929 107.071C391.319 107.462 391.953 107.462 392.343 107.071L398 101.414L403.657 107.071C404.047 107.462 404.681 107.462 405.071 107.071C405.462 106.681 405.462 106.047 405.071 105.657L398.707 99.2929ZM399 131L399 100L397 100L397 131L399 131Z" fill="white"/>
<rect x="166" y="36" width="133" height="59" rx="9" stroke="white" stroke-width="2"/>
<path d="M208.596 71C208.26 70.552 208.004 70.056 207.892 69.384C207.46 70.392 206.692 71.16 205.348 71.16C203.94 71.16 203.092 70.008 203.092 68.84C203.092 67.48 203.972 66.84 205.94 66.632C206.612 66.568 207.236 66.456 207.684 66.168V65.832C207.684 64.648 206.804 64.504 206.004 64.504C205.044 64.504 204.052 65.032 204.436 66.232L203.092 65.864C202.884 64.024 204.676 63.4 206.052 63.4C207.508 63.4 208.948 63.864 208.948 65.768V68.2C208.948 69.704 209.732 70.568 210.052 71H208.596ZM205.588 70.04C206.564 70.04 207.54 69.16 207.732 67.208C207.332 67.448 206.804 67.608 206.132 67.704C205.012 67.864 204.404 68.04 204.404 68.872C204.404 69.48 204.836 70.04 205.588 70.04ZM216.811 68.312C216.715 70.92 215.323 71.16 214.379 71.16C213.099 71.16 212.139 70.296 212.139 68.84V64.696H210.347V63.56H212.139V60.904L213.419 59.32V63.56H216.443V64.696H213.419V68.824C213.419 69.656 213.819 70.008 214.507 70.008C215.243 70.008 215.627 69.368 215.499 68.168L216.811 68.312ZM223.874 68.312C223.778 70.92 222.386 71.16 221.442 71.16C220.162 71.16 219.202 70.296 219.202 68.84V64.696H217.41V63.56H219.202V60.904L220.482 59.32V63.56H223.506V64.696H220.482V68.824C220.482 69.656 220.882 70.008 221.57 70.008C222.306 70.008 222.69 69.368 222.562 68.168L223.874 68.312ZM225.438 66.44H229.886V67.608H225.438V66.44ZM238.706 59.48V71H237.442V69.64C236.914 70.488 236.098 71.16 235.042 71.16C233.09 71.16 231.586 69.528 231.586 67.272C231.586 65.112 233.026 63.4 235.026 63.4C236.098 63.4 236.898 64.024 237.426 64.824V59.48H238.706ZM235.122 70.072C236.514 70.072 237.538 68.76 237.538 67.288C237.538 65.688 236.53 64.504 235.106 64.504C233.858 64.504 232.914 65.64 232.914 67.272C232.914 68.904 233.826 70.072 235.122 70.072ZM246.221 71C245.885 70.552 245.629 70.056 245.517 69.384C245.085 70.392 244.317 71.16 242.973 71.16C241.565 71.16 240.717 70.008 240.717 68.84C240.717 67.48 241.597 66.84 243.565 66.632C244.237 66.568 244.861 66.456 245.309 66.168V65.832C245.309 64.648 244.429 64.504 243.629 64.504C242.669 64.504 241.677 65.032 242.061 66.232L240.717 65.864C240.509 64.024 242.301 63.4 243.677 63.4C245.133 63.4 246.573 63.864 246.573 65.768V68.2C246.573 69.704 247.357 70.568 247.677 71H246.221ZM243.213 70.04C244.189 70.04 245.165 69.16 245.357 67.208C244.957 67.448 244.429 67.608 243.757 67.704C242.637 67.864 242.029 68.04 242.029 68.872C242.029 69.48 242.461 70.04 243.213 70.04ZM253.309 66.136C253.469 65.048 252.589 64.488 251.517 64.488C250.493 64.488 249.917 64.968 249.917 65.48C249.917 65.896 250.221 66.136 250.701 66.296C251.533 66.584 252.045 66.664 252.765 66.92C253.597 67.208 254.285 67.752 254.285 68.84C254.285 69.992 253.325 71.16 251.453 71.16C249.693 71.16 248.493 70.184 248.445 68.536L249.741 68.232C249.613 69.304 250.285 70.04 251.421 70.04C252.493 70.04 252.973 69.464 252.973 68.856C252.973 68.36 252.637 68.12 252.061 67.944C251.469 67.768 250.845 67.64 250.157 67.368C249.165 66.984 248.621 66.392 248.621 65.464C248.621 64.312 249.965 63.4 251.517 63.4C252.957 63.4 254.477 64.008 254.605 65.88L253.309 66.136ZM260.092 63.4C261.308 63.4 262.812 64.12 262.812 66.104V71H261.532V66.344C261.532 65.096 260.908 64.536 259.916 64.536C259.084 64.536 258.348 65 257.932 65.832C257.66 66.376 257.58 66.92 257.58 67.848V71H256.3V59.48H257.58V64.952C258.044 64.056 258.812 63.4 260.092 63.4Z" fill="white"/>
<rect x="331" y="36" width="133" height="59" rx="9" stroke="white" stroke-width="2"/>
<path d="M359.315 71C358.979 70.552 358.723 70.056 358.611 69.384C358.179 70.392 357.411 71.16 356.067 71.16C354.659 71.16 353.811 70.008 353.811 68.84C353.811 67.48 354.691 66.84 356.659 66.632C357.331 66.568 357.955 66.456 358.403 66.168V65.832C358.403 64.648 357.523 64.504 356.723 64.504C355.763 64.504 354.771 65.032 355.155 66.232L353.811 65.864C353.603 64.024 355.395 63.4 356.771 63.4C358.227 63.4 359.667 63.864 359.667 65.768V68.2C359.667 69.704 360.451 70.568 360.771 71H359.315ZM356.307 70.04C357.283 70.04 358.259 69.16 358.451 67.208C358.051 67.448 357.523 67.608 356.851 67.704C355.731 67.864 355.123 68.04 355.123 68.872C355.123 69.48 355.555 70.04 356.307 70.04ZM367.53 68.312C367.434 70.92 366.042 71.16 365.098 71.16C363.818 71.16 362.858 70.296 362.858 68.84V64.696H361.066V63.56H362.858V60.904L364.138 59.32V63.56H367.162V64.696H364.138V68.824C364.138 69.656 364.538 70.008 365.226 70.008C365.962 70.008 366.346 69.368 366.218 68.168L367.53 68.312ZM374.592 68.312C374.496 70.92 373.104 71.16 372.16 71.16C370.88 71.16 369.92 70.296 369.92 68.84V64.696H368.128V63.56H369.92V60.904L371.2 59.32V63.56H374.224V64.696H371.2V68.824C371.2 69.656 371.6 70.008 372.288 70.008C373.024 70.008 373.408 69.368 373.28 68.168L374.592 68.312ZM376.157 66.44H380.605V67.608H376.157V66.44ZM382.673 59.48H383.953V71H382.673V59.48ZM391.424 71C391.088 70.552 390.832 70.056 390.72 69.384C390.288 70.392 389.52 71.16 388.176 71.16C386.768 71.16 385.92 70.008 385.92 68.84C385.92 67.48 386.8 66.84 388.768 66.632C389.44 66.568 390.064 66.456 390.512 66.168V65.832C390.512 64.648 389.632 64.504 388.832 64.504C387.872 64.504 386.88 65.032 387.264 66.232L385.92 65.864C385.712 64.024 387.504 63.4 388.88 63.4C390.336 63.4 391.776 63.864 391.776 65.768V68.2C391.776 69.704 392.56 70.568 392.88 71H391.424ZM388.416 70.04C389.392 70.04 390.368 69.16 390.56 67.208C390.16 67.448 389.632 67.608 388.96 67.704C387.84 67.864 387.232 68.04 387.232 68.872C387.232 69.48 387.664 70.04 388.416 70.04ZM400.464 63.56V71H399.216V69.56C398.752 70.472 397.984 71.16 396.688 71.16C395.456 71.16 393.968 70.44 393.968 68.456V63.56H395.248V68.216C395.248 69.464 395.888 70.024 396.848 70.024C397.696 70.024 398.432 69.56 398.848 68.728C399.12 68.184 399.184 67.64 399.184 66.712V63.56H400.464ZM406.53 63.4C407.746 63.4 409.25 64.12 409.25 66.104V71H407.97V66.344C407.97 65.096 407.346 64.536 406.354 64.536C405.522 64.536 404.786 65 404.37 65.832C404.098 66.376 404.018 66.92 404.018 67.848V71H402.738V63.56H404.002V64.984C404.466 64.072 405.234 63.4 406.53 63.4ZM417.873 68.216C417.537 70.632 415.857 71.16 414.593 71.16C412.721 71.16 411.009 69.736 411.009 67.288C411.009 64.696 412.913 63.4 414.721 63.4C416.081 63.4 417.729 63.88 418.145 66.088L416.865 66.488C416.737 64.952 415.665 64.552 414.737 64.552C413.441 64.552 412.337 65.576 412.337 67.272C412.337 68.968 413.393 70.008 414.657 70.008C415.569 70.008 416.545 69.4 416.593 67.832L417.873 68.216ZM423.67 63.4C424.886 63.4 426.39 64.12 426.39 66.104V71H425.11V66.344C425.11 65.096 424.486 64.536 423.494 64.536C422.662 64.536 421.926 65 421.51 65.832C421.238 66.376 421.158 66.92 421.158 67.848V71H419.878V59.48H421.158V64.952C421.622 64.056 422.39 63.4 423.67 63.4ZM431.782 63.4C433.798 63.4 435.174 64.664 435.062 66.776L435.03 67.32H429.446C429.446 68.952 430.342 70.04 431.67 70.04C432.726 70.04 433.462 69.448 433.558 68.184L434.838 68.632C434.422 70.392 433.318 71.16 431.654 71.16C429.478 71.16 428.15 69.512 428.15 67.368C428.15 64.744 429.702 63.4 431.782 63.4ZM431.814 64.488C430.774 64.488 429.91 65.032 429.59 66.232H433.798C433.654 64.84 432.694 64.488 431.814 64.488ZM440.271 63.4C442.303 63.4 443.215 65.112 442.367 67.352H440.975C441.711 65.688 441.343 64.552 440.031 64.552C438.927 64.552 438.143 65.608 438.143 68.024V71H436.863V63.56H438.143V64.792C438.575 63.992 439.263 63.4 440.271 63.4Z" fill="white"/>
<line x1="68" y1="130" x2="398" y2="130" stroke="white" stroke-width="2"/>
<line x1="152" y1="131" x2="152" y2="170" stroke="white" stroke-width="2"/>
<line x1="317" y1="131" x2="317" y2="170" stroke="white" stroke-width="2"/>
<path d="M182.832 259.136C182.992 258.048 182.112 257.488 181.04 257.488C180.016 257.488 179.44 257.968 179.44 258.48C179.44 258.896 179.744 259.136 180.224 259.296C181.056 259.584 181.568 259.664 182.288 259.92C183.12 260.208 183.808 260.752 183.808 261.84C183.808 262.992 182.848 264.16 180.976 264.16C179.216 264.16 178.016 263.184 177.968 261.536L179.264 261.232C179.136 262.304 179.808 263.04 180.944 263.04C182.016 263.04 182.496 262.464 182.496 261.856C182.496 261.36 182.16 261.12 181.584 260.944C180.992 260.768 180.368 260.64 179.68 260.368C178.688 259.984 178.144 259.392 178.144 258.464C178.144 257.312 179.488 256.4 181.04 256.4C182.48 256.4 184 257.008 184.128 258.88L182.832 259.136ZM189.616 256.4C190.832 256.4 192.336 257.12 192.336 259.104V264H191.056V259.344C191.056 258.096 190.432 257.536 189.44 257.536C188.608 257.536 187.872 258 187.456 258.832C187.184 259.376 187.104 259.92 187.104 260.848V264H185.824V252.48H187.104V257.952C187.568 257.056 188.336 256.4 189.616 256.4ZM199.791 264C199.455 263.552 199.199 263.056 199.087 262.384C198.655 263.392 197.887 264.16 196.543 264.16C195.135 264.16 194.287 263.008 194.287 261.84C194.287 260.48 195.167 259.84 197.135 259.632C197.807 259.568 198.431 259.456 198.879 259.168V258.832C198.879 257.648 197.999 257.504 197.199 257.504C196.239 257.504 195.247 258.032 195.631 259.232L194.287 258.864C194.079 257.024 195.871 256.4 197.247 256.4C198.703 256.4 200.143 256.864 200.143 258.768V261.2C200.143 262.704 200.927 263.568 201.247 264H199.791ZM196.783 263.04C197.759 263.04 198.735 262.16 198.927 260.208C198.527 260.448 197.999 260.608 197.327 260.704C196.207 260.864 195.599 261.04 195.599 261.872C195.599 262.48 196.031 263.04 196.783 263.04ZM205.919 256.4C207.951 256.4 208.863 258.112 208.015 260.352H206.623C207.359 258.688 206.991 257.552 205.679 257.552C204.575 257.552 203.791 258.608 203.791 261.024V264H202.511V256.56H203.791V257.792C204.223 256.992 204.911 256.4 205.919 256.4ZM213.134 256.4C215.15 256.4 216.526 257.664 216.414 259.776L216.382 260.32H210.798C210.798 261.952 211.694 263.04 213.022 263.04C214.078 263.04 214.814 262.448 214.91 261.184L216.19 261.632C215.774 263.392 214.67 264.16 213.006 264.16C210.83 264.16 209.502 262.512 209.502 260.368C209.502 257.744 211.054 256.4 213.134 256.4ZM213.166 257.488C212.126 257.488 211.262 258.032 210.942 259.232H215.15C215.006 257.84 214.046 257.488 213.166 257.488ZM224.87 252.48V264H223.606V262.64C223.078 263.488 222.262 264.16 221.206 264.16C219.254 264.16 217.75 262.528 217.75 260.272C217.75 258.112 219.19 256.4 221.19 256.4C222.262 256.4 223.062 257.024 223.59 257.824V252.48H224.87ZM221.286 263.072C222.678 263.072 223.702 261.76 223.702 260.288C223.702 258.688 222.694 257.504 221.27 257.504C220.022 257.504 219.078 258.64 219.078 260.272C219.078 261.904 219.99 263.072 221.286 263.072ZM230.806 252.48H232.086V264H230.806V252.48ZM234.933 254.144C234.405 254.144 234.005 253.744 234.005 253.216C234.005 252.72 234.405 252.32 234.933 252.32C235.445 252.32 235.845 252.72 235.845 253.216C235.845 253.744 235.445 254.144 234.933 254.144ZM234.277 256.56H235.573V264H234.277V256.56ZM241.503 256.4C243.503 256.4 244.943 258.112 244.943 260.272C244.943 262.528 243.439 264.16 241.487 264.16C240.431 264.16 239.615 263.488 239.087 262.64V264H237.823V252.48H239.103V257.824C239.631 257.024 240.431 256.4 241.503 256.4ZM241.407 263.072C242.703 263.072 243.615 261.904 243.615 260.272C243.615 258.64 242.671 257.504 241.423 257.504C239.967 257.504 238.991 258.72 238.991 260.288C238.991 261.808 240.047 263.072 241.407 263.072ZM250.153 256.4C252.185 256.4 253.097 258.112 252.249 260.352H250.857C251.593 258.688 251.225 257.552 249.913 257.552C248.809 257.552 248.025 258.608 248.025 261.024V264H246.745V256.56H248.025V257.792C248.457 256.992 249.145 256.4 250.153 256.4ZM259.432 264C259.096 263.552 258.84 263.056 258.728 262.384C258.296 263.392 257.528 264.16 256.184 264.16C254.776 264.16 253.928 263.008 253.928 261.84C253.928 260.48 254.808 259.84 256.776 259.632C257.448 259.568 258.072 259.456 258.52 259.168V258.832C258.52 257.648 257.64 257.504 256.84 257.504C255.88 257.504 254.888 258.032 255.272 259.232L253.928 258.864C253.72 257.024 255.512 256.4 256.888 256.4C258.344 256.4 259.784 256.864 259.784 258.768V261.2C259.784 262.704 260.568 263.568 260.888 264H259.432ZM256.424 263.04C257.4 263.04 258.376 262.16 258.568 260.208C258.168 260.448 257.64 260.608 256.968 260.704C255.848 260.864 255.24 261.04 255.24 261.872C255.24 262.48 255.672 263.04 256.424 263.04ZM265.56 256.4C267.592 256.4 268.504 258.112 267.656 260.352H266.264C267 258.688 266.632 257.552 265.32 257.552C264.216 257.552 263.432 258.608 263.432 261.024V264H262.152V256.56H263.432V257.792C263.864 256.992 264.552 256.4 265.56 256.4ZM270.214 254.144C269.686 254.144 269.286 253.744 269.286 253.216C269.286 252.72 269.686 252.32 270.214 252.32C270.726 252.32 271.126 252.72 271.126 253.216C271.126 253.744 270.726 254.144 270.214 254.144ZM269.558 256.56H270.854V264H269.558V256.56ZM276.368 256.4C278.384 256.4 279.76 257.664 279.648 259.776L279.616 260.32H274.032C274.032 261.952 274.928 263.04 276.256 263.04C277.312 263.04 278.048 262.448 278.144 261.184L279.424 261.632C279.008 263.392 277.904 264.16 276.24 264.16C274.064 264.16 272.736 262.512 272.736 260.368C272.736 257.744 274.288 256.4 276.368 256.4ZM276.4 257.488C275.36 257.488 274.496 258.032 274.176 259.232H278.384C278.24 257.84 277.28 257.488 276.4 257.488ZM285.817 259.136C285.977 258.048 285.097 257.488 284.025 257.488C283.001 257.488 282.424 257.968 282.424 258.48C282.424 258.896 282.729 259.136 283.209 259.296C284.041 259.584 284.553 259.664 285.273 259.92C286.105 260.208 286.793 260.752 286.793 261.84C286.793 262.992 285.833 264.16 283.961 264.16C282.201 264.16 281.001 263.184 280.953 261.536L282.249 261.232C282.121 262.304 282.793 263.04 283.929 263.04C285.001 263.04 285.481 262.464 285.481 261.856C285.481 261.36 285.145 261.12 284.569 260.944C283.977 260.768 283.353 260.64 282.664 260.368C281.673 259.984 281.129 259.392 281.129 258.464C281.129 257.312 282.473 256.4 284.025 256.4C285.465 256.4 286.985 257.008 287.113 258.88L285.817 259.136Z" fill="white"/>
<path d="M196.518 14C196.182 13.552 195.926 13.056 195.814 12.384C195.382 13.392 194.614 14.16 193.27 14.16C191.862 14.16 191.014 13.008 191.014 11.84C191.014 10.48 191.894 9.84 193.862 9.632C194.534 9.568 195.158 9.456 195.606 9.168V8.832C195.606 7.648 194.726 7.504 193.926 7.504C192.966 7.504 191.974 8.032 192.358 9.232L191.014 8.864C190.806 7.024 192.598 6.4 193.974 6.4C195.43 6.4 196.87 6.864 196.87 8.768V11.2C196.87 12.704 197.654 13.568 197.974 14H196.518ZM193.51 13.04C194.486 13.04 195.462 12.16 195.654 10.208C195.254 10.448 194.726 10.608 194.054 10.704C192.934 10.864 192.326 11.04 192.326 11.872C192.326 12.48 192.758 13.04 193.51 13.04ZM202.886 6.4C204.886 6.4 206.326 8.112 206.326 10.272C206.326 12.528 204.822 14.16 202.87 14.16C201.83 14.16 201.014 13.488 200.486 12.656V17.2H199.206V6.56H200.47V7.856C200.998 7.04 201.798 6.4 202.886 6.4ZM202.79 13.072C204.086 13.072 204.998 11.904 204.998 10.272C204.998 8.64 204.054 7.504 202.806 7.504C201.35 7.504 200.374 8.72 200.374 10.288C200.374 11.808 201.43 13.072 202.79 13.072ZM211.776 6.4C213.776 6.4 215.216 8.112 215.216 10.272C215.216 12.528 213.712 14.16 211.76 14.16C210.72 14.16 209.904 13.488 209.376 12.656V17.2H208.096V6.56H209.36V7.856C209.888 7.04 210.688 6.4 211.776 6.4ZM211.68 13.072C212.976 13.072 213.888 11.904 213.888 10.272C213.888 8.64 212.944 7.504 211.696 7.504C210.24 7.504 209.264 8.72 209.264 10.288C209.264 11.808 210.32 13.072 211.68 13.072ZM216.923 2.48H218.203V14H216.923V2.48ZM221.05 4.144C220.522 4.144 220.122 3.744 220.122 3.216C220.122 2.72 220.522 2.32 221.05 2.32C221.562 2.32 221.962 2.72 221.962 3.216C221.962 3.744 221.562 4.144 221.05 4.144ZM220.394 6.56H221.69V14H220.394V6.56ZM230.436 11.216C230.1 13.632 228.42 14.16 227.156 14.16C225.284 14.16 223.572 12.736 223.572 10.288C223.572 7.696 225.476 6.4 227.284 6.4C228.644 6.4 230.292 6.88 230.708 9.088L229.428 9.488C229.3 7.952 228.228 7.552 227.3 7.552C226.004 7.552 224.9 8.576 224.9 10.272C224.9 11.968 225.956 13.008 227.22 13.008C228.132 13.008 229.108 12.4 229.156 10.832L230.436 11.216ZM237.737 14C237.401 13.552 237.145 13.056 237.033 12.384C236.601 13.392 235.833 14.16 234.489 14.16C233.081 14.16 232.233 13.008 232.233 11.84C232.233 10.48 233.113 9.84 235.081 9.632C235.753 9.568 236.377 9.456 236.825 9.168V8.832C236.825 7.648 235.945 7.504 235.145 7.504C234.185 7.504 233.193 8.032 233.577 9.232L232.233 8.864C232.025 7.024 233.817 6.4 235.193 6.4C236.649 6.4 238.089 6.864 238.089 8.768V11.2C238.089 12.704 238.873 13.568 239.193 14H237.737ZM234.729 13.04C235.705 13.04 236.681 12.16 236.873 10.208C236.473 10.448 235.945 10.608 235.273 10.704C234.153 10.864 233.545 11.04 233.545 11.872C233.545 12.48 233.977 13.04 234.729 13.04ZM245.952 11.312C245.856 13.92 244.464 14.16 243.52 14.16C242.24 14.16 241.28 13.296 241.28 11.84V7.696H239.488V6.56H241.28V3.904L242.56 2.32V6.56H245.584V7.696H242.56V11.824C242.56 12.656 242.96 13.008 243.648 13.008C244.384 13.008 244.768 12.368 244.64 11.168L245.952 11.312ZM248.3 4.144C247.772 4.144 247.372 3.744 247.372 3.216C247.372 2.72 247.772 2.32 248.3 2.32C248.812 2.32 249.212 2.72 249.212 3.216C249.212 3.744 248.812 4.144 248.3 4.144ZM247.644 6.56H248.94V14H247.644V6.56ZM254.486 14.16C252.326 14.16 250.79 12.48 250.79 10.272C250.79 8.016 252.278 6.4 254.486 6.4C256.694 6.4 258.182 8.016 258.182 10.272C258.182 12.48 256.646 14.16 254.486 14.16ZM254.486 13.04C255.814 13.04 256.854 11.888 256.854 10.224C256.854 8.592 255.814 7.52 254.486 7.52C253.158 7.52 252.118 8.592 252.118 10.224C252.118 11.888 253.158 13.04 254.486 13.04ZM263.811 6.4C265.027 6.4 266.531 7.12 266.531 9.104V14H265.251V9.344C265.251 8.096 264.627 7.536 263.635 7.536C262.803 7.536 262.067 8 261.651 8.832C261.379 9.376 261.299 9.92 261.299 10.848V14H260.019V6.56H261.283V7.984C261.747 7.072 262.515 6.4 263.811 6.4ZM273.059 9.136C273.219 8.048 272.339 7.488 271.267 7.488C270.243 7.488 269.667 7.968 269.667 8.48C269.667 8.896 269.971 9.136 270.451 9.296C271.283 9.584 271.795 9.664 272.515 9.92C273.347 10.208 274.035 10.752 274.035 11.84C274.035 12.992 273.075 14.16 271.203 14.16C269.443 14.16 268.243 13.184 268.195 11.536L269.491 11.232C269.363 12.304 270.035 13.04 271.171 13.04C272.243 13.04 272.723 12.464 272.723 11.856C272.723 11.36 272.387 11.12 271.811 10.944C271.219 10.768 270.595 10.64 269.907 10.368C268.915 9.984 268.371 9.392 268.371 8.464C268.371 7.312 269.715 6.4 271.267 6.4C272.707 6.4 274.227 7.008 274.355 8.88L273.059 9.136Z" fill="white"/>
</svg>
